<svg width="49" height="48" viewBox="0 0 49 48" fill="none">
<path d="M20.3182 33.9361L32.2822 24.5341C32.3622 24.4706 32.4268 24.3899 32.4712 24.2979C32.5156 24.206 32.5386 24.1052 32.5386 24.0031C32.5386 23.901 32.5156 23.8002 32.4712 23.7083C32.4268 23.6163 32.3622 23.5356 32.2822 23.4721L20.3182 14.0641C19.8742 13.7161 19.2202 14.0281 19.2202 14.5921V33.4021C19.2202 33.9661 19.8742 34.2841 20.3182 33.9361Z" fill="currentColor"/>
<path d="M46.58 0H2.42C1.358 0 0.5 0.858 0.5 1.92V46.08C0.5 47.142 1.358 48 2.42 48H46.58C47.642 48 48.5 47.142 48.5 46.08V1.92C48.5 0.858 47.642 0 46.58 0ZM44.18 43.68H4.82V4.32H44.18V43.68Z" fill="currentColor"/>
</svg>
