<svg width="150" height="150" viewBox="20 20 230 230" id="circles" fill="none" xmlns="http://www.w3.org/2000/svg" xmlns:xlink="http://www.w3.org/1999/xlink">
    <defs>
        <linearGradient id="paint0_linear" x1="62.9461" y1="2.04588" x2="67.0066" y2="127.907" gradientUnits="userSpaceOnUse">
            <stop stop-color="#51CF15"/>
            <stop offset="1" stop-color="#003C19"/>
        </linearGradient>
    </defs>

        <style>
        </style>

        <defs>

            <symbol id="top_arc" style="mix-blend-mode:overlay">
                <path d="M178.459 49.9899C200.779 62.7665 216.021 83.052 223.044 105.847L202.93 111.299C197.267 93.6362 185.406 78.0144 168.194 68.1191C131.371 47.1304 84.4053 59.8724 63.3548 96.5985C53.4595 113.81 51.1061 133.444 55.1019 151.486L35.0846 156.876C29.6662 133.605 32.5812 108.432 45.2608 86.1745C72.0035 39.5501 131.835 23.2472 178.459 49.9899Z" fill="url(#paint0_linear)" fill-opacity="0.3"/>
            </symbol>

            <symbol id="center_circle" style="mix-blend-mode:overlay">
                <path d="M96.0278 119.776C65.8724 136.878 27.3258 126.298 10.2203 96.0278C-6.88146 65.8724 3.69812 27.3258 33.9685 10.2203C64.1239 -6.88145 102.67 3.69815 119.776 33.9685C136.878 64.1239 126.294 102.556 96.0278 119.776ZM37.3873 16.2054C10.508 31.4733 1.05239 65.7259 16.3203 92.6052C31.5882 119.485 65.8408 128.94 92.7201 113.672C119.599 98.4043 129.055 64.1517 113.787 37.2724C98.408 10.5118 64.1555 1.0562 37.3873 16.2054Z" fill="url(#paint0_linear)" fill-opacity="0.3"/>
            </symbol>

            <symbol id="bottom_arc" style="mix-blend-mode:overlay">
                <path d="M57.891 137.733C94.6171 158.783 141.583 146.041 162.633 109.315C172.528 92.1033 174.882 72.4701 170.886 54.4276L191 48.9756C196.419 72.2472 193.504 97.4193 180.824 119.677C153.985 166.364 94.2502 182.605 47.6258 155.862C25.3061 143.085 10.0026 122.703 2.97936 99.9083L23.0936 94.4563C28.756 112.119 40.6792 127.837 57.891 137.733Z" fill="url(#paint0_linear)" fill-opacity="0.3"/>
            </symbol>

        </defs>

        <g id="Ñcir" >
            <use xlink:href="#top_arc" x="0" y="0" />
            <use xlink:href="#center_circle" x="65" y="70" />
            <use xlink:href="#bottom_arc" x="34" y="64" />
        </g>

</svg>