<svg width="196" height="138" viewBox="0 0 196 138" fill="none" xmlns="http://www.w3.org/2000/svg">
<style>
</style>
<g id="Instagram story - 2">
<rect width="196" height="138" fill="#15211C"/>
<g id="Arrow">
<path id="arrow_line_u" fill-rule="evenodd" clip-rule="evenodd" d="M45 40.8333L57.5 20L70 40.8333L59.6651 40.8333L59.6651 70L55.3349 70L55.3349 40.8333L45 40.8333Z" fill="#96C2AF"/>
</g>
<g id="Arrow_2">
<path id="arrow_line_d" fill-rule="evenodd" clip-rule="evenodd" d="M155 50.1667L143 71L131 50.1667L140.922 50.1667L140.922 21L145.078 21L145.078 50.1667L155 50.1667Z" fill="#517465"/>
</g>
<g id="up_text">
<path id="1/2" d="M47.7394 93.2V110H43.8514V96.32H40.4914V93.2H47.7394ZM58.0499 89.792H61.3859L53.4659 112.4H50.1299L58.0499 89.792ZM75.0083 106.832V110H62.3123V107.48L68.7923 101.36C69.4803 100.704 69.9443 100.144 70.1843 99.68C70.4243 99.2 70.5443 98.728 70.5443 98.264C70.5443 97.592 70.3123 97.08 69.8483 96.728C69.4003 96.36 68.7363 96.176 67.8563 96.176C67.1203 96.176 66.4563 96.32 65.8643 96.608C65.2723 96.88 64.7763 97.296 64.3763 97.856L61.5443 96.032C62.2003 95.056 63.1043 94.296 64.2563 93.752C65.4083 93.192 66.7283 92.912 68.2163 92.912C69.4643 92.912 70.5523 93.12 71.4803 93.536C72.4243 93.936 73.1523 94.512 73.6643 95.264C74.1923 96 74.4563 96.872 74.4563 97.88C74.4563 98.792 74.2643 99.648 73.8803 100.448C73.4963 101.248 72.7523 102.16 71.6483 103.184L67.7843 106.832H75.0083Z" fill="#899988"/>
<path id="plus" d="M32.2284 103.064H28.0524V107.144H24.9564V103.064H20.8044V100.136H24.9564V96.056H28.0524V100.136H32.2284V103.064Z" fill="#EAF8E9"/>
</g>
<g id="down_text">
<path id="1/2_2" d="M134.739 93.2V110H130.851V96.32H127.491V93.2H134.739ZM145.05 89.792H148.386L140.466 112.4H137.13L145.05 89.792ZM162.008 106.832V110H149.312V107.48L155.792 101.36C156.48 100.704 156.944 100.144 157.184 99.68C157.424 99.2 157.544 98.728 157.544 98.264C157.544 97.592 157.312 97.08 156.848 96.728C156.4 96.36 155.736 96.176 154.856 96.176C154.12 96.176 153.456 96.32 152.864 96.608C152.272 96.88 151.776 97.296 151.376 97.856L148.544 96.032C149.2 95.056 150.104 94.296 151.256 93.752C152.408 93.192 153.728 92.912 155.216 92.912C156.464 92.912 157.552 93.12 158.48 93.536C159.424 93.936 160.152 94.512 160.664 95.264C161.192 96 161.456 96.872 161.456 97.88C161.456 98.792 161.264 99.648 160.88 100.448C160.496 101.248 159.752 102.16 158.648 103.184L154.784 106.832H162.008Z" fill="#899988"/>
<path id="minus" d="M107.804 100.136H119.228V103.064H107.804V100.136Z" fill="#517465"/>
</g>
</g>
</svg>
