<svg width="300" height="300" viewBox="20 20 400 400" fill="none" xmlns="http://www.w3.org/2000/svg">
<path d="M60.0283 224.028C60.0283 248.169 65.3579 272.013 75.6367 293.856L134.993 265.925C128.826 252.819 125.628 238.513 125.628 224.028H60.0283Z" fill="#51CF15" fill-opacity="0.7"/>
<path d="M82.0001 142.028C69.9296 162.935 62.6236 186.249 60.6035 210.305L125.973 215.794C127.185 201.361 131.569 187.372 138.811 174.828L82.0001 142.028Z" fill="#51CF15" fill-opacity="0.8"/>
<path d="M224.028 60.0283C199.887 60.0283 176.044 65.3579 154.201 75.6367L182.132 134.993C195.238 128.826 209.544 125.628 224.028 125.628V60.0283Z" fill="#51CF15"/>
<path d="M366.056 142.028C353.986 121.122 337.449 103.137 317.625 89.3599L280.187 143.227C292.081 151.494 302.003 162.284 309.245 174.828L366.056 142.028Z" fill="#51CF15" fill-opacity="0.05"/>
<path d="M142.028 82.0001C121.122 94.0707 103.137 110.608 89.3598 130.431L143.227 167.87C151.494 155.976 162.284 146.054 174.828 138.811L142.028 82.0001Z" fill="#51CF15" fill-opacity="0.9"/>
<path d="M82.0001 306.028C94.0706 326.935 110.608 344.919 130.431 358.697L167.87 304.829C155.976 296.563 146.054 285.772 138.811 273.228L82.0001 306.028Z" fill="#51CF15" fill-opacity="0.6"/>
<path d="M142.028 366.056C162.935 378.127 186.249 385.433 210.305 387.453L215.795 322.083C201.361 320.871 187.372 316.487 174.828 309.245L142.028 366.056Z" fill="#51CF15" fill-opacity="0.5"/>
<path d="M306.028 366.056C326.935 353.986 344.919 337.449 358.697 317.625L304.829 280.186C296.563 292.08 285.772 302.003 273.228 309.245L306.028 366.056Z" fill="#51CF15" fill-opacity="0.3"/>
<path d="M388.028 224.028C388.028 199.887 382.699 176.044 372.42 154.201L313.063 182.132C319.231 195.238 322.428 209.544 322.428 224.028L388.028 224.028Z" fill="#51CF15" fill-opacity="0.1"/>
<path d="M366.057 306.028C378.127 285.121 385.433 261.808 387.453 237.751L322.083 232.262C320.871 246.696 316.488 260.684 309.245 273.228L366.057 306.028Z" fill="#51CF15" fill-opacity="0.2"/>
<path d="M224.028 388.028C248.169 388.028 272.013 382.699 293.856 372.42L265.925 313.063C252.819 319.231 238.513 322.428 224.028 322.428V388.028Z" fill="#51CF15" fill-opacity="0.4"/>
</svg>
