<svg width="210" height="319" viewBox="0 0 210 319" fill="none" xmlns="http://www.w3.org/2000/svg">
<path d="M179.731 316.907C166.752 316.907 153.667 317.385 140.701 316.834C130.557 316.402 120.775 313.628 110.802 313.004C105.006 312.642 99.1976 310.445 93.57 310.279C91.1832 310.209 86.4633 311.192 84.2911 309.985C80.5108 307.885 78.6849 299.841 76.2642 296.361C73.065 291.762 69.3179 287.378 67.059 282.296C66.2988 280.585 57.1968 262.666 59.1057 262.56C67.0751 262.117 74.9282 263.885 82.8919 263.885C89.5044 263.885 95.2133 266.536 101.597 266.536C110.79 266.536 119.367 270.386 128.771 270.513C136.113 270.612 143.298 271.647 150.569 271.839C165.951 272.243 181.421 273.164 196.963 273.164" stroke="#627661" stroke-width="3" stroke-linecap="round"/>
<path d="M137.314 265.211C138.647 255.379 138.094 245.861 138.639 236.049C138.785 233.419 144.909 219.074 145.267 219.7C149.583 227.253 152.449 230.747 161.468 230.747C167.278 230.747 176.225 228.299 174.355 236.712C173.178 242.012 173.104 246.903 173.104 252.545C173.104 255.502 171.404 271.25 171.778 261.529C171.958 256.837 180.709 253.81 184.223 256.153C189.797 259.868 178.439 267.862 187.685 267.862" stroke="#627661" stroke-width="3" stroke-linecap="round"/>
<path d="M63.0825 278.466C54.4956 278.466 46.144 277.141 37.6025 277.141C33.9858 277.141 29.7339 276.677 28.3237 272.87C23.0504 258.632 15.0919 244.776 7.99857 231.336C3.69063 223.173 -4.10423 215.936 10.3551 216.165C24.665 216.393 39.8637 218.817 53.8037 218.817C66.7441 218.817 79.5828 222.793 92.5392 222.793C101.956 222.793 112.651 221.238 121.701 223.824C130.528 226.346 143.011 224.119 151.894 224.119C165.375 224.119 181.692 226.516 194.312 221.468" stroke="#627661" stroke-width="3" stroke-linecap="round"/>
<path d="M56.4551 216.165C56.4551 209.332 52.2087 190.724 62.641 193.631C73.0509 196.532 84.6394 194.772 94.3069 197.534C98.4864 198.728 113.309 197.432 114.706 202.321C115.913 206.545 110.803 211.543 110.803 216.165" stroke="#627661" stroke-width="3" stroke-linecap="round"/>
<path d="M129.36 221.468C129.36 205.954 129.941 190.737 132.306 175.368C133.279 169.038 133.368 161.46 140.995 162.701C152.929 164.644 164.866 172.422 176.785 172.422C194.793 172.422 194.268 200.126 198.289 212.189" stroke="#627661" stroke-width="3" stroke-linecap="round"/>
<path d="M199.614 71.6805C193.384 65.2619 186.652 58.4595 181.056 51.5027C177.984 47.6831 176.316 43.471 172.44 40.4565C167.727 36.7905 161.907 33.0345 156.533 31.8404C154.497 31.3878 142.109 23.5332 141.363 28.011C140.641 32.3439 145.367 43.0791 147.255 47.2315C148.47 49.905 147.917 53.4895 147.917 56.3631C147.917 59.56 151.125 61.6327 153.22 63.7272C157.627 68.1351 158.35 73.916 162.498 78.3083C174.482 90.9969 184.805 106.466 194.312 120.726" stroke="#627661" stroke-width="3" stroke-linecap="round"/>
<path d="M165.15 33.2396C165.15 30.8046 164.558 2.04843 165.15 2.01553C170.916 1.69517 176.064 6.43493 181.056 6.72859C191.399 7.33696 187.829 12.9923 192.986 21.0151C197.119 27.4439 199.639 35.6022 203.591 42.5184" stroke="#627661" stroke-width="3" stroke-linecap="round"/>
<path d="M202.265 95.5403C182.674 89.0099 163.496 85.6648 143.646 81.2538C139.774 80.3932 132.462 80.292 129.286 77.6453C127.919 76.5063 121.284 74.3315 119.345 74.3315C111.913 74.3315 105.078 71.4009 97.2521 71.6804C92.033 71.8668 86.1807 73.4724 81.051 74.4051C75.2379 75.462 82.3734 80.2894 82.9657 81.622C84.584 85.2631 87.9603 88.0938 89.888 91.5636C92.7421 96.701 97.4668 94.9346 102.26 96.2767C116.098 100.151 131.565 102.775 145.856 105.114C167.088 108.588 187.487 116.683 207.567 123.377" stroke="#627661" stroke-width="3" stroke-linecap="round"/>
</svg>
