<svg xmlns="http://www.w3.org/2000/svg" width="600" height="760" fill="none" viewBox="0 0 600 760">
  <g clip-path="url(#a)">
    <path fill="#DDDFE4" d="M178.899 298.045s-29.475 12.994-39.22 22.912c-12.492 12.717-15.773 26.699-15.773 32.714 0 6.015-6.015 9.623-6.015 15.037 0 5.413.902 8.421-.902 12.029-1.805 3.609-8.421 12.632-8.722 17.443-.3 4.812-1.503 6.617-3.007 10.226-1.504 3.608-4.812 18.345-9.323 24.36-4.511 6.014-7.519 10.225-8.721 15.638-1.203 5.413-7.82 10.225-10.827 16.541-3.008 6.315-3.008 13.533-6.316 21.352-3.308 7.82-8.42 12.03-10.225 15.94-1.804 3.909-10.526 12.931-11.729 17.142-1.203 4.21-3.308 37.893 6.917 48.118 10.225 10.225 28.27 18.045 42.405 18.947 14.134.902 52.629-2.105 88.718-4.21 2.406-21.353 5.413-29.473-7.26-284.189Z"/>
    <path fill="#CACACE" d="M182.317 369.043c-18.322 8.588-22.378-3.203-41.963 25.221-19.585 28.423-23.457 41.044-23.3 50.048.157 9.004-2.592 17.942-2.592 19.643 0 1.702-4.05 2.456-5.291 3.789-1.242 1.333-2.56.769-7.657 1.063-5.096.293-10.078 1.988-7.952 3.052 2.127 1.063 2.246 2.127 8.2 2.552 5.955.426 6.983 1.201 7.409 3.115.425 1.913-3.504 3.943-2.893 5.385.612 1.441 10.34 2.254 4.811 4.806s-10.426.653-13.829 1.717c-3.402 1.063-7.868.92-8.931 2.621-1.064 1.701 3.584 3.975 6.571 3.116 2.987-.858 18.41 2.21 12.356 4.472-6.053 2.261-.596 8.178-5.274 6.902-4.679-1.276-5.413-3.479-16.281-2.976-10.868.502-21.116 3.69-33.224 8.792-2.055 2.693-10.593 12.663-12.013 22.542-1.42 9.878 4.346 22.37 14.572 32.595 10.225 10.225 28.27 18.043 42.404 18.945 14.135.903 52.63-2.103 88.719-4.209 2.156-19.138 4.759-28.229-3.842-213.191Z"/>
    <path fill="#E5E6EB" d="M290.975 275.065c-26.163.353-53.032 6.363-60.81 8.131-7.779 1.767-31.113 8.485-51.266 14.849-20.153 6.364-29.345 12.728-33.941 19.799-4.597 7.071-6.01 15.204-7.071 23.689-1.06 8.486-2.828 29.698-.707 49.85 2.122 20.153 6.01 51.267 9.192 78.49 3.182 27.224 20.859 127.28 20.859 127.28l1.061 32.172s-3.182 6.364-6.717 16.263c-3.536 9.9-8.84 43.489-9.547 58.692-.707 15.202-1.061 136.824-1.061 136.824s30.76 15.202 47.377 20.152c16.617 4.95 43.133 5.656 43.133 5.656h21s-.976-50.037-1.226-56.037-2.309-92.102-2.309-106.951c0-14.849 2.828-44.899 3.535-54.092.707-9.192 2.121-23.335 2.475-28.638.353-5.304-.707-14.496-.707-14.496s-6.01-56.569-6.717-69.297c-.707-12.728-3.182-49.496-2.475-67.881.707-18.385 2.121-41.721 4.243-59.399 2.121-17.677 10.824-61.992 12.904-70.179 2.079-8.188 16.881-58.94 18.775-64.877Z"/>
    <path fill="#E0E2E6" d="M291.783 273.531c-26.163.354-53.032 6.363-60.81 8.131-7.779 1.768-31.113 8.486-51.266 14.85-20.153 6.364-29.345 12.727-33.941 19.799-.321.493-.518 1.029-.809 1.533 17.652-6.218 83.681-27.894 101.136-29.031 12.734-.83 30.693-1.939 41.63-1.514 1.373-4.644 3.648-12.474 4.06-13.768Z"/>
    <path fill="#E0E2E6" d="M290.975 275.065c-11.083.149-22.011 1.385-31.842 2.812-5.24 15.795-10.748 34.134-13.363 39.625-4.254 8.932-11.545 27.89-19.418 63.981-7.874 36.09-5.668 113.453-3.123 150.8 2.544 37.348 8.505 74.43 8.505 74.43s1.702 28.922 0 39.555c-1.701 10.633-6.779 56.262-9.787 127.838-2.049 48.78-10.681 76.358-15.974 88.998 16.033 3.268 35.504 3.808 35.504 3.808h21s-.977-50.037-1.227-56.037c-.25-6-2.309-92.102-2.309-106.951 0-14.849 2.828-44.899 3.536-54.092.707-9.192 2.121-23.335 2.474-28.638.354-5.304-.707-14.496-.707-14.496s-6.01-56.569-6.717-69.297c-.707-12.728-3.181-49.496-2.474-67.881.707-18.385 2.121-41.721 4.242-59.399 2.121-17.677 10.825-61.992 12.904-70.179 2.08-8.188 16.882-58.94 18.776-64.877Z"/>
    <path fill="#EFF0F7" d="M327.701 275.861c-21.716-.528-40.703-.354-57.972.797-1.894 5.938-16.45 55.096-18.529 63.283-2.08 8.188-10.783 52.503-12.904 70.18-2.122 17.678-3.535 41.014-4.243 59.399-.707 18.385 1.768 55.153 2.475 67.881.707 12.728 6.717 69.297 6.717 69.297s1.06 9.192.707 14.496c-.354 5.303-1.768 19.446-2.475 28.638-.707 9.193-3.535 39.243-3.535 54.092 0 14.849 2.059 100.951 2.309 106.951s1.226 56.037 1.226 56.037v5.659s36.417 1.767 50.559 2.121c14.142.353 77.428-8.486 91.924-10.961 14.495-2.475 72.832-17.324 72.832-17.324s-4.073-38.184-7.358-70.985c4.906-2.078 16.902-4.744 21.147-4.676 4.749.076 23.413 2.588 31.818 5.657 8.694 3.174 10.253 5.304 16.264 7.779 6.01 2.475 8.84 10.605 8.84 10.605s1.414-15.909 3.181-42.072c1.768-26.163 8.838-45.254 8.838-45.254s2.83-19.446 6.012-32.174c3.182-12.728 3.888-22.274 6.363-34.648 2.475-12.374.707-21.214 1.768-31.113 1.06-9.9 1.414-24.394 1.06-30.051-.353-5.657-4.949-10.608-4.949-10.608s-.707-13.787-1.06-24.394c-.354-10.607-6.364-20.506-6.364-20.506s-6.011-28.284-6.718-37.477c-.708-9.192-4.596-16.97-4.596-16.97s-3.889-6.364-6.01-16.971-13.082-35.355-13.082-35.355-1.414-6.365-1.414-10.608c0-4.242-7.072-13.435-7.072-13.435s-.354-6.01-2.828-11.666c-2.475-5.657-13.081-18.385-13.081-18.385s-.706-12.021-.353-18.738c.354-6.718-3.537-21.568-4.244-25.457-.707-3.89-6.01-9.899-9.899-12.374-3.889-2.474-16.263-6.365-21.92-8.486-5.656-2.121-24.75-8.13-40.66-12.019-28.286-7.224-63.602-10.03-82.774-10.165Zm112.007 218.196s9.306 15.413 11.074 22.838c1.768 7.424 1.06 47.377.707 59.398-.353 12.021-1.414 28.637 0 30.758 1.414 2.121 4.949 12.374 6.717 19.092 1.768 6.717 6.363 26.517 5.656 32.527-.707 6.011-7.424 28.992-8.484 31.113-1.061 2.122-1.768 15.203-1.061 18.385.707 3.182-4.244 32.173-5.658 40.658-.249 1.495-.76 3.964-1.236 6.297-9.947-5.127-20.94-16.602-20.844-18.517.353-7.071-3.535-37.124-3.535-48.438 0-11.313-4.596-21.565-7.071-30.051-2.474-8.485-7.072-16.97-7.072-16.97l-.707-39.598 10.607-68.59c.707-3.182 2.206-13.462 1.075-18.281-1.25-5.325 19.832-20.621 19.832-20.621Z"/>
    <path fill="#CACACE" d="M249.143 246.002s.916-8.922 48.951-8.314c48.036.607 49.211 6.854 49.211 6.854l-9.468 45.189-80.512-.804"/>
    <path fill="#8C6D4F" d="M251.226 227.298h93.12c-.059 6.319.811 12.762 1.709 18.994 0 0 .107 36.118-8.218 43.439-8.324 7.32-63.678 13.458-63.678 13.458l-3.094-.442s-9.676-5.273-13.74-13.82c-4.063-8.548-6.099-61.629-6.099-61.629Z"/>
    <path fill="#BF9B76" d="M250.534 268.096c.141-7.311.168-13.349.118-18.333-.212-21.269-1.811-23.35-1.811-23.35l3.908.074s-.048.749 2.054 11.036c2.102 10.288 8.789 26.671 11.267 36.007-12.974 1.007-15.158-5.183-15.536-5.434Z"/>
    <path fill="#E9EAF0" d="M424.495 397.278s-.75 9.625-.75 12.632c0 3.008.301 9.924.301 9.924s-4.814 7.519-11.731 17.744c-6.917 10.226-12.028 45.11-23.156 73.68-11.127 28.57-39.553 53.555-83.785 68.016-21.595 7.06-45.585 6.602-64.523 4.3a20306.53 20306.53 0 0 0 2.394 23.124s1.061 9.192.707 14.496c-.098 1.469-.462 5.401-.685 7.933 15.477.212 31.35.381 35.142.235 7.962-.308 83.107-2.453 111.178-5.856 28.07-3.402 37.859-7.969 37.859-7.969l-.353-19.798 10.607-68.59c.707-3.182 2.206-13.463 1.074-18.282-1.25-5.324.934-14.81.934-14.81s-4.686-26.105-6.49-38.586c-1.805-12.481-8.723-58.193-8.723-58.193Zm22.928 357.845c-1.209-7.435-2.041-22.413-1.945-24.328.353-7.071-3.536-37.124-3.536-48.437 0-11.314-4.595-21.566-7.07-30.051-2.475-8.485-7.072-16.971-7.072-16.971l-.34-19.053-37.873 7.223s5.103 56.992-4.254 85.063c-9.357 28.07-7.657 26.368-22.117 34.875-14.461 8.506-22.115 12.759-42.529 1.701-20.415-11.058-41.724-36.952-50.614-47.21-8.89-10.258-23.016-13.514-30.459-25.267-.873 11.236-1.672 23.21-1.672 31.256 0 14.849 2.059 100.951 2.309 106.951s1.227 56.037 1.227 56.037v5.659s36.416 1.767 50.558 2.121c14.142.353 77.428-8.486 91.924-10.961 14.496-2.475 72.832-17.324 72.832-17.324s-6.38-61.741-7.357-70.985c-.977-9.243-.803-12.863-2.012-20.299Z"/>
    <path fill="#E9EAF0" d="M238.296 410.121c-2.122 17.678-3.535 41.014-4.243 59.399-.707 18.384 1.768 55.153 2.475 67.88.707 12.728 6.717 69.297 6.717 69.297s1.06 9.193.707 14.496c-.354 5.304-1.768 19.447-2.475 28.639-.264 3.434-.921 11.247-1.519 18.623 6.921 1.761 12.368 2.931 13.386 2.549 3.187-1.195 6.374-3.785 7.17-8.963.797-5.178 4.981-66.654 4.981-66.654s20.004-12.032 23.589-21.791c3.585-9.76 2.686-14.945 2.686-14.945s8.166-4.181 7.768-12.546c-.399-8.366-6.573-23.702-6.573-23.702s6.574-3.586 4.184-11.552c-2.39-7.967-13.146-15.735-13.146-15.735s7.967-9.56 3.585-14.738c-4.381-5.178-29.042-6.038-29.042-6.038s-2.625-59.993-3.954-63.167c-1.33-3.173-5.882-3.053-9.573-3.805-3.69-.751-4.74.558-6.723 2.753Z"/>
    <path fill="#E2E3E9" d="M277.618 274.249c2.234-1.623 20.147-.53 29.504-2.736 10.023-2.363 19.953-6.601 26.14-11.551 5.638-4.649 8.798-8.081 12.792-13.67l1.25-1.75c1.421 11.903 2.371 23.823 4.636 35.224-1.61 3.934-14.942 21.775-40.305 23.423-25.873 1.68-37.477 0-37.477 0s1.225-27.317 3.46-28.94Z"/>
    <path fill="#D1D4DB" d="M271.065 302.747s-8.22-2.033-15.468-6.453c-7.248-4.419-9.503-7.481-9.503-7.481 2.206-13.051 2.632-38.6 3.048-42.811.447.978 1.393 3.432 1.51 3.761 3.637 10.202 20.807 19.735 22.035 23.527 1.227 3.793-1.622 29.457-1.622 29.457Z"/>
    <path fill="#CEC5A6" d="M427.799 635.336S411.25 642.25 391 645s-66.25 4-78.75 4.5-43.226.668-57 .5c-13.773-.168-65.986-8.631-74.067-10.757-8.081-2.127-14.408-6.858-14.408-6.858l.456-35.233s6.562 1.58 16.716 3.706c10.155 2.127 31.686 5.636 40.83 6.274 9.144.638 40.405 1.701 56.141 1.914 15.737.212 61.458-1.064 74.004-1.489 12.547-.425 38.491-2.552 47.21-4.466 8.719-1.914 24.96-7.353 24.96-7.353l.707 39.598Z"/>
    <path fill="#DCD3B2" d="M184.053 600.881v39.006c13.488 2.808 58.537 9.959 71.197 10.113 13.773.168 44.5 0 57-.5s58.5-1.75 78.75-4.5c6.804-.924 13.168-2.32 18.648-3.764l-1.455-39.687c-2.186.603-4.295 1.155-6.062 1.543-8.719 1.914-34.662 4.039-47.209 4.465-12.547.425-58.268 1.701-74.004 1.488-15.737-.213-46.996-1.276-56.141-1.914-9.116-.636-30.532-4.122-40.724-6.25Z"/>
    <path fill="#EDD14F" d="M256.47 481.165c5.733 0 10.38-4.647 10.38-10.379 0-5.733-4.647-10.38-10.38-10.38-5.732 0-10.379 4.647-10.379 10.38 0 5.732 4.647 10.379 10.379 10.379Z"/>
    <path fill="#E0BE36" d="M257.076 479.303c3.19-.425 4.19-1.79 4.668-2.348.479-.558 1.29-2.075 1.243-2.933-.047-.857-.795-1.218-1.061-.527-.266.691-2.578 3.381-4.811 3.7-2.233.319-4.051.115-4.602-.001-.551-.116-1.309-.047-.978.774.332.822 2.351 1.761 5.541 1.335Z"/>
    <path fill="#EDD14F" d="M259.126 561.252c5.732 0 10.379-4.647 10.379-10.379 0-5.733-4.647-10.38-10.379-10.38-5.733 0-10.38 4.647-10.38 10.38 0 5.732 4.647 10.379 10.38 10.379Z"/>
    <path fill="#E0BE36" d="M259.731 559.391c3.19-.426 4.19-1.791 4.669-2.349.478-.558 1.289-2.075 1.242-2.932-.046-.857-.795-1.218-1.061-.527-.266.691-2.152 3.114-4.385 3.433-2.233.319-4.756.049-5.334.106-.577.055-1.093.176-.813.852.281.676 2.493 1.842 5.682 1.417Z"/>
    <path fill="#EDD14F" d="M256.942 404.854c4.988 1.719 10.502-.752 12.316-5.52 1.813-4.767-.76-10.025-5.749-11.744-4.988-1.719-10.503.752-12.316 5.52-1.814 4.767.76 10.025 5.749 11.744Z"/>
    <path fill="#E0BE36" d="M258.058 403.487c2.91.603 4.212-.232 4.805-.553.593-.321 1.779-1.339 2.01-2.066.23-.727-.307-1.251-.757-.757-.45.495-3.178 2.058-5.222 1.654-2.044-.405-3.666-1.536-4.186-1.662-.52-.127-.874-.009-.85.378.048.777 1.29 2.403 4.2 3.006Z"/>
    <path fill="#EDD14F" d="M269.781 335.704c5.006.339 9.682-3.158 10.443-7.81.762-4.652-2.679-8.698-7.685-9.037-5.006-.338-9.682 3.159-10.443 7.811-.762 4.652 2.679 8.698 7.685 9.036Z"/>
    <path fill="#E0BE36" d="M270.558 334.229c2.842-.157 3.897-1.206 4.389-1.63.492-.425 1.402-1.608 1.475-2.307.073-.698-.456-.983-.857-.49-.404.495-2.637 2.515-4.397 2.736-1.979.249-4.049-.387-4.561-.438-.512-.05-.9.186-.801.524.197.676 1.91 1.762 4.752 1.605Z"/>
    <path fill="#EDD355" d="M259.009 651.612c10.714 0 19.399-9.962 19.399-22.251 0-12.288-8.685-22.25-19.399-22.25-10.713 0-19.399 9.962-19.399 22.25 0 12.289 8.686 22.251 19.399 22.251Z"/>
    <path fill="#E5C547" d="M259.046 644.479c6.251.039 11.356-6.591 11.401-14.81.045-8.218-4.987-14.912-11.238-14.951-6.252-.039-11.357 6.591-11.402 14.809-.045 8.218 4.987 14.912 11.239 14.952Z"/>
    <path fill="#E0BE36" d="M261.377 640.913c3.281-.964 4.203-2.939 4.652-3.755.45-.816 1.162-2.974 1.04-4.133-.123-1.158-.933-1.558-1.15-.587-.216.97-1.49 5.001-3.963 5.946-2.472.944-4.415.567-5.312.338-.896-.23-1.653.368-1.437.894.433 1.056 2.89 2.261 6.17 1.297Z"/>
    <path fill="#E2E3E9" d="M497.845 395.334c-1.888-.04-3.342.252-3.576 1.192-.752 3.007 12.78 18.496 10.525 18.195-2.256-.301 3.159 8.721 6.016 13.082 2.857 4.361 3.908 13.684 3.908 13.684-1.504 3.007-3.008-.903-2.858 1.203.151 2.105 14.286 24.359 14.286 24.359s-6.466-6.616-10.526-10.375c-4.06-3.759-7.217-2.857-10.375-2.105-3.158.751 5.263 6.467 10.676 11.88 5.413 5.414 10.526 16.992 15.939 28.571 5.414 11.578 7.67 28.42 7.069 27.367-.602-1.053-5.264-6.467-8.873-8.272-3.609-1.804-6.316-.902-12.03.452-5.714 1.353-6.767 5.715-6.466 8.572.3 2.857 4.211 2.855 9.324 3.006 5.112.15 8.42 1.654 13.232 4.662 4.812 3.007 2.707 6.615 2.256 8.871-.451 2.256-4.061-.15-5.564.301-1.504.451-.902 3.61 2.255 7.67 3.158 4.06 6.315 4.961 6.315 8.119 0 3.158 2.557 7.219 2.557 7.219s-10.826-10.827-18.645-15.038c-7.819-4.21-15.039-4.21-25.865-17.443-10.827-13.233-27.065-11.428-32.479-24.66-5.413-13.233-8.42-41.502-13.232-53.531-4.812-12.03-10.829-21.053-12.633-22.858-1.804-1.804-5.563-10.827-7.217-16.992-1.654-6.165-7.369-15.187-7.369-15.187s6.918 45.712 8.723 58.193c1.804 12.481 6.49 38.586 6.49 38.586s9.306 15.413 11.074 22.838c1.768 7.424 1.061 47.377.707 59.398-.353 12.021-1.414 28.637 0 30.758 1.414 2.121 4.949 12.374 6.717 19.092 1.768 6.717 6.363 26.517 5.656 32.527-.707 6.011-7.423 28.992-8.484 31.113-1.061 2.122-1.768 15.203-1.061 18.385.707 3.182-4.244 32.173-5.658 40.658-.249 1.495-.76 3.964-1.236 6.297-2.106 8.868-4.617 19.992-4.817 24.172 1.967-1.741 4.305-2.814 6.829-3.873 4.905-2.079 16.901-4.676 21.146-4.676 1.197 0 3.237.18 5.676.471.54-1.394 1.018-2.616 1.156-2.893.638-1.275 4.891-2.977 3.402-7.443-1.488-4.466-5.529-7.23-5.316-10.207.213-2.977 2.339-7.443 1.488-10.846-.85-3.402 2.978-8.931.426-14.248-2.552-5.316 3.402-12.758 5.104-16.586 1.701-3.827 4.677-5.104.849-9.357-3.828-4.253-2.551-4.891-2.551-8.506s8.081-1.701 11.696-5.529 4.89-11.271 8.506-19.139c3.615-7.868.639-6.805-.637-12.547-1.276-5.741-9.783-13.609-13.186-17.011-3.402-3.403-3.826-10.421-4.252-14.674-.425-4.253-.212-9.783 1.702-12.973 1.913-3.19 6.805-5.316 12.759-8.08 5.955-2.765 15.097-5.105 19.776-8.082 4.678-2.977 4.041-7.442 4.041-9.781 0-2.34-2.978-3.828-5.742-5.104-2.765-1.276-14.672-2.977-18.075-3.828-3.402-.851-14.414-2.975-14.414-6.584 0-3.609-.6-4.813 7.219-7.219 7.819-2.406 21.052 1.204 30.676 4.211 9.623 3.008 21.05 10.226 19.847 16.24-1.203 6.015-12.028 7.218-17.441 11.428-5.413 4.211-.001 9.022 4.209 12.03 4.21 3.007 10.226 18.043 7.219 24.66-3.008 6.616-4.812 11.428-3.008 16.841 1.804 5.414 9.623 10.226 10.225 16.241.601 6.014-2.405 10.826-6.014 14.435-3.609 3.609-6.016 7.819-9.024 14.436-3.007 6.616-10.826 12.632-13.232 21.053-2.406 8.42 1.203 18.645.602 24.058-.602 5.413-7.819 17.443-7.217 29.473.189 3.787-.459 7.99-1.432 11.974 5.67 2.313 7.952 4.425 13.045 6.522 6.011 2.475 8.84 10.605 8.84 10.605s1.414-15.909 3.182-42.072c1.767-26.163 8.837-45.254 8.837-45.254s2.83-19.446 6.012-32.174c3.182-12.728 3.889-22.274 6.363-34.648 2.475-12.374.707-21.214 1.768-31.113 1.061-9.9 1.414-24.394 1.061-30.051-.354-5.657-4.95-10.608-4.95-10.608s-.707-13.788-1.06-24.394c-.354-10.607-6.363-20.506-6.363-20.506s-6.012-28.284-6.719-37.477c-.707-9.192-4.596-16.97-4.596-16.97s-3.888-6.364-6.01-16.971c-2.121-10.607-13.082-35.355-13.082-35.355s-1.414-6.365-1.414-10.608c0-2.845-2.647-7.026-4.742-10.058-2.2-.502-5.437-1.14-7.945-1.194Z"/>
    <path fill="#DDDFE4" d="M472.586 327.648c-2.972.003-5.725.941-8.479 1.795-3.146.977-6.728 3.364-8.248 4.883-1.519 1.519-2.17 2.17-2.17 3.58 0 1.411 2.931 2.389 4.233.869 1.302-1.519 2.82-3.472 8.463-3.906 5.642-.434 7.163 3.471 9.767 6.944 2.605 3.472 1.519 10.634 3.907 14.757 2.387 4.124 7.492 6.53 7.492 6.53-.011-4.905-.292-8.773-.452-12.909-.346-.158-.69-.334-.843-.487-.76-.76-1.844-5.752-2.387-8.465-.543-2.713-1.207-5.72-1.967-8.432-.759-2.713-4.557-4.774-8.029-5.1a13.669 13.669 0 0 0-1.287-.059Z"/>
    <path fill="#8C6D4F" d="m233.39 514.766 46.329-9.749s-8.942-5.119-11.989-5.779c-3.046-.66-5.791-.791-8.609-1.451-2.818-.659-28.565-3.422-28.565-3.422l2.834 20.401Z"/>
    <path fill="#C9C9C9" d="M120.7 379.606c31.384 5.139 139.543 27.12 123.322 24.177 4.392.433 4.438 2.569 4.505 4.589 3.226 49.319 9.037 158.15 7.565 190.457-1.473 32.306-3.464 59.038-4.487 62.22-.947 2.946-4.097 2.14-10.533.623l-136.234-281.73 15.862-.336Z"/>
    <path fill="#BE8F4A" d="M104.838 379.942s128.926 22.798 133.318 23.23c4.392.433 4.438 2.569 4.505 4.589 2.713 46.854 8.67 163.117 7.826 187.156-.844 24.038-2.323 59.715-2.576 62.76-.252 3.046-.403 5.512-6.839 3.995-6.437-1.517-80.091-24.248-87.226-26.563-7.135-2.315-30.482-10.925-30.482-10.925s-7.879-135.956-10.453-162.873c-2.574-26.916-5.382-54.246-8.073-81.369Z"/>
    <path fill="#000" fill-opacity=".205" d="M253.961 497.037c-8.339-1.055-23.406-2.672-23.406-2.672l2.835 20.401 21.095-4.439c-.165-4.411-.348-8.837-.524-13.29Z"/>
    <path fill="#B78740" d="m249.957 560.848-129.613 12.599a26004.26 26004.26 0 0 1 2.388 39.967c7.942.197 16.987.23 20.356-.502 6.478-1.408 13.521-4.507 24.506-3.381 10.985 1.127 32.391-1.125 36.898-4.787 4.507-3.662 16.336-10.422 16.336-10.422s9.578 5.633 19.154 5.914a71.107 71.107 0 0 0 10.325-.441c.057-1.582.129-3.377.181-4.879.217-6.171-.021-18.475-.531-34.068Z"/>
    <path fill="#916B34" d="m141.645 424.037-4.082 1.472.97 27.353-7.881-1.724c.801 9.462 2.474 10.26 8.106 15.228l72.556 15.873c2.478-5.611 9.552-3.299 10.819-11.089l-65.877-14.411-.643-18.13-13.572-2.969-.396-11.603Zm19.723 10.797c-.674-.147-1.199.328-1.173 1.062l.657 18.515c.026.734.593 1.448 1.267 1.595l50.994 11.156c.673.147 1.199-.328 1.173-1.062l-.657-18.515c-.026-.734-.593-1.448-1.267-1.596l-34.006-7.439-16.988-3.716Zm1.314 2.924 14.563 3.186.563 15.858-14.563-3.186-.563-15.858Zm17.003 3.719 14.563 3.186.563 15.859-14.563-3.186-.563-15.859Zm17.003 3.72 14.563 3.186.563 15.858-14.563-3.186-.563-15.858Zm-26.665-4.231c-.309-.069-.589.047-.732.306l-1.874 3.351c-.311.555.133 1.43.799 1.576l1.143.249.214 6.032c.06 1.241 1.757 1.612 1.73.378l-.215-6.031 1.145.25c.666.146 1.054-.548.699-1.248l-2.144-4.229c-.165-.325-.456-.567-.765-.635v.001Zm17.003 3.719c-.309-.068-.589.048-.732.307l-1.875 3.35c-.31.555.134 1.431.799 1.576l1.144.251.214 6.031c.06 1.241 1.757 1.612 1.729.378l-.214-6.031 1.144.25c.666.146 1.054-.548.699-1.248l-2.143-4.229c-.165-.325-.456-.568-.765-.635Zm17.003 3.72c-.309-.069-.589.048-.732.307l-1.875 3.35c-.31.555.134 1.43.799 1.576l1.144.25.214 6.031c.06 1.241 1.757 1.612 1.729.379l-.214-6.032 1.144.25c.666.146 1.054-.548.699-1.248l-2.143-4.229c-.165-.326-.456-.567-.765-.635v.001Zm-61.732-9.293 4.273.935.165 4.653-4.273-.935-.165-4.653Zm6.368 1.393 4.273.935.165 4.653-4.272-.935-.166-4.653Z"/>
    <path fill="#E9EAF0" d="M40.344 536.354c.597-11.526 10.301-20.979 30.802-25.181 19.7-4.038 34.211.56 46.79 1.379 12.58.818 31.278.883 41.633.039 10.355-.843 20.36-3.887 29.918-3.044s23.895 4.498 27.48 14.619c3.584 10.12 11.549 24.457 9.16 33.453-2.39 8.996-4.779 20.241-9.558 25.02-4.78 4.779-11.152 10.402-20.312 12.932-9.16 2.53-20.311 6.185-25.488 4.498-5.178-1.687-15.931-1.406-15.931-1.406s-8.363.562-23.099 1.687c-14.736 1.124-35.445.843-41.818-3.655-25.74-13.95-49.106-37.237-49.577-60.341Z"/>
    <path fill="#D7DADF" d="M170.769 600.069s-12.346-2.249-19.117-.281c-6.77 1.968-10.753 1.968-21.904 2.53-11.151.562-19.913.562-28.675-.843-8.762-1.406-29.073-12.089-32.657-14.338-3.585-2.249-20.312-18.835-22.701-25.02-2.39-6.184-8.352-18.635-5.371-25.763s11.743-7.409 13.336-6.004c1.593 1.406 3.186 5.623.796 8.434-2.39 2.811-4.779 9.277-2.787 16.586 1.99 7.31 4.38 14.338 7.567 16.306 3.186 1.967 7.965 4.779 7.965 4.779s-2.39-8.715-.398-14.338c1.99-5.622 2.39-8.433 5.974-8.433s2.389 1.686 3.584 7.59c1.195 5.904 4.38 17.149 5.576 18.554 1.194 1.406-1.195-6.466 1.194-10.401 2.39-3.936 1.195-3.374 3.983-3.655 2.788-.281 4.779 2.249 4.779 2.249s3.186-15.462 6.77-21.365c3.585-5.904 5.974-6.747 4.78-.282-1.195 6.466-1.992 19.398.398 28.675 2.389 9.277 7.169 16.024 12.346 19.116 5.177 3.093 7.965 3.655 11.948 1.968 3.982-1.686-5.178-7.028.796-7.028s25.887 3.093 25.887 3.093 4.381 4.498 8.364 5.341c3.982.843 7.536.196 7.567 2.53Z"/>
    <path fill="#9D9D9D" d="M201.119 585.598c-7.785-3.968-11.911-13.316-15.363-29.866-3.453-16.55-.864-32.72 2.071-36.715 2.935-3.995 5.869-6.278 9.494-5.517 3.625.761 11.393 3.615 13.637 7.039 2.244 3.424 6.042 13.126 6.905 17.882.863 4.756 5.006 11.414 3.453 18.452-1.064 4.82-1.564 14.305-5.03 20.53-3.466 6.224-7.383 12.163-15.167 8.195Z"/>
    <path fill="#E3BC95" d="M274.656 481.472c-.383-.065-.79-.083-1.195-.135-1.317-.174-7.908.317-7.908.317s-6.645-2.47-10.803-3.085c-4.159-.615-8.369 3.436-10.841 4.345-2.472.909-11.789 3.568-16.494 5.209-4.705 1.642-4.891 2.888-6.061 5.053-1.17 2.164-10.57 9.696-14.358 12.323-3.788 2.627-3.704 6.358-5.113 8.7-1.408 2.341-9.076 8.217-10.674 9.68-1.597 1.463-4.208 3.309-5 7.229-.792 3.92.889 18.403.889 18.403 1.658 7.469 2.461 10.434 4.477 14.261 2.016 3.826 4.019 7.458 6.795 8.655 2.776 1.197 2.446.463 7.641 1.833 5.194 1.371 10.881 9.405 20.083 11.829 9.203 2.424 18.826 3.195 22.545 2.47 3.719-.724 10.072-1.52 13.236-4.239 3.164-2.719 12.462-10.446 14.757-11.594 2.294-1.148 5.812-3.39 6.12-5.469.063-.425.154-.907.221-1.431.261-2.067-.158-4.707-1.194-5.706-1.301-1.255-2.927-3.195-2.927-3.195s6.86-4.721 8.031-6.885c1.17-2.165 1.809-5.044.631-7.131-1.179-2.087-5.139-6.923-5.139-6.923s3.935-2.18 4.158-5.122c.223-2.941-4.314-11.05-4.314-11.05s3.488-2.033 3.588-4.143c.099-2.11-.857-7.137-2.366-8.423-1.51-1.286-6.807-4.608-9.989-4.472-3.182.137-10.355 1.411-12.822 2.886-2.252 1.354-4.453 2.757-6.417 3.104-1.963.347-4.419 1.153-4.954 1.18-.536.027-1.96-.396-3.408.771-1.447 1.167-2.423-.146-4.186-1.15-1.764-1.005-3.43-.509-4.212-1.687-.782-1.178.612-.546 1.402-.854.789-.308.703-1.172 1.896-2.058 1.193-.886 3.57-.427 5.18-1.252 1.609-.824 1.085-.158 2.606-1.101 1.521-.944 3.147-2.616 3.147-2.616s1.23 1.032 2.373 1.201c1.144.169 1.821.657 8.786-1.181 0 0 9.143-2.965 10.822-5.691 1.678-2.726 3.339-4.419 3.192-8.778-.111-3.269-1.053-3.884-2.201-4.078Z"/>
    <path fill="#D1AB85" d="M191.21 523.879c-1.439.645-3.591 1.211-5.759 1.658-1.561 7.163-2.119 18.577.304 30.195 1.53 7.334 3.192 13.25 5.246 17.914 4.733.058 11.433-.33 15.01.614 5.195 1.37 10.882 9.404 20.084 11.828 9.203 2.424 18.826 3.195 22.545 2.471 3.719-.725 10.07-1.52 13.235-4.239 3.164-2.719 11.738-10.989 14.033-12.136 2.294-1.148 6.536-2.849 6.843-4.928.063-.424.156-.889.221-1.43.247-2.068-.157-4.708-1.193-5.707-1.302-1.255-2.926-3.195-2.926-3.195s6.859-4.721 8.029-6.885c1.17-2.164 1.81-5.044.631-7.131-.096-.17-.235-.385-.365-.588-.694 1.026-1.359 1.952-1.863 2.51-1.797 1.988-2.621 2.466-5.719 4.111-3.098 1.645-5.801 4.7-7.113 6.459-1.312 1.759-5.339 3.568-9.532 5.502-4.192 1.934-10.352 7.032-16.025 10.85-5.673 3.818-6.757 2.005-12.48-.945-5.724-2.95-24.962-10.003-31.137-10.916-6.175-.914-7.21-.014-9.819.351-.746.105-2.187-.333-3.849-.996.199.578-4.527-25.322 1.599-35.367Zm87.155 36.984c2.714-.038 3.336 3.645 1.551 5.52-1.905 1.999-5.961 3.212-10.561 6.888-4.6 3.677-15.978 9.506-17.977 9.811-1.998.305-5.14 2.243-6.91 3.033-1.769.79-3.468.089-5.963-1.332-2.494-1.42-6.473-3.963-8.046-4.496-1.574-.533-.747-2.064 1.943-1.967 2.69.097 4.263.634 8.695 1.139 4.433.505 2.892 1.78 4.656 2.041 1.765.261 8.461-2.354 10.551-4.299 2.091-1.944 5.179-5.544 5.903-7.39.723-1.847 12.397-8.29 15.587-8.887.2-.037.39-.058.571-.061Z"/>
    <path fill="#D1AB85" d="M285.116 510.729c-.2-.025-.365.091-.483.376-1.306 3.161-3.424 4.246-5.662 6.151-2.239 1.905-9.801 4.839-15.033 7.14-5.232 2.301-10.393 2.236-13.255 3.629-2.862 1.394-6.062 7.909-10.377 10.625-4.315 2.715-3.909 3.754-2.45 5.227 1.459 1.474 9.021-1.46 13.093-2.535 4.073-1.075 6.635-5.168 8.306-7.017 1.671-1.849 8.762-4.434 12.11-5.336 3.348-.903 5.88-2.904 9.02-5.235 3.14-2.33 3.04 2.127 2.342 4.959-.699 2.832-17.443 12.094-20.603 14.562-3.161 2.467-6.675 5.441-8.737 7.093-2.061 1.652-3.651 2.954-8.801 8.481-5.151 5.528-11.185.023-17.334-1.865-9.467.696-8.439 2.245-5.43 2.69 3.009.446 5.39 1.357 9.589 2.258 4.2.9 6.702.991 8.282 1.644 1.581.653.968 1.96 2.508 2.887s5.542-1.556 9.675-3.041c4.133-1.485 6.649-4.327 8.377-5.609 1.727-1.282 2.096-4.722 3.144-7.082 1.048-2.361 5.606-6.718 12.134-10.225 3.74-2.009 6.92-2.126 8.958-1.861-1.131-1.46-2.113-2.66-2.113-2.66 2.711-2.621 3.735-4.204 3.744-7.55-1.058-3.58-3.9-8.622-3.9-8.622s3.487-2.032 3.587-4.142c.054-1.144-.204-3.144-.691-4.942Z"/>
    <path fill="#8C6D4F" d="M285.807 515.67s-7.291 4.339-9.766 5.991c-2.475 1.653-8.058 3.908-9.876 4.702-1.817.794-7.381 1.776-9.333 2.762s-3.476 2.673-5.716 4.891-4.028 2.803-7.608 5.461c-2.387 1.771-3.788 2.626-2.093 2.664 1.694.038 5.031-1.699 6.922-2.269 1.89-.57 6.856-3.977 8.188-5.798 1.332-1.822 4.661-2.073 8.192-3.676 3.53-1.602 4.872-2.041 7.062-3.204 2.191-1.164 5.6-2.679 6.821-3.029 1.22-.351 1.245-1.941 3.62-4.352.704-.364.823-.477 1.483-.936.66-.459 1.184-.925 1.432-1.25.249-.326.367-.561.493-.962.125-.401.154-.617.18-.995h-.001Zm.313 12.765c-.714.867-2.164 1.805-3.483 2.984-1.319 1.178-9.302 7.738-11.342 8.605-2.041.867-8.115 3.639-10.952 6.3-2.837 2.661-7.106 6.384-9.004 8.441-1.897 2.056-5.615 4.881-8.597 6.724-2.982 1.843-.057 2.938 2.415 2.028 2.472-.909 7.963-2.113 10.099-4.347 2.137-2.234 1.904-3.544 4.218-5.539 2.313-1.995 7.284-6.145 9.043-7.266 1.759-1.121 6.157-3.552 7.754-5.015 1.598-1.464 3.464-3.312 6.105-5.365.114-.089.234-.161.358-.22.95-.599 3.616-2.482 3.8-4.901.047-.62-.065-1.475-.414-2.429Zm1.875 15.723c-.395.76-.868 1.508-1.436 2.212-3.68 4.564-2.272 4.171-6.153 7.052-3.882 2.881-6.495 4.297-8.749 5.316-2.254 1.018-5.581 2.181-7.247 3.286-1.666 1.106-5.71 3.06-7.104 4.356-1.394 1.296-5.108 4.054-7.22 6.145-2.113 2.092-3.527 3.535-3.26 4.777.267 1.241.336 2.491 5.531-.835 5.194-3.327 8.891-8.301 11.526-9.865 2.635-1.563 9.066-5.418 10.835-6.208.834-.372 3.208-.954 5.78-1.606-.885-.964-1.646-1.864-1.646-1.864s6.861-4.721 8.031-6.886c.95-1.756 1.551-3.987 1.112-5.88Z"/>
    <path fill="#8C6D4F" d="M282.972 565.825c-1.14 1.429-2.336 2.677-3.381 3.252-3.251 1.789-6.973 3.476-10.076 6.172-3.103 2.696-10.562 6.399-12.375 7.483-1.813 1.084-6.334 1.166-9.856 3.65-3.523 2.484-6.268.727-9.862.646-2.968-.295-4.226-.021-11.328-.94 9.203 2.424 18.02 4.579 21.74 3.854 3.719-.725 11.334-1.934 14.498-4.653 3.165-2.719 12.097-11.385 14.392-12.533 2.294-1.148 5.812-3.39 6.12-5.469.075-.514.118-1.021.129-1.462h-.001Z"/>
    <path fill="#E8C3A1" d="M232.882 532.419c-.076 2.543 1.389 3.811 4.09 1.807 2.7-2.004 6.707-4.717 8.21-6.748 1.502-2.031 1.212-7.183 6.222-8.545 5.009-1.362 11.913-3.345 14.695-4.887 2.782-1.542 5.82-3.796 7.845-5.3 2.026-1.503-1.15-5.428-5.211-4.377-4.062 1.052-5.364.709-8.804 3.656-3.441 2.946-11.718 2.022-16.063 4.985-4.344 2.963-7.187-.162-10.476 1.756-3.288 1.917-1.067-.909-2.87-1.927-1.802-1.018-4.215-1.976-4.215-1.976s4.602.38 7.248.772c2.646.391 4.477-1.597-.387-2.461-5.051-.898-4.89-1.475-4.89-1.475s3.458-.014 4.241-1.251c.784-1.236-2.739-4.837-2.739-4.837s2.347 1.399 3.969.587c1.623-.811 4.029-2.859 6.392-4.613 2.363-1.754 5.521-2.789 6.555-3.688 1.034-.898 1.982-1.209 4.667-.061 2.684 1.149 5.538 2.172 6.654 1.736 1.116-.436 1.753-1.694 4.59-1.574 2.837.119 3.55.374 6-1.967 2.45-2.342 5.188-7.646 5.188-7.646s-10.396-1.839-11.365-1.381c-.969.457-4.408-3.206-8.492-2.008-4.083 1.199-4.921 4.831-5.193 6.669-.272 1.838-.383 3.098-.383 3.098s-.336-4.331-1.659-4.527c-1.324-.196-6.659 1.344-8.786 2.006-2.126.662-9.34 1.698-10.563 2.343-1.222.646-3.647 2.315-4.962 4.599-1.315 2.285-2.068 5.854-2.068 5.854s-2.894.774-3.996 2.639c-1.102 1.866-1.93 3.396-2.477 5.569-.546 2.172-1.423.991-1.475 2.861-.051 1.871-.347 4.381 1.167 6.333 1.514 1.951 5.149 2.264 10.353 4.912 5.205 2.648 9.064 6.524 8.988 9.067Z"/>
    <path fill="#EED3BA" d="M274.657 481.472s2.15 2.322-.844 6.524c-2.993 4.202-5.208 4.035-5.208 4.035s4.498-7.601 4.857-10.695l1.195.136Z"/>
    <path fill="#D5AF88" d="M352.104 179.957s-.001 8.754 2.251 13.006c2.251 4.252 4.252 6.753 6.753 6.253 2.501-.5 4.502-1.001 6.003-3.252 1.5-2.251 2.383-10.019 3.634-13.035 1.25-3.015-1.383-4.973 1.118-11.726 2.501-6.754 3.752-10.255 5.753-14.507 2.001-4.252.25-6.503-2.001-8.754-2.251-2.251-4.502-4.002-7.254-3.502-2.751.5-6.253 2.001-8.504 2.751-2.251.751-7.753 32.766-7.753 32.766Z"/>
    <path fill="#E3BC95" d="M362.555 195.26c1.193.486 3.83-.135 4.095-4.731.265-4.596 1.107-6.823 1.404-8.174.197-1.575.341-7.142-.858-7.149-.936.085-.468 4.165-1.264 5.933-.795 1.768-.668 3.513-.933 4.927-.266 1.414-2.131 5.172-2.772 6.211-.619 1.004-.865 2.497.328 2.983Z"/>
    <path fill="#D5AF88" d="M239.113 186.088s0 11.255-7.504 12.506c-7.503 1.25-10.004-1.751-12.005-4.752-2.001-3.002-6.503-20.26-7.754-28.764-1.251-8.504-1.501-12.756.25-14.507 1.751-1.751 4.502-3.001 6.753-2.501 2.251.5 12.756 3.001 15.008 2.751 2.251-.25 5.252 35.267 5.252 35.267Z"/>
    <path fill="#E3BC95" d="M217.347 180.003c1.193.221 2.121 2.21 3.005 3.977.884 1.768 3.359 8.132 5.215 8.662 2.175.466 4.708-1.797 6.01-.441 1.303 1.355-.265 2.828-2.121 3.623-1.856.796-5.568.619-6.983-1.414-1.414-2.033-4.242-7.601-4.773-9.281-.53-1.679-1.546-5.347-.353-5.126Z"/>
    <path fill="#806349" d="M214.828 165.993c-.751-3.801-1.547-6.585-.53-8.662 1.016-2.077 2.121-3.844 4.065-3.977 1.944-.133 13.894.383 15.813 1.822l2.616 18.153s-.265 4.066-1.767 4.818c-1.503.751-2.608.751-3.359-1.591-.751-2.343-1.061-4.729-2.342-4.994-1.282-.266-.398 3.535-2.431 4.64-2.033 1.105-4.154 0-4.199-1.503-.044-1.502-.918-8.242.218-9.766 1.137-1.525 1.925-1.672 2.9-2.056-.588-1.134-2.435-1.384-4.177-.813-1.803.592-2.604 2.001-3.087 3.858-.484 1.856.286 8.962-.489 10.128-1.212-.334-2.481-6.257-3.231-10.057ZM357 180.438s2.063-.438 3.563-2.063c1.5-1.625 2.437-3.187 2.312-5-.125-1.812-2.187-5.375-2.312-7.875s0-4.25 1.125-6.125 3.062-3.562 3.062-3.562.125 4.812.688 6.75c.562 1.937 1.875 3.5 2.437 5.437.563 1.938-.232 2.497-.25 4.5-.017 2.003 2.938-5.687 3.5-8 .563-2.312 2.938-6 2.375-8.5-.562-2.5-2.062-4.437-4.812-5.812-2.75-1.375-4.515-1.453-6.563-.625-2.048.827-2.812 1.5-2.812 1.5l-5.563 29.562 3.25-.187Z"/>
    <path fill="#D1AB85" d="M261.124 54.276c-15.883 4.377-29.264 24.761-31.265 43.02-2.001 18.259.75 29.014 1.25 41.019.501 12.006-2.001 9.005 1.001 27.013 3.001 18.009 6.253 31.265 6.503 38.268.25 7.004 1.751 12.756 3.502 16.508 1.75 3.752 13.256 17.008 15.757 21.51 2.501 4.502 9.254 13.507 12.756 16.508 3.502 3.001 5.753 6.753 13.506 7.504 7.754.75 8.504-1.001 13.007-.251 4.502.751 6.431 1.753 13.006.251 6.575-1.503 12.256-7.254 17.008-12.256 4.752-5.003 11.755-10.505 15.007-16.508 3.251-6.003 6.253-8.754 8.754-16.258 2.501-7.503 3.502-17.258 3.752-20.009.25-2.751-.751-5.503 0-8.754.75-3.252 4.002-13.882 4.002-17.133 0-3.252 1.189-29.577 1.189-36.08 0-6.503 2.813-46.334-.689-56.089-3.502-9.755-13.799-23.03-35.017-29.514-21.218-6.483-47.147-3.126-63.029 1.25Z"/>
    <path fill="#E3BC95" d="M242.615 140.316s-3.251 1.501-4.752 7.004c-1.501 5.502-6.753 9.754-2.751 24.261 4.001 14.507 6.121 11.849 9.987 19.424 3.648 7.149 1.793 9.133 2.544 14.885.75 5.753.768 15.836 3.269 19.588 2.501 3.752 9.34 9.297 11.341 11.548 2.001 2.251 1.751 9.255 3.252 11.506 1.5 2.251 7.374 6.088 10.126 6.589 2.751.5 10.004 1.751 13.256 2.751 3.252 1 4.252.5 5.253 0 1-.5 6.252-1 7.753-1 1.501 0 4.502 2.501 7.003 1.75 2.502-.75 7.401-2.089 8.651-3.59 1.251-1.5 3.415-10.004 4.416-12.506 1-2.501 4.001-10.209 5.899-11.475 1.899-1.266 4.796-2.193 8.547-7.445 3.752-5.253 2.502-13.507 3.502-16.508 1.001-3.001 1.751-8.504 6.253-13.256 4.502-4.753 8.254-13.006 7.504-20.26-.751-7.253-4.149-8.842-4.899-14.845-.751-6.003-2.094-14.021-2.381-18.244-.288-4.223-1.926-5.26-4.186-10.928-8.741 2.991-21.756 8.322-43.449 9.16-21.692.839-41.339-4.717-51.372-7.997-1.694 4.25-4.766 9.588-4.766 9.588Z"/>
    <path fill="#D1AB85" d="M265.326 188.004c2.484 1.597 13.14-3.57 16.632-7.37 3.491-3.801 10.059-15.785 6.954-17.499-3.105-1.714-5.639 11.841-11.67 16.941-5.503 4.654-14.401 6.331-11.916 7.928Z"/>
    <path fill="#D5AF88" d="M334.97 202.497c-.185-1.241-6.228-6.988-10.115-9.059-3.887-2.07-7.217-4.272-7.363-2.319-.146 1.953 1.235 2.308 6.37 5.366s11.293 7.252 11.108 6.012Z"/>
    <path fill="#BE936F" d="M291.976 189.339c-6.219 1.812-12.672 3.639-10.539 8.909 2.133 5.27 7.097 12.376 13.676 15.057 6.579 2.68 12.705 2.778 17.108-.303 4.402-3.082 7.195-15.256 6.316-21.279-.878-6.023-20.341-4.196-26.561-2.384Z"/>
    <path fill="#806349" d="M291.976 189.339c-6.22 1.812-12.046 3.89-9.913 9.16 2.133 5.27 9.43 9.663 14.179 10.163 4.768.502 9.565-.481 12.468-2.687 2.903-2.207 7.694-6.096 6.815-12.119-.878-6.023-17.329-6.329-23.549-4.517Z"/>
    <path fill="#D1AB85" d="M330.878 185.707c.049 2.392-7.66-.168-12.359-3.311-4.699-3.144-11.015-14.032-9.521-15.118 1.493-1.087 5.708 6.414 10.556 12.266 4.076 4.92 11.276 3.77 11.324 6.163Z"/>
    <path fill="#BC9876" d="M346.107 162.76c2.923.113 3.557.33 3.682-1.475.126-1.804-.346-10.028-2.228-12.434-1.882-2.405-7.278-4.431-9.787-4.912-2.509-.481-11.92-1.083-15.81-.722-3.889.361-13.802 3.128-16.311 2.887-2.51-.241-3.764-.12-3.764.842s1.129 2.526 2.133 5.052 1.254 8.661 2.384 10.466c1.129 1.804 1.144 2.356 4.077 3.864 2.933 1.509 11.516 3.009 18.143 2.37 6.627-.64 12.232-5.997 17.481-5.938Z"/>
    <path stroke="#474747" stroke-width="2" d="m346.77 163.158 5.792.039 7.295-16.006"/>
    <path fill="#806349" d="M320.291 155.652c-5.856 5.501-9.515 7.748-13.177 4.644-3.662-3.104-2.085-8.58-.843-10.709 1.243-2.129 3.577-4.81 7.897-5.767 4.319-.957 28.877-.424 27.103 2.06-1.774 2.484-15.125 4.271-20.98 9.772Z"/>
    <path fill="#BC9876" d="M249.388 165.844c-5.03-.798-4.679-4.947-5.299-7.426-.619-2.479-.922-5.276.96-7.594 1.882-2.319 4.208-3.554 8.156-4.372 4.265-.884 16.061-2.584 18.194-2.706 2.133-.122 12.296.61 14.178 1.465 1.882.854 5.521 2.684 7.027 2.928 1.505.244 1.129.61.376 1.586-.753.977-1.255 4.027-1.38 5.247-.126 1.22.196 4.577-1.445 10.503-10.309.563-15.203 3.987-23.318 4.229-8.114.243-12.419-3.062-17.449-3.86Z"/>
    <path stroke="#474747" stroke-width="2" d="m248.022 165.354-6.874.026-9.018-16.309"/>
    <path fill="#806349" d="M277.17 143.909c8.872 1.419 12.599 4.613 15.083 8.695 2.484 4.081-.828 5.307-4.276 8.55-3.449 3.243-9.164-1.322-11.764-3.912-2.599-2.59-10.689-3.686-18.341-3.746-7.316-.057-8.853.855-10.29-1.961-1.281-2.508 3.364-3.727 4.995-4.229 1.631-.502 14.304-3.137 17.315-3.388 3.012-.251 7.278-.009 7.278-.009Z"/>
    <path fill="#D1AB85" d="M283.318 188.586c2.635 2.259-4.266 4.643-8.783 9.034-4.517 4.392-6.775 5.145-9.159 9.913-2.384 4.768-2.761 7.026-2.761 7.026s-2.635-10.791 3.451-16.123c6.085-5.333 14.964-11.811 17.252-9.85Z"/>
    <path fill="#E3BC95" d="M305.652 153.83c.888 6.751 6.291 20.468 10.203 29.468.719 1.653 2.131 6.313 2.587 8.918.456 2.605-2.485 4.369-4.685 4.897-2.2.528-2.397-.995-5.093-.756-2.697.238-5.48 5.067-8.909 5.27-3.429.202-6.168-3.702-8.908-4.016-2.741-.314-4.115 2.392-6.651 2.51-2.535.118-7.687-5.154-4.517-12.664 3.171-7.51 11.017-25.05 11.419-33.125.401-8.075 13.455-8 14.554-.502Z"/>
    <path fill="#D5AF88" d="M314.535 181.918c-1.314.02-1.244.246-2.358 1.021-1.114.776.811 1.764 1.379 2.385.689.753 1.883 1.128 2.385 2.383.502 1.255 1.003 1.632.627 2.762-.377 1.129-1.379 2.132-3.512 2.759-2.133.628-3.142-1.076-4.327-3.323-1.386-2.627-1.454 1.342-3.769 2.319-2.643 1.115-5.019 3.632-8.091 2.573-2.591-.894-3.765-2.071-7.027-2.071s-4.517 2.134-7.152 1.381c-2.635-.753-1.003-4.768-.752-6.149.251-1.38.993-3.661 1.781-5.327.798-1.686-1.628-.427-1.844-.332-.832 1.956-1.608 3.767-2.196 5.158-3.17 7.509 1.716 11.983 4.252 11.865 2.535-.118 3.909-2.824 6.65-2.51 2.741.314 5.479 4.218 8.908 4.016 3.429-.202 6.212-5.031 8.908-5.27 2.697-.238 3.07 2.786 5.27 2.258 2.2-.528 7.9-1.974 4.157-10.109a241.751 241.751 0 0 1-2.551-5.76c-.028-.003-.057-.01-.084-.012a8.692 8.692 0 0 0-.654-.017Z"/>
    <path fill="#C7A47E" d="M278.627 192.028c-.184 5.377 3.552 9.074 5.57 8.98 2.536-.118 3.91-2.824 6.651-2.51 2.74.314 5.479 4.218 8.908 4.016 3.429-.202 6.211-5.031 8.908-5.27 2.697-.238 3.07 2.786 5.27 2.258 1.766-.424 5.614-2.53 5.125-7.555-1.451 2.33-2.366 3.453-4.899 4.041-2.532.589-4.179-2.325-7.441-2.279-3.262.046-4.22 3.454-7.602 3.879-3.382.424-5.053-2.324-8.066-2.406-3.013-.083-5.257 2.429-8.002 1.996-2.746-.434-3.398-2.676-4.422-5.15Z"/>
    <path fill="#E6C6A7" d="M299.002 185.324c2.576-.183 1.108-9.723.857-15.087-.251-5.364-.606-14.399-.104-15.654.502-1.255.125-3.262-2.008-3.388-2.133-.125-3.513 1.506-3.011 3.89.502 2.384 2.533 10.407 2.635 15.308.102 4.9-.945 15.114 1.631 14.931Z"/>
    <path fill="#D5AF88" d="M305.947 155.553c-1.714 1.2-3.468 3.37-3.312 7.519.266 7.098.444 13.042 2.484 15.438 2.041 2.395 3.105-.443 4.17-1.153.471-.314 1.987-.833 3.527-1.318-2.9-7.184-5.81-15.218-6.869-20.486Zm-15.539 3.195c-1.355 5.877-4.425 13.725-7.127 20.213 2.269-1.295 5.134.666 6.488.26 1.354-.407 2.498-2.987 3.372-5.856.873-2.869.751-7.316.444-10.382-.307-3.065-1.622-3.69-3.177-4.235Z"/>
    <path fill="#D1AB85" d="M268.645 224.739c-1.913-.848-4.397-4.185-1.261-5.704 3.136-1.518 7.846 1.293 6.835 3.359-1.011 2.066-3.661 3.194-5.574 2.345Zm59.674 1.226c2.375-1.353 4.685-5.944 1.237-6.939-3.448-.995-7.978.883-7.911 3.536.068 2.653 4.298 4.755 6.674 3.403Z"/>
    <path fill="#966B5D" d="M272.73 221.542c4.242-.397 14.758-1.878 18.13-1.966 3.371-.089 3.601 3.089 6.707 2.911 3.105-.177 4.623-1.925 8.083-1.925 3.461 0 17.839 1.6 19.525 1.422 1.686-.177.53 2.218-5.237 3.549s-9.585 1.243-14.021 1.686c-4.437.444-8.961.533-15.349-.354-6.389-.888-10.879-1.592-14.644-2.751-3.765-1.159-7.436-2.176-3.194-2.572Z"/>
    <path fill="#E4CCB4" d="M301.109 229.785c2.321-.256 5.891-.66 5.016.465s-5.813 2.875-7.375 2.75c-1.563-.125-4.438-.75-6.5-1.688-2.222-1.01-4.499-3.125-1.563-2.687 2.936.438 7.482 2.284 10.422 1.16Z"/>
    <path fill="#D1AB85" d="M300.482 235.543c4.747-.177 12.545-3.088 15.295-.515 2.751 2.573.3 7.59-2.716 9.722-3.125 2.21-7.401-.582-12.504-.717s-12.297.971-14.974-1.711c-2.677-2.683-3.022-6.928-1.431-7.933 1.686-1.065 11.584 1.332 16.33 1.154Z"/>
    <path fill="#E5DBCF" d="M259.872 153.906c-3.048 1.788-6.989 3.925-8.272 8.251 0 0 2.402.958 6.691.079 1.47-.301 2.838-.467 3.703-.457-1.557-1.273-2.496-3.447-2.497-5.779.001-.706.205-1.422.375-2.094Z"/>
    <path fill="#D9CEC4" d="M269.293 150.523c-.64.007-1.253.079-1.827.187 1.323 1.309 2.095 3.307 2.095 5.422-.001 2.407-1.001 4.639-2.637 5.891 4.42-.379 5.645-1.169 13.233-1.668-2.796-8.12-7.471-9.872-10.864-9.832Z"/>
    <path fill="#392C23" d="M269.405 150.741c-1.808.284-3.289.81-4.138 1.032-1.2.313-3.614 1.04-6.215 2.312a7.17 7.17 0 0 0 .489 5.366 6.802 6.802 0 0 0 2.196 2.492c1.989.018 3.372.366 6.918.119l.1-.008a6.77 6.77 0 0 0 2.316-2.512 7.161 7.161 0 0 0 .846-3.379 7.173 7.173 0 0 0-.661-3.013 6.854 6.854 0 0 0-1.851-2.409Z"/>
    <path fill="#0E0E0E" d="M265.362 159.677a3.481 3.481 0 1 0 .002-6.962 3.481 3.481 0 0 0-.002 6.962Z"/>
    <path fill="#fff" d="M266.483 155.816a.84.84 0 1 0 0-1.68.84.84 0 0 0 0 1.68Z"/>
    <path fill="url(#b)" d="M271.715 150.649c-3.138-.572-6.122.207-7.255.562-1.227.384-3.92 1.366-6.611 3.203-2.69 1.838-5.395 3.605-6.543 7.472l-.191.635.517.151s2.408.939 6.728.054c2.118-.433 3.212-.395 4.377-.302 1.165.093 2.408.249 4.684.059 4.535-.38 5.144-1.131 12.76-1.632l.585-.037-.222-.649c-2.393-6.953-5.69-8.943-8.829-9.516Z" opacity=".5" style="mix-blend-mode:darken"/>
    <path fill="#33271B" d="M252.506 161.465c1.177-3.101 3.376-4.554 5.756-6.18 2.593-1.77 5.235-2.738 6.414-3.107 1.273-.399 4.033-1.065 6.848-.551 2.816.514 5.631 2.249 7.912 8.316l1.108.222c-2.393-6.953-5.69-8.943-8.829-9.516-3.138-.572-6.122.207-7.255.562-1.227.384-3.92 1.366-6.611 3.203-2.69 1.837-5.395 3.605-6.543 7.472l-.191.635 1.391-1.056Z"/>
    <path fill="#E3BC95" d="M279.438 159.943c-6.55.5-7.852 1.19-12.071 1.543-2.224.186-3.385.037-4.574-.058s-2.4-.129-4.573.316c-3.742.766-5.238-.267-5.713-.279l-1.391 1.055.517.151s2.407.94 6.727.056c2.117-.434 3.213-.396 4.378-.303 1.165.093 2.408.249 4.684.059 4.535-.38 5.144-1.131 12.76-1.631l.585-.037-.222-.651-1.107-.221Z"/>
    <path fill="#E5DACF" d="M331.049 150.551c.74 1.18 1.142 2.633 1.142 4.129-.002 2.106-.798 4.089-2.15 5.357 2.373-.345 6.92-.628 9.831-.849-1.141-6.306-4.97-8.239-8.823-8.637Z"/>
    <path fill="#D9CEC3" d="M323.221 151.028c-1.199.349-2.949 1.047-4.102 2.06-1.511 1.327-4.302 4.845-4.837 7.693 1.498.823 3.667.394 5.264.262 1.966-.163 4.248-.183 5.838-.274-1.845-1.13-3.102-3.532-3.102-6.089 0-1.252.407-2.589.939-3.652Z"/>
    <path fill="#392C23" d="M329.916 150.587c-1.772-.002-3.228.168-3.949.193-1.339.046-2.257.296-3.89.678-.155.248-.955.351-1.075.615a6.728 6.728 0 0 0-.604 2.773 6.719 6.719 0 0 0 3.748 6.024c2.311-.106 4.247-.217 5.534-.455.392-.073.9-.143 1.48-.211a6.71 6.71 0 0 0 1.254-9.486 22.854 22.854 0 0 0-2.498-.131Z"/>
    <path fill="#0E0E0E" d="M327.028 158.417a3.482 3.482 0 1 0 0-6.964 3.482 3.482 0 0 0 0 6.964Z"/>
    <path fill="#fff" d="M327.912 154.891a.84.84 0 1 0 0-1.68.84.84 0 0 0 0 1.68Z"/>
    <path fill="url(#c)" d="M326.356 150.111c-2.077.089-4.945.355-7.467 2.569-.797.699-1.885 1.924-2.861 3.358-.976 1.434-1.842 3.061-2.136 4.629l-.078.406.309.162c1.676.921 3.885.44 5.449.31 4.249-.352 7.844-.342 9.852-.804 1.831-.422 6.986-.791 10.47-1.056l.475-.037-.107-.568c-.992-5.483-4.027-7.819-6.998-8.674-2.971-.856-5.958-.336-6.908-.295Z" opacity=".5" style="mix-blend-mode:darken"/>
    <path fill="#33271B" d="m340.369 159.648-.107-.568c-.992-5.483-4.027-7.819-6.998-8.674-2.971-.856-5.958-.336-6.908-.295-2.077.089-4.945.355-7.467 2.569-.797.699-1.885 1.924-2.861 3.358-.976 1.434-1.842 3.061-2.136 4.629l1.044-.325a12.79 12.79 0 0 1 1.704-3.654c.931-1.368 1.998-2.562 2.712-3.189 2.311-2.029 4.988-2.297 7.033-2.384 1.111-.048 3.91-.537 6.695.265 2.65.763 5.114 2.78 6.155 7.367l1.134.901Z"/>
    <path fill="#E3BC95" d="M339.236 158.748c-3.439.258-8.064.576-9.955 1.012-1.83.421-5.484.426-9.763.781-1.472.122-3.261.275-4.582-.199l-1.045.324-.077.406.308.162c1.676.921 3.886.441 5.449.311 4.249-.352 7.845-.342 9.853-.805 1.831-.421 6.985-.789 10.47-1.054l.476-.038-1.134-.9Z"/>
    <path fill="#54402D" d="M316.362 147.141c-3.891.777-7.961 4.383-9.095 3.636-1.133-.747.288-3.882 2.845-6.011 1.894-1.578 4.514-2.061 16.021-2.83 11.507-.769 23.14 4.367 21.366 6.851-.819 1.146-13.134-4.037-17.813-4.132-5.46-.11-9.433 1.71-13.324 2.486Zm-29.565-1.974c1.84 1.546 3.212 2.746 2.654 4.086-.558 1.341-9.635-.008-12.317-.956-2.682-.947-7.488-2.04-14.765-1.287-7.278.753-13.796 6.053-15.09 4.251-1.577-2.196 1.001-3.876 2.632-4.378 1.631-.502 8.007-3.353 17.404-3.785 9.397-.432 17.643.524 19.482 2.069Z"/>
    <path fill="#BE936F" d="M299.625 235.219c5.312.376 9.562-2.157 11.125-1.094 1.562 1.062-10.117 3.927-12.656 3.562-2.571-.369-10.164-2.526-9.075-3.301 1.089-.776 5.294.456 10.606.833Z"/>
    <path fill="#0F0F0F" d="M215.769 75.695s-.498 8.72-1.559 10.666c-1.061 1.945-.702 14.184.006 15.953.708 1.768-.547 2.108-.529 3.183.01.601-.928 1.547-.928 1.547s-.09 2.919-.09 3.626c0 .708-2.46 3.758.547 14.016s2.553 15.918 5.737 25.468c3.183 9.551 8.704 9.858 10.858 13.128 2.154 3.271 3.066 7.095 3.066 7.095s1.656-.938 1.832-3.767c.177-2.83-.998-1.552-1.175-5.266-.177-3.714-.786-4.823-.433-8.006.354-3.184 1.947-7.958 3.362-11.318 1.414-3.361 4.151-4.706 6.152-8.457 2.001-3.752.501-6.003-.75-12.256s.249-6.002 1.25-10.004c1-4.002 5.253-6.504 8.004-11.006 2.751-4.502-.876-6.247.874-9.748 1.751-3.502 7.506-3.749 7.506-3.749s2.713-2.994 3.443-4.126c1.538 3.31 2.933 3.742 2.933 3.742l4.595-3.062s-3.843 5.438.159 6.939c4.001 1.5 9.253 4.127 13.63 7.129 4.378 3.001 9.63 8.379 16.883 9.129 7.254.75 8.254-.751 12.756 2 4.502 2.751 7.504.751 11.506 3.002 4.002 2.251 10.755 6.752 13.006 10.004 2.251 3.251 7.003 6.003 9.504 10.506 2.501 4.502 6.253 3.752 7.254 7.253 1 3.502-.251 12.006 1 13.256 1.25 1.251-.214 11.463 1.939 14.694 2.501 3.751.563-14.193 3.565-16.444 3.001-2.251 5.251-1.752 6.752-9.006 1.5-7.253 3.001-21.76 3.001-24.761-1.989-12.372-.619-35.31-1.873-37.643-46.012-55.615-127.914-36.683-153.783-3.717Z"/>
    <path stroke="#525252" stroke-width="2" d="M285.281 164.695s5.375-9.43 13.006-9.43c7.63 0 11.596 7.893 11.596 7.893"/>
    <path fill="#E5E5E5" d="M294.356 156.838c1.179-.554 2.016-.867 3.947-.867.853.06 1.942-.067 2.382-.365.439-.297.202-.532-.31-.755-.513-.223-1.565-.23-2.228-.23-.664 0-1.568.119-2.857.695-1.288.575-2.252 1.106-2.516 1.698-.264.591.403.378 1.582-.176Z"/>
    <path fill="#005A64" fill-opacity=".04" d="M328.326 144.271c-2.422 0-4.82.489-7.058 1.438a18.413 18.413 0 0 0-5.983 4.094 18.919 18.919 0 0 0-3.998 6.128 19.275 19.275 0 0 0-1.404 7.227c0 2.48.477 4.936 1.404 7.228a18.925 18.925 0 0 0 3.998 6.127 18.413 18.413 0 0 0 5.983 4.094 18.073 18.073 0 0 0 7.058 1.438c2.422 0 4.82-.489 7.058-1.438a18.417 18.417 0 0 0 5.984-4.094 18.941 18.941 0 0 0 3.998-6.127 19.304 19.304 0 0 0 0-14.455 18.935 18.935 0 0 0-3.998-6.128 18.417 18.417 0 0 0-5.984-4.094 18.073 18.073 0 0 0-7.058-1.438Zm-61.674 1.542a18.402 18.402 0 0 0-7.13 1.437 18.61 18.61 0 0 0-6.044 4.093 18.894 18.894 0 0 0-4.039 6.126 19.112 19.112 0 0 0 .001 14.452 18.887 18.887 0 0 0 4.038 6.125 18.604 18.604 0 0 0 6.045 4.093 18.411 18.411 0 0 0 7.129 1.437c4.941 0 9.679-1.989 13.173-5.53a19.01 19.01 0 0 0 5.456-13.351 19.083 19.083 0 0 0-1.417-7.225 18.89 18.89 0 0 0-4.038-6.126 18.613 18.613 0 0 0-6.044-4.094 18.413 18.413 0 0 0-7.13-1.437Z"/>
    <path fill="#525252" d="M328.326 143.082c-10.844 0-19.633 9.017-19.633 20.076 0 11.059 8.789 20.077 19.633 20.076 10.845.001 19.633-9.017 19.633-20.076 0-11.059-8.788-20.076-19.633-20.076Zm-61.674 1.541c-10.942 0-19.821 9.009-19.82 20.072 0 11.063 8.879 20.071 19.82 20.071 10.941-.001 19.819-9.009 19.819-20.071.001-11.062-8.877-20.071-19.819-20.072Zm61.674.838c9.528 0 17.254 7.894 17.254 17.697 0 9.803-7.726 17.698-17.254 17.697-9.527.001-17.254-7.894-17.254-17.697 0-9.803 7.727-17.697 17.254-17.697Zm-61.674 1.541c9.638.001 17.441 7.9 17.44 17.693 0 9.793-7.803 17.691-17.44 17.692-9.637 0-17.441-7.898-17.441-17.692-.001-9.794 7.803-17.694 17.441-17.693Z"/>
    <path fill="#A6A6A6" d="M273.6 181.738c.48-.509-3.075 1.086-6.885 1.086-3.376 0-7.859-1.729-7.633-1.277.226.452 4.028 2.336 8.039 2.338 4.408-.001 5.999-1.637 6.479-2.147Zm54.82-.476c3.113 0 6.241-.924 7.487-1.553 1.245-.629 3.853-1.891 2.701-.984-1.151.907-4.496 3.378-8.706 3.379-4.21 0-5.681-.337-6.582-1.03-.902-.692 1.987.188 5.1.188Z"/>
    <path fill="url(#d)" d="M369.874 95.048c29.909-32.729 30.339-28.907 27.298-38.725-3.042-9.819-38.535-30.766-67.93-37.093-13.664-2.94-21.979-3.724-34.952-3.714-12.972.01-21.917.792-36.611 3.731-31.614 6.323-68.133 26.021-71.404 35.835-3.271 9.813-2.197 7.236 29.969 39.947 0 0 53.448.305 79.053.304 25.605 0 74.577-.285 74.577-.285Z"/>
    <path fill="#333" d="M213.091 81.218c1.132-4.225 55.876-11.605 82.71-11.605 26.833 0 73.897 8.578 75.095 14.075 1.199 5.496 1.292 19.074 1.292 19.074s-50.417 1.535-77.251 1.535c-26.833 0-83.749-1.535-83.749-1.535s.771-17.319 1.903-21.544Z"/>
    <path fill="#2E2E2E" d="M295.25 134.199c-34.426-.024-59.25-8.095-83.75-27.214 0 0 56.667 1.535 83.5 1.535s77.5-1.535 77.5-1.535c-24.893 19.805-42.824 27.238-77.25 27.214Z"/>
    <path fill="#1D1D1D" d="M318.261 76.75c-2.828 13.888-10.331 22.275-23.511 22.275s-21.975-9.541-24.218-22.274c-2.244-12.733 8.059-27.456 24.114-27.456 16.056 0 26.246 14.54 23.615 27.456Z"/>
    <path fill="#383838" d="M295.25 129.426c-34.426-.024-59.562-7.545-84.062-26.664 0 0 56.916 1.535 83.749 1.535 26.834 0 77.251-1.535 77.251-1.535-24.894 19.805-42.512 26.688-76.938 26.664Z"/>
    <path fill="#CFAC3B" d="M294.937 104.297c-26.833 0-83.749-1.535-83.749-1.535l.312 4.223s56.667 1.535 83.5 1.535 77.5-1.535 77.5-1.535l-.313-4.223s-50.416 1.535-77.25 1.535Z"/>
    <path fill="#E6B838" d="M294.45 57.038c-3.061 0-5.562 2.501-5.562 5.562 0 2.73 1.993 5.022 4.595 5.485.008.762.003 2.029-.015 3.453h-6.805l1.332 2.224h5.436c-.178 6.777-.876 12.958-3.408 12.4-3.919-.861-6.034-4.86-6.034-4.86s.911-1.163 2.663-.704c-2.231-2.5-5.348-3.013-5.348-3.013s-1.567 2.684-.66 5.974c.556-1.88 1.781-1.508 1.781-1.508s2.547 4.308 4.406 5.569c3.58 2.427 4.085.128 7.619 3.662 3.536-3.536 4.04-1.235 7.62-3.662 1.859-1.261 4.406-5.569 4.406-5.569s1.225-.372 1.781 1.508c.907-3.29-.66-5.974-.66-5.974s-3.117.513-5.348 3.013c1.752-.459 2.662.703 2.662.703s-2.115 4-6.033 4.862c-2.533.557-3.23-5.624-3.408-12.4h5.435l1.333-2.225h-6.805c-.018-1.424-.022-2.69-.016-3.453 2.603-.463 4.596-2.754 4.596-5.485 0-3.06-2.502-5.562-5.562-5.562h-.001Zm0 2.068a3.48 3.48 0 0 1 3.498 3.494 3.483 3.483 0 0 1-3.498 3.498 3.484 3.484 0 0 1-3.498-3.498 3.48 3.48 0 0 1 3.498-3.494Z"/>
  </g>
  <defs>
    <linearGradient id="b" x1="271.545" x2="265.441" y1="144.609" y2="167.894" gradientUnits="userSpaceOnUse">
      <stop stop-color="#49413B"/>
      <stop offset="1" stop-color="#49413B" stop-opacity="0"/>
    </linearGradient>
    <linearGradient id="c" x1="323.124" x2="330.881" y1="146.394" y2="162.387" gradientUnits="userSpaceOnUse">
      <stop stop-color="#49413B"/>
      <stop offset="1" stop-color="#49413B" stop-opacity="0"/>
    </linearGradient>
    <radialGradient id="d" cx="0" cy="0" r="1" gradientTransform="matrix(106.686 0 0 79.8149 295.297 95.333)" gradientUnits="userSpaceOnUse">
      <stop stop-color="#D0D4DC"/>
      <stop offset="1" stop-color="#E7E9EE"/>
    </radialGradient>
    <clipPath id="a">
      <path fill="#fff" d="M0 0h600v760H0z"/>
    </clipPath>
  </defs>
</svg>
