<svg width="60" height="60" viewBox="0 0 60 60" fill="none" xmlns="http://www.w3.org/2000/svg">
<path fill-rule="evenodd" clip-rule="evenodd" d="M48.6667 8V11.5913H53V13.3858H48.6667V15.2546C51.126 15.6818 53 17.8961 53 20.5635V22.3579H42.6V20.5635C42.6 17.8961 44.474 15.6818 46.9333 15.2546V13.3858H45.0521C44.6952 14.4311 43.732 15.1802 42.6 15.1802C41.1641 15.1802 40 13.9751 40 12.4885C40 11.002 41.1641 9.79691 42.6 9.79691C43.732 9.79691 44.6952 10.5459 45.0521 11.5913H46.9333V8H48.6667ZM42.6 24.1523V54.1028C42.6 54.5982 42.988 55 43.4667 55H52.1333C52.612 55 53 54.5982 53 54.1028V24.1523H42.6ZM42.6 11.5913C42.1214 11.5913 41.7333 11.993 41.7333 12.4885C41.7333 12.9841 42.1214 13.3858 42.6 13.3858C43.0787 13.3858 43.4667 12.9841 43.4667 12.4885C43.4667 11.993 43.0787 11.5913 42.6 11.5913Z" fill="#71AA91"/>
<path fill-rule="evenodd" clip-rule="evenodd" d="M30.6667 8V11.5913H35V13.3858H30.6667V15.2546C33.126 15.6818 35 17.8961 35 20.5635V22.3579H24.6V20.5635C24.6 17.8961 26.474 15.6818 28.9333 15.2546V13.3858H27.0521C26.6952 14.4311 25.732 15.1802 24.6 15.1802C23.1641 15.1802 22 13.9751 22 12.4885C22 11.002 23.1641 9.79691 24.6 9.79691C25.732 9.79691 26.6952 10.5459 27.0521 11.5913H28.9333V8H30.6667ZM24.6 24.1523V54.1028C24.6 54.5982 24.988 55 25.4667 55H34.1333C34.612 55 35 54.5982 35 54.1028V24.1523H24.6ZM24.6 11.5913C24.1214 11.5913 23.7333 11.993 23.7333 12.4885C23.7333 12.9841 24.1214 13.3858 24.6 13.3858C25.0787 13.3858 25.4667 12.9841 25.4667 12.4885C25.4667 11.993 25.0787 11.5913 24.6 11.5913Z" fill="#71AA91"/>
<path fill-rule="evenodd" clip-rule="evenodd" d="M12.6667 8V11.5913H17V13.3858H12.6667V15.2546C15.126 15.6818 17 17.8961 17 20.5635V22.3579H6.6V20.5635C6.6 17.8961 8.47399 15.6818 10.9333 15.2546V13.3858H9.05206C8.69517 14.4311 7.73204 15.1802 6.6 15.1802C5.16406 15.1802 4 13.9751 4 12.4885C4 11.002 5.16406 9.79691 6.6 9.79691C7.73204 9.79691 8.69517 10.5459 9.05206 11.5913H10.9333V8H12.6667ZM6.6 24.1523V54.1028C6.6 54.5982 6.98801 55 7.46667 55H16.1333C16.612 55 17 54.5982 17 54.1028V24.1523H6.6ZM6.6 11.5913C6.12136 11.5913 5.73333 11.993 5.73333 12.4885C5.73333 12.9841 6.12136 13.3858 6.6 13.3858C7.07866 13.3858 7.46667 12.9841 7.46667 12.4885C7.46667 11.993 7.07866 11.5913 6.6 11.5913Z" fill="#71AA91"/>
</svg>
