<svg width="190" height="75" viewBox="0 0 190 75" fill="none" xmlns="http://www.w3.org/2000/svg">
<g clip-path="url(#clip0_2370_17659)" filter="url(#filter0_d_2370_17659)">
<path d="M84.9292 17.7183L88.4058 22.7233L89.7185 22.9626L89.4815 24.272L92.9786 29.3065L97.4244 26.2005L98.6565 25.3396L99.5151 26.5757L100.724 28.3162L101.583 29.5524L100.346 30.4065L86.7822 39.7713C86.7316 39.8062 86.7162 39.8297 86.7104 39.8393C86.704 39.8499 86.6853 39.8839 86.6742 39.9653C86.6487 40.1515 86.6715 40.5283 86.9058 41.1651L87.4746 42.7109L85.8841 43.1323L79.9598 44.7019C79.9854 44.8356 80.0246 44.9959 80.0813 45.185C80.3694 46.1469 80.9096 47.2308 81.7496 48.4401C82.5895 49.6493 83.4175 50.5351 84.2199 51.1429C84.3811 51.2649 84.5205 51.3594 84.6389 51.4311L88.1982 46.4515L89.1506 45.1191L90.3944 46.1872C90.9101 46.6301 91.2574 46.7852 91.4439 46.8275C91.568 46.8557 91.6064 46.8389 91.6708 46.7944L105.234 37.4296L106.464 36.5803L107.318 37.8095L108.527 39.55L109.391 40.7931L108.142 41.645L103.669 44.697L107.163 49.7266L108.475 49.9659L108.238 51.2753L111.718 56.2852L116.188 53.1991L117.418 52.3498L118.272 53.579L119.115 54.7921C119.12 54.7993 119.123 54.8041 119.126 54.807C119.132 54.809 119.144 54.813 119.165 54.8168C119.188 54.8211 119.203 54.8217 119.211 54.8217C119.218 54.8217 119.222 54.821 119.223 54.8208C119.224 54.8205 119.228 54.8197 119.235 54.8169C119.241 54.8141 119.254 54.8079 119.274 54.7952C119.278 54.7927 119.281 54.7905 119.283 54.7887C119.285 54.7818 119.289 54.7701 119.292 54.7525C119.293 54.7467 119.294 54.7418 119.294 54.7377C119.293 54.7354 119.291 54.7329 119.288 54.73L119.257 54.6884L119.228 54.6448L118.43 53.4399L117.617 52.2125L118.827 51.3771L123.314 48.2787L119.814 43.291L118.5 43.0515L118.737 41.7422L115.256 36.7305L110.736 39.8149L109.508 40.6528L108.659 39.4303L107.487 37.7426L106.63 36.5095L107.862 35.6544L118.056 28.5771L118.067 28.5694L118.078 28.562C118.082 28.5594 118.086 28.557 118.09 28.5544C118.14 28.524 118.216 28.4776 118.189 28.143C118.153 27.6729 117.9 26.8948 117.237 25.7462L116.546 24.5475L117.683 23.7621L122.75 20.2639L123.577 19.6927L124.42 20.2423C124.79 20.4837 125.15 20.625 125.504 20.6895C126.302 20.835 126.984 20.6848 127.643 20.2214C128.314 19.7497 128.69 19.157 128.832 18.3761C128.973 17.5958 128.827 16.9206 128.369 16.2623C127.912 15.6037 127.328 15.2277 126.542 15.0844C125.755 14.9411 125.077 15.0869 124.418 15.5418C123.764 15.9935 123.385 16.5789 123.24 17.3796C123.172 17.7586 123.17 18.1632 123.248 18.6029L123.415 19.5509L122.624 20.0972L117.557 23.5953L116.426 24.3763L115.549 23.3155C114.704 22.2931 114.061 21.7827 113.631 21.5823C113.321 21.4377 113.248 21.494 113.2 21.5304C113.196 21.5333 113.193 21.5361 113.189 21.5386L113.18 21.5453L113.17 21.5519L102.985 28.5846L101.773 29.4209L100.914 28.2235L99.6969 26.5276L98.8105 25.2925L100.055 24.4231L104.536 21.2933L101.1 16.2955L99.7435 16.0482L99.9807 14.7378L96.5254 9.7118L92.0308 12.8151L90.8266 13.6465L89.9653 12.4611L89.078 11.24L89.0477 11.1981L89.0202 11.1543C89.0177 11.1504 89.0155 11.1469 89.0134 11.1439C88.9969 11.1411 88.9876 11.141 88.9846 11.141C88.9816 11.141 88.9817 11.1413 88.9831 11.1409C88.9846 11.1406 88.9826 11.1408 88.9763 11.1436C88.9697 11.1466 88.9558 11.1535 88.9346 11.1681L88.0891 9.94351L88.9346 11.1681C88.9135 11.1827 88.9022 11.1932 88.8973 11.1981C88.8956 11.1998 88.8945 11.2011 88.8938 11.2019C88.8929 11.2042 88.8896 11.2131 88.8863 11.2312C88.8831 11.2489 88.8823 11.2605 88.882 11.2667C88.8839 11.2699 88.8868 11.2747 88.8911 11.2809L89.7704 12.5467L90.6291 13.7829L89.392 14.637L84.9292 17.7183ZM93.1921 29.6139L93.1925 29.6145L92.9474 29.7848L93.1925 29.6146C93.1924 29.6143 93.1922 29.6141 93.1921 29.6139ZM108.139 51.1328L108.14 51.1335C108.14 51.1332 108.14 51.133 108.139 51.1328L107.801 51.3677L108.139 51.1328Z" stroke="#EB564D" stroke-width="3"/>
<path d="M82.0612 54.7024C77.6369 55.1783 74.0163 50.1197 75.9061 46.1028" stroke="#EB564D" stroke-width="3" stroke-miterlimit="16" stroke-linecap="round"/>
<path d="M78.3569 60.0429C72.0589 60.7202 66.9049 53.5193 69.5951 47.8012" stroke="#EB564D" stroke-width="3" stroke-miterlimit="16" stroke-linecap="round"/>
<path d="M75.2563 64.9654C66.8179 65.873 59.9124 56.2248 63.5169 48.5634" stroke="#EB564D" stroke-width="3" stroke-miterlimit="16" stroke-linecap="round"/>
</g>
<line x1="130.42" y1="36.5" x2="189.42" y2="36.5" stroke="#EB564D" stroke-width="3" stroke-dasharray="5 5"/>
<defs>
<filter id="filter0_d_2370_17659" x="51" y="-2" width="87.4199" height="80" filterUnits="userSpaceOnUse" color-interpolation-filters="sRGB">
<feFlood flood-opacity="0" result="BackgroundImageFix"/>
<feColorMatrix in="SourceAlpha" type="matrix" values="0 0 0 0 0 0 0 0 0 0 0 0 0 0 0 0 0 0 127 0" result="hardAlpha"/>
<feOffset/>
<feGaussianBlur stdDeviation="4"/>
<feColorMatrix type="matrix" values="0 0 0 0 0.854167 0 0 0 0 0.306076 0 0 0 0 0.306076 0 0 0 0.7 0"/>
<feBlend mode="normal" in2="BackgroundImageFix" result="effect1_dropShadow_2370_17659"/>
<feBlend mode="normal" in="SourceGraphic" in2="effect1_dropShadow_2370_17659" result="shape"/>
</filter>
<clipPath id="clip0_2370_17659">
<rect width="71.4203" height="64" fill="white" transform="translate(130.42 70) rotate(-180)"/>
</clipPath>
</defs>
</svg>
