<svg width="189" height="64" viewBox="0 0 189 64" fill="none" xmlns="http://www.w3.org/2000/svg">
<g clip-path="url(#clip0_2370_17713)">
<path d="M71.1983 39.9153L77.2922 39.9028L78.2358 38.9593L79.1778 39.8989L85.3078 39.8864L85.282 34.4631L85.2748 32.96L86.7798 32.9569L88.899 32.9526L90.4042 32.9495L90.403 34.4528L90.3903 50.9351C90.3902 50.9966 90.4007 51.0226 90.4053 51.0329C90.4104 51.0442 90.4277 51.0788 90.4884 51.1343C90.627 51.2612 90.9499 51.4568 91.6069 51.6262L93.2018 52.0376L92.6437 53.5855L90.5649 59.3509C90.6894 59.4059 90.8435 59.4648 91.0314 59.5258C91.9863 59.8359 93.1851 60.0082 94.6575 60.0052C96.1298 60.0021 97.3293 59.825 98.2856 59.5107C98.4777 59.4476 98.6347 59.3867 98.761 59.3301L96.69 53.5702L96.1358 52.029L97.7218 51.6136C98.3794 51.4413 98.7045 51.2439 98.8454 51.1146C98.9392 51.0285 98.9471 50.9875 98.9472 50.9091L98.9599 34.4268L98.9611 32.932L100.458 32.9289L102.577 32.9246L104.09 32.9215L104.081 34.433L104.047 39.848L110.171 39.8354L111.114 38.8919L112.056 39.8316L118.156 39.8191L118.16 34.3875L118.162 32.8926L119.658 32.8896L121.135 32.8866C121.144 32.8865 121.15 32.8861 121.154 32.8857C121.159 32.8823 121.169 32.8743 121.184 32.8591C121.201 32.8424 121.21 32.8306 121.214 32.8243C121.219 32.8182 121.22 32.8149 121.221 32.8136C121.221 32.8123 121.222 32.809 121.224 32.802C121.225 32.7947 121.228 32.7805 121.228 32.7573C121.229 32.7527 121.228 32.7489 121.228 32.7459C121.224 32.7402 121.216 32.7309 121.204 32.7183C121.199 32.7141 121.196 32.7107 121.193 32.7079C121.19 32.708 121.187 32.7081 121.183 32.7082L121.131 32.7108L121.078 32.7098L119.634 32.6807L118.162 32.651L118.163 31.1808L118.167 25.7274L112.074 25.7693L111.13 26.7136L110.188 25.774L104.085 25.7865L104.051 31.2584L104.042 32.745L102.553 32.7481L100.498 32.7523L98.9972 32.7554L98.9945 31.256L98.9719 18.8462L98.9719 18.8327L98.9721 18.8193C98.9722 18.8147 98.9725 18.81 98.9727 18.8051C98.976 18.7468 98.981 18.6581 98.6909 18.4892C98.2835 18.2521 97.4999 18.0171 96.1782 17.909L94.7987 17.7961L94.7998 16.4138L94.8045 10.2569L94.8053 9.25162L95.7369 8.87078C96.1461 8.7035 96.4667 8.48823 96.7212 8.23377C97.2948 7.6601 97.5594 7.01336 97.5529 6.20813C97.5463 5.38832 97.2732 4.74139 96.7112 4.1809C96.1498 3.6209 95.5113 3.35727 94.7096 3.35891C93.9078 3.36055 93.2663 3.62706 92.7013 4.1921C92.1363 4.75713 91.8703 5.39813 91.8696 6.19893C91.869 6.9939 92.1351 7.63824 92.7113 8.2129C92.984 8.48488 93.3158 8.71636 93.7216 8.90263L94.5964 9.30423L94.5957 10.2658L94.5909 16.4227L94.5899 17.7972L93.2186 17.915C91.897 18.0286 91.1117 18.2668 90.702 18.5067C90.4067 18.6797 90.4113 18.7718 90.4143 18.8315C90.4146 18.8363 90.4148 18.8408 90.4148 18.8452L90.415 18.8568L90.415 18.8683L90.4055 31.2461L90.4043 32.7181L88.9307 32.7437L86.8436 32.7801L85.3237 32.8066L85.3165 31.2883L85.2908 25.823L79.226 25.8061L78.2511 26.781L77.3083 25.8405L71.2092 25.8235L71.205 31.2854L71.2038 32.7488L69.739 32.7829L68.2299 32.818L68.1782 32.8193L68.1266 32.8169C68.1219 32.8167 68.1178 32.8166 68.1142 32.8166C68.1024 32.8286 68.0971 32.8361 68.0954 32.8386C68.0937 32.8411 68.0939 32.8412 68.0945 32.8398C68.095 32.8384 68.0941 32.8401 68.0928 32.8469C68.0915 32.854 68.0893 32.8694 68.0893 32.8951L66.6011 32.894L68.0893 32.8951C68.0892 32.9209 68.0914 32.9361 68.0927 32.9429C68.0931 32.9452 68.0935 32.9469 68.0938 32.948C68.0952 32.95 68.1007 32.9578 68.1136 32.9707C68.1264 32.9835 68.1354 32.9908 68.1404 32.9944C68.1442 32.9948 68.1497 32.9951 68.1573 32.9951L69.6985 32.9919L71.2036 32.9888L71.2025 34.4921L71.1983 39.9153ZM85.682 39.8856L85.6828 39.8856L85.6834 40.1841L85.6828 39.8856C85.6826 39.8856 85.6823 39.8856 85.682 39.8856ZM111.883 39.8319L111.884 39.8319C111.883 39.8319 111.883 39.8319 111.883 39.8319L111.884 40.2438L111.883 39.8319Z" stroke="#A0B09F" stroke-width="3"/>
</g>
<defs>
<clipPath id="clip0_2370_17713">
<rect width="71.4203" height="64" fill="white" transform="translate(130.21 64) rotate(-180)"/>
</clipPath>
</defs>
</svg>
