<svg width="190" height="80" viewBox="0 0 190 80" fill="none" xmlns="http://www.w3.org/2000/svg">
<line x1="-1.31134e-07" y1="39.5" x2="59" y2="39.5" stroke="#61C35A" stroke-width="3" stroke-dasharray="5 5"/>
<g clip-path="url(#clip0_2370_17647)" filter="url(#filter0_d_2370_17647)">
<path d="M79.7997 59.527L83.0923 54.3992L82.8109 53.0949L84.1112 52.8125L87.4233 47.6544L82.8518 44.7365L81.5848 43.9278L82.398 42.6613L83.543 40.8782L84.3563 39.6116L85.619 40.4274L99.4631 49.3722C99.5147 49.4056 99.5422 49.4109 99.5533 49.4126C99.5656 49.4144 99.6041 49.4186 99.6836 49.3978C99.8654 49.35 100.205 49.1847 100.703 48.7244L101.914 47.6071L102.912 48.9152L106.63 53.7872C106.744 53.7124 106.877 53.6148 107.03 53.49C107.808 52.8556 108.603 51.9416 109.398 50.7026C110.194 49.4637 110.695 48.3597 110.949 47.3857C111 47.1901 111.034 47.0251 111.055 46.8883L105.092 45.5066L103.497 45.1369L104.007 43.5789C104.219 42.9329 104.229 42.5527 104.197 42.3642C104.175 42.2388 104.145 42.2098 104.079 42.1673L90.2353 33.2225L88.9798 32.4113L89.7885 31.1519L90.9335 29.3687L91.7513 28.0951L93.0164 28.9225L97.5483 31.8863L100.857 26.7332L100.576 25.4289L101.876 25.1466L105.172 20.0137L100.61 17.066L99.3542 16.2548L100.163 14.9953L100.961 13.7525C100.966 13.7451 100.969 13.7397 100.97 13.7363C100.97 13.7304 100.969 13.7174 100.964 13.6963C100.959 13.6733 100.954 13.6594 100.952 13.6524C100.949 13.6455 100.947 13.6425 100.946 13.6413C100.945 13.6401 100.943 13.6372 100.938 13.6322C100.933 13.6269 100.922 13.6172 100.903 13.6042C100.899 13.6016 100.896 13.5996 100.893 13.598C100.886 13.5986 100.874 13.6001 100.857 13.6039C100.851 13.6052 100.846 13.6064 100.842 13.6075C100.84 13.6098 100.839 13.6126 100.837 13.6157L100.811 13.661L100.782 13.7045L99.9739 14.9029L99.1512 16.1237L97.9163 15.3258L93.3359 12.3663L90.0683 17.5094L90.35 18.8148L89.0497 19.0972L85.7526 24.2319L90.3325 27.2266L91.5768 28.0402L90.7725 29.2928L89.6621 31.0219L88.851 32.2852L87.5895 31.4748L77.1487 24.7671L77.1373 24.7598L77.1261 24.7523C77.1224 24.7498 77.1185 24.747 77.1145 24.7441C77.0674 24.7098 76.9956 24.6575 76.6964 24.8098C76.2762 25.0236 75.654 25.5547 74.8467 26.6068L74.0042 27.7049L72.8431 26.9547L67.6718 23.6135L66.8274 23.0679L67.0123 22.0786C67.0935 21.644 67.0864 21.2579 67.0105 20.9062C66.8394 20.1131 66.4393 19.5402 65.7591 19.1092C65.0666 18.6704 64.3749 18.5493 63.5993 18.7177C62.8243 18.8859 62.2567 19.2796 61.8236 19.9542C61.3903 20.6289 61.2666 21.3124 61.4351 22.0935C61.6037 22.8746 61.9981 23.4456 62.6708 23.8802C63.3385 24.3116 64.0242 24.4372 64.8194 24.2646C65.1958 24.1829 65.5702 24.0295 65.9467 23.7894L66.7583 23.2719L67.566 23.7938L72.7373 27.135L73.8919 27.881L73.2476 29.0972C72.6266 30.2694 72.4012 31.0583 72.3807 31.5327C72.366 31.8746 72.446 31.9207 72.4977 31.9505C72.5019 31.9529 72.5058 31.9552 72.5096 31.9575L72.5193 31.9636L72.529 31.9699L82.9256 38.6872L84.1619 39.486L83.3847 40.7383L82.284 42.5119L81.4824 43.8035L80.2026 42.9866L75.5959 40.0457L72.2944 45.1332L72.5852 46.4808L71.2837 46.7634L67.9635 51.8796L72.5512 54.8437L73.7803 55.6378L73.015 56.8873L72.2265 58.1745L72.1995 58.2186L72.1695 58.2608C72.1668 58.2646 72.1645 58.268 72.1625 58.271C72.1663 58.2874 72.1697 58.2959 72.1709 58.2987C72.1721 58.3015 72.1722 58.3014 72.1714 58.3001C72.1705 58.2989 72.1714 58.3006 72.1765 58.3054C72.1817 58.3103 72.1934 58.3205 72.2151 58.3345L71.4075 59.5845L72.2151 58.3345C72.2367 58.3485 72.2507 58.3549 72.2571 58.3575C72.2593 58.3584 72.2609 58.359 72.2619 58.3593C72.2644 58.3593 72.2739 58.3589 72.2918 58.355C72.3094 58.3512 72.3204 58.3475 72.3262 58.3454C72.3285 58.3424 72.3318 58.3379 72.3359 58.3315L73.1686 57.0347L73.9819 55.7681L75.2446 56.5839L79.7997 59.527ZM87.6255 47.3395L87.6259 47.3388L87.8771 47.5001L87.6259 47.3388C87.6258 47.3391 87.6257 47.3393 87.6255 47.3395ZM101.782 25.2925L101.783 25.2918C101.783 25.2921 101.782 25.2923 101.782 25.2925L102.129 25.515L101.782 25.2925Z" stroke="#61C35A" stroke-width="3"/>
<path d="M115.064 48.0184C117.198 51.9234 113.911 57.2049 109.476 56.9968" stroke="#61C35A" stroke-width="3" stroke-miterlimit="16" stroke-linecap="round"/>
<path d="M121.417 49.3956C124.454 54.9544 119.775 62.4726 113.462 62.1765" stroke="#61C35A" stroke-width="3" stroke-miterlimit="16" stroke-linecap="round"/>
<path d="M127.151 50.3748C131.22 57.8227 124.951 67.896 116.493 67.4992" stroke="#61C35A" stroke-width="3" stroke-miterlimit="16" stroke-linecap="round"/>
</g>
<defs>
<filter id="filter0_d_2370_17647" x="49" y="-1" width="91.4199" height="84" filterUnits="userSpaceOnUse" color-interpolation-filters="sRGB">
<feFlood flood-opacity="0" result="BackgroundImageFix"/>
<feColorMatrix in="SourceAlpha" type="matrix" values="0 0 0 0 0 0 0 0 0 0 0 0 0 0 0 0 0 0 127 0" result="hardAlpha"/>
<feOffset/>
<feGaussianBlur stdDeviation="5"/>
<feColorMatrix type="matrix" values="0 0 0 0 0.307287 0 0 0 0 0.641667 0 0 0 0 0.283403 0 0 0 0.5 0"/>
<feBlend mode="normal" in2="BackgroundImageFix" result="effect1_dropShadow_2370_17647"/>
<feBlend mode="normal" in="SourceGraphic" in2="effect1_dropShadow_2370_17647" result="shape"/>
</filter>
<clipPath id="clip0_2370_17647">
<rect width="71.4203" height="64" fill="white" transform="translate(130.42 73) rotate(-180)"/>
</clipPath>
</defs>
</svg>
