<svg width="470" height="98" viewBox="0 0 470 98" fill="none" xmlns="http://www.w3.org/2000/svg">
<g filter="url(#filter0_d)">
<path d="M52.8571 9L10 49L52.8571 89H417.143L460 49L417.143 9H52.8571Z" stroke="#24F2FF" stroke-width="2"/>
</g>
<path d="M188.176 61.272C185.773 61.272 183.609 60.7507 181.682 59.708C179.755 58.6427 178.237 57.1807 177.126 55.322C176.038 53.4633 175.494 51.3893 175.494 49.1C175.494 46.8107 176.038 44.7367 177.126 42.878C178.237 41.0193 179.755 39.5687 181.682 38.526C183.609 37.4607 185.773 36.928 188.176 36.928C190.556 36.928 192.709 37.4607 194.636 38.526C196.563 39.5687 198.07 41.0193 199.158 42.878C200.246 44.714 200.79 46.788 200.79 49.1C200.79 51.412 200.246 53.4973 199.158 55.356C198.07 57.192 196.563 58.6427 194.636 59.708C192.709 60.7507 190.556 61.272 188.176 61.272ZM188.176 58.246C189.921 58.246 191.485 57.8493 192.868 57.056C194.273 56.2627 195.373 55.1747 196.166 53.792C196.982 52.3867 197.39 50.8227 197.39 49.1C197.39 47.3773 196.982 45.8247 196.166 44.442C195.373 43.0367 194.273 41.9373 192.868 41.144C191.485 40.3507 189.921 39.954 188.176 39.954C186.431 39.954 184.844 40.3507 183.416 41.144C182.011 41.9373 180.9 43.0367 180.084 44.442C179.291 45.8247 178.894 47.3773 178.894 49.1C178.894 50.8227 179.291 52.3867 180.084 53.792C180.9 55.1747 182.011 56.2627 183.416 57.056C184.844 57.8493 186.431 58.246 188.176 58.246ZM239.285 37.2V61H235.885V50.392H222.217V61H218.817V37.2H222.217V47.434H235.885V37.2H239.285ZM263.878 55.05H251.23L248.612 61H245.11L255.888 37.2H259.254L270.066 61H266.496L263.878 55.05ZM262.688 52.33L257.554 40.668L252.42 52.33H262.688ZM286.184 61.272C283.804 61.272 281.65 60.7507 279.724 59.708C277.82 58.6427 276.324 57.192 275.236 55.356C274.148 53.4973 273.604 51.412 273.604 49.1C273.604 46.788 274.148 44.714 275.236 42.878C276.324 41.0193 277.831 39.5687 279.758 38.526C281.684 37.4607 283.838 36.928 286.218 36.928C288.076 36.928 289.776 37.2453 291.318 37.88C292.859 38.492 294.174 39.41 295.262 40.634L293.052 42.776C291.261 40.8947 289.028 39.954 286.354 39.954C284.586 39.954 282.988 40.3507 281.56 41.144C280.132 41.9373 279.01 43.0367 278.194 44.442C277.4 45.8247 277.004 47.3773 277.004 49.1C277.004 50.8227 277.4 52.3867 278.194 53.792C279.01 55.1747 280.132 56.2627 281.56 57.056C282.988 57.8493 284.586 58.246 286.354 58.246C289.006 58.246 291.238 57.294 293.052 55.39L295.262 57.532C294.174 58.756 292.848 59.6853 291.284 60.32C289.742 60.9547 288.042 61.272 286.184 61.272Z" fill="#24F2FF"/>
<defs>
<filter id="filter0_d" x="0.534393" y="0" width="468.931" height="98" filterUnits="userSpaceOnUse" color-interpolation-filters="sRGB">
<feFlood flood-opacity="0" result="BackgroundImageFix"/>
<feColorMatrix in="SourceAlpha" type="matrix" values="0 0 0 0 0 0 0 0 0 0 0 0 0 0 0 0 0 0 127 0"/>
<feOffset/>
<feGaussianBlur stdDeviation="4"/>
<feColorMatrix type="matrix" values="0 0 0 0 0.141667 0 0 0 0 0.9485 0 0 0 0 1 0 0 0 1 0"/>
<feBlend mode="normal" in2="BackgroundImageFix" result="effect1_dropShadow"/>
<feBlend mode="normal" in="SourceGraphic" in2="effect1_dropShadow" result="shape"/>
</filter>
</defs>
</svg>
