<svg width="1920" height="1080" viewBox="0 0 1920 1080" fill="none" xmlns="http://www.w3.org/2000/svg">
<g clip-path="url(#clip0)">
<path d="M419 174.59C473.667 143.028 535.028 124.852 598.066 121.549C661.103 118.245 724.028 129.907 781.695 155.582L619 521L419 174.59Z" fill="url(#paint0_linear)"/>
<path opacity="0.8" d="M436.452 333.425C537.055 232.908 700.045 232.808 800.548 333.425C901.151 434.043 901.151 597.057 800.548 697.575C700.045 798.092 536.955 798.192 436.452 697.575C335.849 597.057 335.849 433.943 436.452 333.425Z" fill="url(#paint1_radial)"/>
<circle cx="619" cy="516" r="25" fill="#2DA000"/>
<circle cx="618.5" cy="515.5" r="32" stroke="#2DA000"/>
<g filter="url(#filter0_d)">
<circle cx="619" cy="516" r="83.5" stroke="#2DA000" stroke-width="3"/>
</g>
<line x1="619" y1="822.001" x2="619" y2="216" stroke="#2DA000" stroke-width="2"/>
<line x1="316" y1="517" x2="921" y2="517" stroke="#2DA000" stroke-width="2"/>
<path d="M281.709 179.294L728.709 627.294" stroke="#2DA000" stroke-width="2"/>
<path d="M441.849 232.472L619 517" stroke="#2DA000" stroke-width="2"/>
<path d="M770.947 67.321L530.947 778.321" stroke="#2DA000" stroke-width="2"/>
<path d="M293.247 435.031L619 517" stroke="#2DA000" stroke-width="2"/>
<path d="M686.711 448.703L339.711 800.703" stroke="#2DA000" stroke-width="2"/>
<line x1="742.293" y1="391.293" x2="882.293" y2="251.293" stroke="#2DA000" stroke-width="2"/>
<line x1="761.699" y1="659.285" x2="932.699" y2="826.285" stroke="#2DA000" stroke-width="2"/>
<path d="M617.092 397C616.59 397 616.189 397 615.687 397L615.888 403.224C616.289 403.224 616.791 403.224 617.192 403.224L617.092 397Z" fill="#4DBD00"/>
<path d="M625.621 397.1L625.32 403.324C625.721 403.324 626.223 403.324 626.624 403.424L627.025 397.301C626.524 397.1 626.022 397.1 625.621 397.1Z" fill="#4DBD00"/>
<path d="M607.159 397.602C606.657 397.602 606.256 397.702 605.754 397.803L606.456 403.926C606.858 403.825 607.359 403.825 607.761 403.825L607.159 397.602Z" fill="#4DBD00"/>
<path d="M635.454 398.004L634.651 404.127C635.053 404.228 635.554 404.228 635.956 404.328L636.859 398.205C636.458 398.104 635.956 398.104 635.454 398.004Z" fill="#4DBD00"/>
<path d="M597.426 399.008C596.924 399.108 596.523 399.209 596.021 399.309L597.225 405.332C597.626 405.232 598.128 405.131 598.529 405.031L597.426 399.008Z" fill="#4DBD00"/>
<path d="M645.287 399.71L643.983 405.733C644.384 405.833 644.886 405.934 645.287 406.034L646.692 400.011C646.19 399.911 645.689 399.811 645.287 399.71Z" fill="#4DBD00"/>
<path d="M587.692 401.216C587.191 401.316 586.789 401.517 586.288 401.618L587.993 407.54C588.395 407.44 588.896 407.339 589.298 407.139L587.692 401.216Z" fill="#4DBD00"/>
<path d="M654.819 402.32L653.013 408.243C653.415 408.343 653.916 408.544 654.318 408.644L656.224 402.722C655.722 402.621 655.321 402.42 654.819 402.32Z" fill="#4DBD00"/>
<path d="M578.261 404.328C577.859 404.529 577.358 404.629 576.956 404.83L579.164 410.652C579.565 410.451 579.967 410.351 580.468 410.15L578.261 404.328Z" fill="#4DBD00"/>
<path d="M664.151 405.633L661.843 411.355C662.244 411.555 662.646 411.656 663.047 411.856L665.455 406.135C665.054 406.034 664.652 405.834 664.151 405.633Z" fill="#4DBD00"/>
<path d="M569.13 408.142C568.729 408.343 568.227 408.544 567.826 408.745L570.535 414.266C570.936 414.065 571.337 413.864 571.739 413.663L569.13 408.142Z" fill="#4DBD00"/>
<path d="M673.181 409.748L670.372 415.269C670.773 415.47 671.175 415.671 671.576 415.872L674.486 410.351C673.984 410.15 673.583 409.949 673.181 409.748Z" fill="#4DBD00"/>
<path d="M560.3 412.76C559.899 412.961 559.497 413.262 559.096 413.463L562.207 418.783C562.608 418.582 563.009 418.281 563.411 418.08L560.3 412.76Z" fill="#4DBD00"/>
<path d="M681.811 414.667L678.6 419.887C679.001 420.087 679.402 420.389 679.703 420.589L683.015 415.37C682.613 415.169 682.212 414.868 681.811 414.667Z" fill="#4DBD00"/>
<path d="M551.972 418.08C551.571 418.381 551.169 418.582 550.768 418.883L554.38 423.902C554.782 423.601 555.083 423.4 555.484 423.099L551.972 418.08Z" fill="#4DBD00"/>
<path d="M690.038 420.188L686.325 425.207C686.727 425.508 687.028 425.709 687.429 426.01L691.142 421.091C690.74 420.79 690.439 420.489 690.038 420.188Z" fill="#4DBD00"/>
<path d="M544.045 424.103C543.644 424.404 543.343 424.705 542.942 425.006L546.955 429.724C547.256 429.423 547.657 429.122 547.958 428.821L544.045 424.103Z" fill="#4DBD00"/>
<path d="M697.764 426.412L693.65 431.029C693.951 431.33 694.353 431.631 694.654 431.933L698.768 427.315C698.467 427.114 698.065 426.713 697.764 426.412Z" fill="#4DBD00"/>
<path d="M536.62 430.728C536.319 431.029 535.918 431.431 535.617 431.732L540.032 436.148C540.333 435.847 540.634 435.546 541.035 435.245L536.62 430.728Z" fill="#4DBD00"/>
<path d="M704.888 433.338L700.473 437.654C700.774 437.956 701.075 438.257 701.376 438.658L705.892 434.442C705.591 433.94 705.189 433.639 704.888 433.338Z" fill="#4DBD00"/>
<path d="M529.897 437.955C529.596 438.357 529.295 438.658 528.994 439.059L533.71 443.075C534.011 442.774 534.312 442.372 534.613 442.071L529.897 437.955Z" fill="#4DBD00"/>
<path d="M711.51 440.766L706.694 444.681C706.995 444.982 707.296 445.383 707.497 445.685L712.313 441.87C712.112 441.469 711.811 441.067 711.51 440.766Z" fill="#4DBD00"/>
<path d="M523.676 445.786C523.375 446.187 523.074 446.589 522.874 446.89L527.891 450.503C528.192 450.102 528.392 449.801 528.693 449.399L523.676 445.786Z" fill="#4DBD00"/>
<path d="M717.431 448.696L712.314 452.21C712.615 452.611 712.815 452.912 713.016 453.314L718.133 449.901C717.933 449.499 717.732 449.098 717.431 448.696Z" fill="#4DBD00"/>
<path d="M518.158 454.017C517.957 454.418 517.656 454.82 517.456 455.221L522.774 458.333C522.974 457.931 523.275 457.53 523.476 457.229L518.158 454.017Z" fill="#4DBD00"/>
<path d="M722.648 457.128L717.23 460.14C717.431 460.541 717.631 460.943 717.932 461.344L723.351 458.333C723.15 457.931 722.949 457.53 722.648 457.128Z" fill="#4DBD00"/>
<path d="M513.442 462.649C513.242 463.05 513.041 463.452 512.84 463.954L518.359 466.664C518.56 466.263 518.76 465.861 518.961 465.459L513.442 462.649Z" fill="#4DBD00"/>
<path d="M727.163 465.962L721.544 468.572C721.745 468.973 721.945 469.375 722.146 469.776L727.765 467.267C727.564 466.865 727.364 466.363 727.163 465.962Z" fill="#4DBD00"/>
<path d="M509.328 471.683C509.127 472.085 509.027 472.587 508.826 472.988L514.646 475.197C514.846 474.795 514.947 474.394 515.147 473.992L509.328 471.683Z" fill="#4DBD00"/>
<path d="M730.976 475.197L725.157 477.305C725.357 477.706 725.458 478.108 725.658 478.61L731.478 476.602C731.277 476 731.177 475.598 730.976 475.197Z" fill="#4DBD00"/>
<path d="M506.117 481.119C506.017 481.621 505.816 482.023 505.716 482.524L511.636 484.231C511.736 483.829 511.937 483.328 512.037 482.926L506.117 481.119Z" fill="#4DBD00"/>
<path d="M733.986 484.633L728.066 486.239C728.167 486.641 728.267 487.142 728.367 487.544L734.388 486.038C734.187 485.536 734.087 485.034 733.986 484.633Z" fill="#4DBD00"/>
<path d="M503.609 490.756C503.508 491.258 503.408 491.659 503.308 492.161L509.328 493.366C509.428 492.964 509.529 492.462 509.629 492.061L503.609 490.756Z" fill="#4DBD00"/>
<path d="M736.093 494.27L729.973 495.374C730.073 495.775 730.173 496.277 730.173 496.679L736.294 495.675C736.294 495.273 736.194 494.771 736.093 494.27Z" fill="#4DBD00"/>
<path d="M502.003 500.493C501.903 500.995 501.903 501.396 501.803 501.898L507.923 502.601C508.024 502.2 508.024 501.698 508.124 501.296L502.003 500.493Z" fill="#4DBD00"/>
<path d="M737.498 504.106L731.378 504.709C731.378 505.11 731.478 505.612 731.478 506.014L737.599 505.512C737.599 505.11 737.498 504.608 737.498 504.106Z" fill="#4DBD00"/>
<path d="M501.101 510.33C501.101 510.832 501.101 511.234 501 511.736L507.221 511.937C507.221 511.535 507.221 511.033 507.221 510.632L501.101 510.33Z" fill="#4DBD00"/>
<path d="M738 514.044L731.779 514.145C731.779 514.546 731.779 515.048 731.779 515.45V515.751H738V515.55C738 515.048 738 514.546 738 514.044Z" fill="#4DBD00"/>
<path d="M507.322 520.067L501.101 520.268C501.101 520.77 501.101 521.171 501.201 521.673L507.422 521.372C507.322 520.971 507.322 520.469 507.322 520.067Z" fill="#4DBD00"/>
<path d="M731.478 523.782C731.478 524.183 731.378 524.685 731.378 525.086L737.498 525.588C737.498 525.086 737.599 524.685 737.599 524.183L731.478 523.782Z" fill="#4DBD00"/>
<path d="M508.024 529.403L501.903 530.206C502.004 530.708 502.004 531.109 502.104 531.611L508.225 530.808C508.225 530.306 508.124 529.905 508.024 529.403Z" fill="#4DBD00"/>
<path d="M730.475 533.117C730.374 533.518 730.374 534.02 730.274 534.421L736.395 535.425C736.495 534.923 736.595 534.522 736.595 534.02L730.475 533.117Z" fill="#4DBD00"/>
<path d="M509.629 538.738L503.609 540.043C503.709 540.545 503.81 540.946 503.91 541.448L509.93 540.143C509.83 539.541 509.729 539.139 509.629 538.738Z" fill="#4DBD00"/>
<path d="M728.568 542.352C728.468 542.753 728.367 543.255 728.267 543.657L734.287 545.163C734.388 544.661 734.488 544.259 734.588 543.757L728.568 542.352Z" fill="#4DBD00"/>
<path d="M511.937 547.772L506.017 549.579C506.117 550.081 506.318 550.482 506.418 550.984L512.338 549.178C512.238 548.676 512.037 548.274 511.937 547.772Z" fill="#4DBD00"/>
<path d="M725.959 551.386C725.859 551.788 725.658 552.189 725.558 552.691L731.378 554.699C731.578 554.297 731.679 553.795 731.879 553.394L725.959 551.386Z" fill="#4DBD00"/>
<path d="M515.047 556.707L509.328 559.015C509.529 559.417 509.629 559.919 509.83 560.32L515.549 558.012C515.348 557.51 515.147 557.108 515.047 556.707Z" fill="#4DBD00"/>
<path d="M722.548 560.119C722.347 560.521 722.146 560.922 722.046 561.324L727.665 563.833C727.866 563.432 728.066 562.93 728.267 562.529L722.548 560.119Z" fill="#4DBD00"/>
<path d="M518.86 565.339L513.342 568.05C513.542 568.451 513.743 568.853 513.944 569.354L519.462 566.544C519.262 566.142 519.061 565.741 518.86 565.339Z" fill="#4DBD00"/>
<path d="M718.535 568.552C718.334 568.953 718.133 569.355 717.933 569.756L723.351 572.768C723.552 572.366 723.853 571.965 724.053 571.563L718.535 568.552Z" fill="#4DBD00"/>
<path d="M523.376 573.571L518.058 576.783C518.258 577.184 518.559 577.586 518.76 577.987L523.978 574.675C523.877 574.374 523.576 573.972 523.376 573.571Z" fill="#4DBD00"/>
<path d="M713.718 576.682C713.517 577.084 713.216 577.385 713.016 577.786L718.133 581.199C718.434 580.798 718.635 580.396 718.936 579.995L713.718 576.682Z" fill="#4DBD00"/>
<path d="M528.593 581.4L523.576 585.014C523.877 585.415 524.178 585.817 524.379 586.118L529.295 582.404C529.095 582.103 528.894 581.802 528.593 581.4Z" fill="#4DBD00"/>
<path d="M708.3 584.311C707.999 584.713 707.798 585.014 707.497 585.415L712.313 589.23C712.614 588.828 712.915 588.527 713.216 588.126L708.3 584.311Z" fill="#4DBD00"/>
<path d="M534.413 588.829L529.697 592.844C529.998 593.246 530.299 593.547 530.6 593.948L535.316 589.833C535.015 589.431 534.714 589.13 534.413 588.829Z" fill="#4DBD00"/>
<path d="M702.179 591.538C701.878 591.84 701.577 592.241 701.276 592.542L705.791 596.758C706.092 596.457 706.393 596.056 706.794 595.754L702.179 591.538Z" fill="#4DBD00"/>
<path d="M540.835 595.655L536.52 600.071C536.821 600.373 537.222 600.774 537.523 601.075L541.838 596.658C541.537 596.257 541.136 595.956 540.835 595.655Z" fill="#4DBD00"/>
<path d="M695.557 598.164C695.256 598.465 694.854 598.766 694.553 599.067L698.667 603.685C699.068 603.383 699.369 603.082 699.67 602.681L695.557 598.164Z" fill="#4DBD00"/>
<path d="M547.858 601.979L543.945 606.697C544.346 606.998 544.647 607.299 545.049 607.6L548.962 602.782C548.561 602.581 548.159 602.28 547.858 601.979Z" fill="#4DBD00"/>
<path d="M688.332 604.287C687.931 604.588 687.63 604.789 687.229 605.09L690.941 610.009C691.343 609.708 691.644 609.407 692.045 609.105L688.332 604.287Z" fill="#4DBD00"/>
<path d="M555.283 607.701L551.771 612.82C552.173 613.121 552.574 613.322 552.975 613.623L556.487 608.504C556.086 608.202 555.685 607.901 555.283 607.701Z" fill="#4DBD00"/>
<path d="M680.707 609.708C680.306 609.909 679.904 610.21 679.603 610.411L682.814 615.63C683.215 615.329 683.617 615.128 684.018 614.827L680.707 609.708Z" fill="#4DBD00"/>
<path d="M563.21 612.719L560.099 618.039C560.501 618.24 560.902 618.541 561.303 618.742L564.313 613.321C564.012 613.12 563.611 612.92 563.21 612.719Z" fill="#4DBD00"/>
<path d="M672.579 614.526C672.178 614.727 671.777 614.928 671.375 615.128L674.285 620.649C674.687 620.449 675.088 620.248 675.489 619.947L672.579 614.526Z" fill="#4DBD00"/>
<path d="M571.538 617.136L568.929 622.757C569.33 622.958 569.732 623.159 570.233 623.359L572.842 617.738C572.341 617.437 571.939 617.236 571.538 617.136Z" fill="#4DBD00"/>
<path d="M664.151 618.642C663.749 618.842 663.348 619.043 662.947 619.144L665.355 624.865C665.756 624.664 666.258 624.464 666.659 624.263L664.151 618.642Z" fill="#4DBD00"/>
<path d="M580.167 620.75L577.96 626.572C578.361 626.773 578.863 626.873 579.264 627.074L581.371 621.252C581.07 621.051 580.669 620.95 580.167 620.75Z" fill="#4DBD00"/>
<path d="M655.321 621.954C654.92 622.055 654.418 622.255 654.017 622.356L655.923 628.278C656.324 628.178 656.826 627.977 657.228 627.877L655.321 621.954Z" fill="#4DBD00"/>
<path d="M589.097 623.661L587.392 629.583C587.893 629.684 588.295 629.884 588.796 629.985L590.402 623.962C590.001 623.862 589.599 623.761 589.097 623.661Z" fill="#4DBD00"/>
<path d="M646.29 624.564C645.889 624.665 645.387 624.765 644.986 624.865L646.391 630.888C646.892 630.788 647.294 630.687 647.795 630.587L646.29 624.564Z" fill="#4DBD00"/>
<path d="M598.328 625.869L597.124 631.992C597.626 632.093 598.027 632.193 598.529 632.293L599.633 626.17C599.131 625.969 598.73 625.869 598.328 625.869Z" fill="#4DBD00"/>
<path d="M637.059 626.471C636.658 626.572 636.156 626.572 635.755 626.672L636.658 632.795C637.159 632.695 637.561 632.695 638.062 632.595L637.059 626.471Z" fill="#4DBD00"/>
<path d="M607.56 627.174L606.958 633.297C607.459 633.297 607.861 633.397 608.362 633.397L608.964 627.274C608.463 627.274 608.061 627.274 607.56 627.174Z" fill="#4DBD00"/>
<path d="M627.728 627.576C627.326 627.576 626.825 627.677 626.423 627.677L626.825 633.8C627.326 633.8 627.728 633.699 628.229 633.699L627.728 627.576Z" fill="#4DBD00"/>
<path d="M616.991 627.776L616.891 634C617.393 634 617.794 634 618.296 634L618.396 627.776C617.894 627.776 617.393 627.776 616.991 627.776Z" fill="#4DBD00"/>
<path d="M523.424 604.16C509.433 589.156 499.191 571.053 493.536 551.333C487.881 531.612 486.974 510.833 490.888 490.695C494.803 470.556 503.428 451.63 516.059 435.464C528.689 419.298 544.966 406.35 563.56 397.68" stroke="#1E9E00" stroke-width="5"/>
<path d="M582.231 390.662C604.588 384.166 628.28 383.794 650.83 389.584C673.38 395.374 693.961 407.114 710.424 423.576" stroke="#1E9E00" stroke-width="5"/>
<path d="M737.988 464.288C751.013 494.679 751.969 528.892 740.66 559.963" stroke="#1E9E00" stroke-width="5"/>
<path d="M732.854 577.331C725.061 591.744 714.614 604.554 702.062 615.086" stroke="#1E9E00" stroke-width="5"/>
<path d="M673.44 633.32C642.193 647.891 606.436 649.452 574.037 637.66" stroke="#1E9E00" stroke-width="5"/>
<path d="M806 515.5C806 619.053 722.053 703 618.5 703C514.947 703 431 619.053 431 515.5C431 411.947 514.947 328 618.5 328C722.053 328 806 411.947 806 515.5ZM459.125 515.5C459.125 603.52 530.48 674.875 618.5 674.875C706.52 674.875 777.875 603.52 777.875 515.5C777.875 427.48 706.52 356.125 618.5 356.125C530.48 356.125 459.125 427.48 459.125 515.5Z" fill="url(#paint2_linear)"/>
<path d="M841.5 517C841.5 546.219 835.745 575.152 824.563 602.147C813.382 629.142 796.992 653.67 776.331 674.331C755.67 694.992 731.142 711.382 704.147 722.563C677.152 733.745 648.219 739.5 619 739.5C589.781 739.5 560.848 733.745 533.853 722.563C506.858 711.382 482.33 694.992 461.669 674.331C441.008 653.67 424.618 629.142 413.437 602.147C402.255 575.152 396.5 546.219 396.5 517C396.5 487.781 402.255 458.848 413.437 431.853C424.618 404.858 441.008 380.33 461.669 359.669C482.33 339.008 506.858 322.618 533.853 311.437C560.848 300.255 589.781 294.5 619 294.5C648.219 294.5 677.152 300.255 704.147 311.437C731.142 322.618 755.67 339.008 776.331 359.669C796.992 380.33 813.382 404.858 824.563 431.853C835.745 458.848 841.5 487.781 841.5 517L841.5 517Z" stroke="url(#paint3_linear)" stroke-width="5"/>
<path d="M849.121 536.133C851.765 505.913 848.431 475.468 839.309 446.537C830.187 417.606 815.455 390.754 795.956 367.516C776.457 344.278 752.572 325.108 725.664 311.1C698.756 297.093 669.353 288.523 639.133 285.879L637.522 304.289C665.325 306.721 692.376 314.606 717.131 327.492C741.886 340.379 763.861 358.016 781.8 379.395C799.739 400.774 813.292 425.477 821.684 452.094C830.076 478.711 833.144 506.72 830.711 534.522L849.121 536.133Z" fill="url(#paint4_linear)"/>
<path d="M388.317 503.91C385.11 565.091 406.339 625.04 447.334 670.569C488.328 716.098 545.729 743.477 606.91 746.683L607.878 728.229C551.591 725.279 498.782 700.09 461.067 658.204C423.352 616.317 403.821 561.164 406.771 504.878L388.317 503.91Z" fill="url(#paint5_linear)"/>
<path d="M887.973 491.968C893.676 557.152 876.119 622.195 838.489 675.292L827.514 667.302C863.263 616.86 879.942 555.07 874.524 493.145L887.973 491.968Z" fill="url(#paint6_linear)"/>
<path d="M826.048 691.518C783.838 742.484 724.683 776.059 659.679 785.944L657.645 772.422C719.399 763.031 775.597 731.135 815.695 682.717L826.048 691.518Z" fill="url(#paint7_linear)"/>
<path d="M792.337 306.203C842.755 349.065 876.039 409.051 885.945 474.907L872.598 476.936C863.187 414.373 831.567 357.386 783.67 316.667L792.337 306.203Z" fill="url(#paint8_linear)"/>
<path d="M595.163 243.041C660.66 237.31 726.025 255.986 778.994 295.563L770.995 306.56C720.674 268.962 658.577 251.22 596.355 256.664L595.163 243.041Z" fill="url(#paint9_linear)"/>
<path d="M350.028 539.032C344.325 473.848 361.881 408.805 399.512 355.708L410.486 363.698C374.737 414.139 358.058 475.93 363.476 537.855L350.028 539.032Z" fill="url(#paint10_linear)"/>
<path d="M411.952 339.482C454.162 288.516 513.317 254.941 578.321 245.056L580.355 258.578C518.601 267.969 462.404 299.865 422.305 348.283L411.952 339.482Z" fill="url(#paint11_linear)"/>
<path d="M445.663 724.797C395.245 681.935 361.961 621.949 352.055 556.093L365.402 554.064C374.813 616.627 406.433 673.613 454.33 714.332L445.663 724.797Z" fill="url(#paint12_linear)"/>
<path d="M642.837 787.959C577.34 793.69 511.975 775.014 459.006 735.437L467.006 724.44C517.326 762.038 579.423 779.78 641.645 774.336L642.837 787.959Z" fill="url(#paint13_linear)"/>
<circle cx="909.007" cy="515.985" r="2" transform="rotate(90 909.007 515.985)" fill="#4DAD49"/>
<circle cx="908.786" cy="527.401" r="2" transform="rotate(92.2112 908.786 527.401)" fill="#4DAD49"/>
<circle cx="908.042" cy="539.809" r="2" transform="rotate(94.6409 908.042 539.809)" fill="#4DAD49"/>
<circle cx="906.785" cy="552.061" r="2" transform="rotate(97.0655 906.785 552.061)" fill="#4DAD49"/>
<circle cx="905.024" cy="564.157" r="2" transform="rotate(99.4833 905.024 564.157)" fill="#4DAD49"/>
<circle cx="902.768" cy="576.098" r="2" transform="rotate(101.893 902.768 576.098)" fill="#4DAD49"/>
<circle cx="900.026" cy="587.879" r="2" transform="rotate(104.293 900.026 587.879)" fill="#4DAD49"/>
<circle cx="896.802" cy="599.495" r="2" transform="rotate(106.682 896.802 599.495)" fill="#4DAD49"/>
<circle cx="893.104" cy="610.94" r="2" transform="rotate(109.06 893.104 610.94)" fill="#4DAD49"/>
<circle cx="888.936" cy="622.205" r="2" transform="rotate(111.427 888.936 622.205)" fill="#4DAD49"/>
<circle cx="884.046" cy="633.866" r="2" transform="rotate(113.995 884.046 633.866)" fill="#4DAD49"/>
<circle cx="878.953" cy="644.69" r="2" transform="rotate(116.338 878.953 644.69)" fill="#4DAD49"/>
<circle cx="873.412" cy="655.301" r="2" transform="rotate(118.671 873.412 655.301)" fill="#4DAD49"/>
<circle cx="867.163" cy="666.128" r="2" transform="rotate(121.204 867.163 666.128)" fill="#4DAD49"/>
<circle cx="860.751" cy="676.228" r="2" transform="rotate(123.518 860.751 676.228)" fill="#4DAD49"/>
<circle cx="853.657" cy="686.428" r="2" transform="rotate(126.033 853.657 686.428)" fill="#4DAD49"/>
<circle cx="846.414" cy="695.963" r="2" transform="rotate(128.332 846.414 695.963)" fill="#4DAD49"/>
<circle cx="838.77" cy="705.211" r="2" transform="rotate(130.627 838.77 705.211)" fill="#4DAD49"/>
<circle cx="830.502" cy="714.404" r="2" transform="rotate(133.126 830.502 714.404)" fill="#4DAD49"/>
<circle cx="822.096" cy="722.997" r="2" transform="rotate(135.416 822.096 722.997)" fill="#4DAD49"/>
<circle cx="813.12" cy="731.441" r="2" transform="rotate(137.915 813.12 731.441)" fill="#4DAD49"/>
<circle cx="804.008" cy="739.32" r="2" transform="rotate(140.207 804.008 739.32)" fill="#4DAD49"/>
<circle cx="794.384" cy="746.965" r="2" transform="rotate(142.712 794.384 746.965)" fill="#4DAD49"/>
<circle cx="784.626" cy="754.071" r="2" transform="rotate(145.014 784.626 754.071)" fill="#4DAD49"/>
<circle cx="774.42" cy="760.868" r="2" transform="rotate(147.533 774.42 760.868)" fill="#4DAD49"/>
<circle cx="764.083" cy="767.143" r="2" transform="rotate(149.85 764.083 767.143)" fill="#4DAD49"/>
<circle cx="753.476" cy="772.991" r="2" transform="rotate(152.176 753.476 772.991)" fill="#4DAD49"/>
<circle cx="742.524" cy="778.441" r="2" transform="rotate(154.725 742.524 778.441)" fill="#4DAD49"/>
<circle cx="731.449" cy="783.379" r="2" transform="rotate(157.073 731.449 783.379)" fill="#4DAD49"/>
<circle cx="720.166" cy="787.853" r="2" transform="rotate(159.433 720.166 787.853)" fill="#4DAD49"/>
<circle cx="708.695" cy="791.85" r="2" transform="rotate(161.804 708.695 791.85)" fill="#4DAD49"/>
<circle cx="697.019" cy="795.371" r="2" transform="rotate(164.403 697.019 795.371)" fill="#4DAD49"/>
<circle cx="685.252" cy="798.384" r="2" transform="rotate(166.797 685.252 798.384)" fill="#4DAD49"/>
<circle cx="673.365" cy="800.898" r="2" transform="rotate(169.201 673.365 800.898)" fill="#4DAD49"/>
<circle cx="661.383" cy="802.911" r="2" transform="rotate(171.615 661.383 802.911)" fill="#4DAD49"/>
<circle cx="649.326" cy="804.419" r="2" transform="rotate(174.036 649.326 804.419)" fill="#4DAD49"/>
<circle cx="637.22" cy="805.422" r="2" transform="rotate(176.242 637.22 805.422)" fill="#4DAD49"/>
<circle cx="625.08" cy="805.922" r="2" transform="rotate(178.673 625.08 805.922)" fill="#4DAD49"/>
<circle cx="611.789" cy="805.896" r="2" transform="rotate(-178.673 611.789 805.896)" fill="#4DAD49"/>
<circle cx="599.653" cy="805.349" r="2" transform="rotate(-176.242 599.653 805.349)" fill="#4DAD49"/>
<circle cx="587.555" cy="804.299" r="2" transform="rotate(-174.036 587.555 804.299)" fill="#4DAD49"/>
<circle cx="575.511" cy="802.744" r="2" transform="rotate(-171.615 575.511 802.744)" fill="#4DAD49"/>
<circle cx="563.543" cy="800.687" r="2" transform="rotate(-169.201 563.543 800.687)" fill="#4DAD49"/>
<circle cx="551.677" cy="798.128" r="2" transform="rotate(-166.797 551.677 798.128)" fill="#4DAD49"/>
<circle cx="539.933" cy="795.073" r="2" transform="rotate(-164.403 539.933 795.073)" fill="#4DAD49"/>
<circle cx="528.285" cy="791.512" r="2" transform="rotate(-161.804 528.285 791.512)" fill="#4DAD49"/>
<circle cx="516.844" cy="787.477" r="2" transform="rotate(-159.433 516.844 787.477)" fill="#4DAD49"/>
<circle cx="505.593" cy="782.969" r="2" transform="rotate(-157.073 505.593 782.969)" fill="#4DAD49"/>
<circle cx="494.554" cy="777.998" r="2" transform="rotate(-154.725 494.554 777.998)" fill="#4DAD49"/>
<circle cx="483.642" cy="772.519" r="2" transform="rotate(-152.176 483.642 772.519)" fill="#4DAD49"/>
<circle cx="473.074" cy="766.646" r="2" transform="rotate(-149.85 473.074 766.646)" fill="#4DAD49"/>
<circle cx="462.639" cy="760.259" r="2" transform="rotate(-147.322 462.639 760.259)" fill="#4DAD49"/>
<circle cx="452.619" cy="753.533" r="2" transform="rotate(-145.014 452.619 753.533)" fill="#4DAD49"/>
<circle cx="442.906" cy="746.412" r="2" transform="rotate(-142.712 442.906 746.412)" fill="#4DAD49"/>
<circle cx="433.329" cy="738.758" r="2" transform="rotate(-140.207 433.329 738.758)" fill="#4DAD49"/>
<circle cx="424.263" cy="730.871" r="2" transform="rotate(-137.915 424.263 730.871)" fill="#4DAD49"/>
<circle cx="415.335" cy="722.426" r="2" transform="rotate(-135.416 415.335 722.426)" fill="#4DAD49"/>
<circle cx="406.977" cy="713.832" r="2" transform="rotate(-133.126 406.977 713.832)" fill="#4DAD49"/>
<circle cx="398.757" cy="704.647" r="2" transform="rotate(-130.627 398.757 704.647)" fill="#4DAD49"/>
<circle cx="391.159" cy="695.406" r="2" transform="rotate(-128.332 391.159 695.406)" fill="#4DAD49"/>
<circle cx="383.704" cy="685.529" r="2" transform="rotate(-125.824 383.704 685.529)" fill="#4DAD49"/>
<circle cx="376.913" cy="675.701" r="2" transform="rotate(-123.518 376.913 675.701)" fill="#4DAD49"/>
<circle cx="370.543" cy="665.62" r="2" transform="rotate(-121.204 370.543 665.62)" fill="#4DAD49"/>
<circle cx="364.337" cy="654.819" r="2" transform="rotate(-118.671 364.337 654.819)" fill="#4DAD49"/>
<circle cx="358.835" cy="644.235" r="2" transform="rotate(-116.338 358.835 644.235)" fill="#4DAD49"/>
<circle cx="353.778" cy="633.441" r="2" transform="rotate(-113.995 353.778 633.441)" fill="#4DAD49"/>
<circle cx="348.924" cy="621.816" r="2" transform="rotate(-111.427 348.924 621.816)" fill="#4DAD49"/>
<circle cx="344.788" cy="610.587" r="2" transform="rotate(-109.06 344.788 610.587)" fill="#4DAD49"/>
<circle cx="341.117" cy="599.18" r="2" transform="rotate(-106.682 341.117 599.18)" fill="#4DAD49"/>
<circle cx="337.918" cy="587.605" r="2" transform="rotate(-104.293 337.918 587.605)" fill="#4DAD49"/>
<circle cx="335.196" cy="575.867" r="2" transform="rotate(-101.893 335.196 575.867)" fill="#4DAD49"/>
<circle cx="332.959" cy="563.971" r="2" transform="rotate(-99.4833 332.959 563.971)" fill="#4DAD49"/>
<circle cx="331.211" cy="551.921" r="2" transform="rotate(-97.0655 331.211 551.921)" fill="#4DAD49"/>
<circle cx="329.964" cy="539.716" r="2" transform="rotate(-94.6409 329.964 539.716)" fill="#4DAD49"/>
<circle cx="329.226" cy="527.357" r="2" transform="rotate(-92.2112 329.226 527.357)" fill="#4DAD49"/>
<circle cx="329.015" cy="513.699" r="2" transform="rotate(-89.5577 329.015 513.699)" fill="#4DAD49"/>
<circle cx="329.32" cy="502.369" r="2" transform="rotate(-87.3467 329.32 502.369)" fill="#4DAD49"/>
<circle cx="330.154" cy="490.008" r="2" transform="rotate(-84.9179 330.154 490.008)" fill="#4DAD49"/>
<circle cx="331.5" cy="477.786" r="2" transform="rotate(-82.4943 331.5 477.786)" fill="#4DAD49"/>
<circle cx="333.346" cy="465.725" r="2" transform="rotate(-80.0779 333.346 465.725)" fill="#4DAD49"/>
<circle cx="335.68" cy="453.844" r="2" transform="rotate(-77.6702 335.68 453.844)" fill="#4DAD49"/>
<circle cx="338.486" cy="442.163" r="2" transform="rotate(-75.2722 338.486 442.163)" fill="#4DAD49"/>
<circle cx="341.751" cy="430.695" r="2" transform="rotate(-72.885 341.751 430.695)" fill="#4DAD49"/>
<circle cx="345.459" cy="419.456" r="2" transform="rotate(-70.509 345.459 419.456)" fill="#4DAD49"/>
<circle cx="350.147" cy="407.086" r="2" transform="rotate(-67.93 350.147 407.086)" fill="#4DAD49"/>
<circle cx="354.763" cy="396.332" r="2" transform="rotate(-65.5779 354.763 396.332)" fill="#4DAD49"/>
<circle cx="359.777" cy="385.843" r="2" transform="rotate(-63.2367 359.777 385.843)" fill="#4DAD49"/>
<circle cx="365.173" cy="375.628" r="2" transform="rotate(-60.906 365.173 375.628)" fill="#4DAD49"/>
<circle cx="371.783" cy="364.312" r="2" transform="rotate(-58.3743 371.783 364.312)" fill="#4DAD49"/>
<circle cx="377.975" cy="354.672" r="2" transform="rotate(-56.0625 377.975 354.672)" fill="#4DAD49"/>
<circle cx="385.508" cy="343.968" r="2" transform="rotate(-53.5487 385.508 343.968)" fill="#4DAD49"/>
<circle cx="392.442" cy="334.944" r="2" transform="rotate(-51.2505 392.442 334.944)" fill="#4DAD49"/>
<circle cx="400.85" cy="324.908" r="2" transform="rotate(-48.7482 400.85 324.908)" fill="#4DAD49"/>
<circle cx="408.48" cy="316.536" r="2" transform="rotate(-46.4572 408.48 316.536)" fill="#4DAD49"/>
<circle cx="417.716" cy="307.222" r="2" transform="rotate(-43.9591 417.716 307.222)" fill="#4DAD49"/>
<circle cx="425.999" cy="299.535" r="2" transform="rotate(-41.6685 425.999 299.535)" fill="#4DAD49"/>
<circle cx="434.562" cy="292.185" r="2" transform="rotate(-39.3755 434.562 292.185)" fill="#4DAD49"/>
<circle cx="444.921" cy="284.026" r="2" transform="rotate(-36.8696 444.921 284.026)" fill="#4DAD49"/>
<circle cx="454.087" cy="277.41" r="2" transform="rotate(-34.5667 454.087 277.41)" fill="#4DAD49"/>
<circle cx="465.177" cy="270.1" r="2" transform="rotate(-32.0466 465.177 270.1)" fill="#4DAD49"/>
<circle cx="474.92" cy="264.253" r="2" transform="rotate(-29.7279 474.92 264.253)" fill="#4DAD49"/>
<circle cx="484.914" cy="258.778" r="2" transform="rotate(-27.3999 484.914 258.778)" fill="#4DAD49"/>
<circle cx="497.01" cy="252.816" r="2" transform="rotate(-24.8486 497.01 252.816)" fill="#4DAD49"/>
<circle cx="507.556" cy="248.172" r="2" transform="rotate(-22.4985 507.556 248.172)" fill="#4DAD49"/>
<circle cx="518.347" cy="243.928" r="2" transform="rotate(-20.1371 518.347 243.928)" fill="#4DAD49"/>
<circle cx="531.404" cy="239.451" r="2" transform="rotate(-17.5479 531.404 239.451)" fill="#4DAD49"/>
<circle cx="542.735" cy="236.119" r="2" transform="rotate(-15.1626 542.735 236.119)" fill="#4DAD49"/>
<circle cx="554.312" cy="233.227" r="2" transform="rotate(-12.7666 554.312 233.227)" fill="#4DAD49"/>
<circle cx="566.136" cy="230.792" r="2" transform="rotate(-10.3605 566.136 230.792)" fill="#4DAD49"/>
<circle cx="578.21" cy="228.831" r="2" transform="rotate(-7.94561 578.21 228.831)" fill="#4DAD49"/>
<circle cx="590.535" cy="227.364" r="2" transform="rotate(-5.52323 590.535 227.364)" fill="#4DAD49"/>
<circle cx="600.857" cy="226.539" r="2" transform="rotate(-3.31609 600.857 226.539)" fill="#4DAD49"/>
<circle cx="613.657" cy="226.03" r="2" transform="rotate(-0.884654 613.657 226.03)" fill="#4DAD49"/>
<circle cx="627.739" cy="226.113" r="2" transform="rotate(1.76911 627.739 226.113)" fill="#4DAD49"/>
<circle cx="640.452" cy="226.766" r="2" transform="rotate(4.19941 640.452 226.766)" fill="#4DAD49"/>
<circle cx="650.702" cy="227.693" r="2" transform="rotate(6.40485 650.702 227.693)" fill="#4DAD49"/>
<circle cx="662.95" cy="229.289" r="2" transform="rotate(8.82471 662.95 229.289)" fill="#4DAD49"/>
<circle cx="674.952" cy="231.373" r="2" transform="rotate(11.2366 674.952 231.373)" fill="#4DAD49"/>
<circle cx="686.71" cy="233.927" r="2" transform="rotate(13.6391 686.71 233.927)" fill="#4DAD49"/>
<circle cx="700.277" cy="237.527" r="2" transform="rotate(16.2482 700.277 237.527)" fill="#4DAD49"/>
<circle cx="711.501" cy="241.047" r="2" transform="rotate(18.6284 711.501 241.047)" fill="#4DAD49"/>
<circle cx="722.483" cy="244.989" r="2" transform="rotate(20.9971 722.483 244.989)" fill="#4DAD49"/>
<circle cx="733.223" cy="249.341" r="2" transform="rotate(23.3544 733.223 249.341)" fill="#4DAD49"/>
<circle cx="745.555" cy="254.98" r="2" transform="rotate(25.9132 745.555 254.98)" fill="#4DAD49"/>
<circle cx="755.751" cy="260.183" r="2" transform="rotate(28.2476 755.751 260.183)" fill="#4DAD49"/>
<circle cx="765.699" cy="265.766" r="2" transform="rotate(30.5721 765.699 265.766)" fill="#4DAD49"/>
<circle cx="777.042" cy="272.788" r="2" transform="rotate(33.0978 777.042 272.788)" fill="#4DAD49"/>
<circle cx="786.424" cy="279.16" r="2" transform="rotate(35.4048 786.424 279.16)" fill="#4DAD49"/>
<circle cx="797.048" cy="287.054" r="2" transform="rotate(37.9144 797.048 287.054)" fill="#4DAD49"/>
<circle cx="805.836" cy="294.176" r="2" transform="rotate(40.2097 805.836 294.176)" fill="#4DAD49"/>
<circle cx="814.351" cy="301.642" r="2" transform="rotate(42.5016 814.351 301.642)" fill="#4DAD49"/>
<circle cx="823.871" cy="310.726" r="2" transform="rotate(45 823.871 310.726)" fill="#4DAD49"/>
<circle cx="831.743" cy="318.894" r="2" transform="rotate(47.2901 831.743 318.894)" fill="#4DAD49"/>
<circle cx="840.448" cy="328.722" r="2" transform="rotate(49.7903 840.448 328.722)" fill="#4DAD49"/>
<circle cx="847.638" cy="337.558" r="2" transform="rotate(52.0856 847.638 337.558)" fill="#4DAD49"/>
<circle cx="855.482" cy="348.077" r="2" transform="rotate(54.5952 855.482 348.077)" fill="#4DAD49"/>
<circle cx="861.942" cy="357.547" r="2" transform="rotate(56.9022 861.942 357.547)" fill="#4DAD49"/>
<circle cx="868.053" cy="367.316" r="2" transform="rotate(59.217 868.053 367.316)" fill="#4DAD49"/>
<circle cx="874.554" cy="378.767" r="2" transform="rotate(61.7524 874.554 378.767)" fill="#4DAD49"/>
<circle cx="879.856" cy="389.114" r="2" transform="rotate(64.0868 879.856 389.114)" fill="#4DAD49"/>
<circle cx="885.367" cy="401.116" r="2" transform="rotate(66.6456 885.367 401.116)" fill="#4DAD49"/>
<circle cx="889.804" cy="411.993" r="2" transform="rotate(69.0029 889.804 411.993)" fill="#4DAD49"/>
<circle cx="893.82" cy="423.121" r="2" transform="rotate(71.3716 893.82 423.121)" fill="#4DAD49"/>
<circle cx="897.399" cy="434.489" r="2" transform="rotate(73.7518 897.399 434.489)" fill="#4DAD49"/>
<circle cx="900.527" cy="446.083" r="2" transform="rotate(76.143 900.527 446.083)" fill="#4DAD49"/>
<circle cx="903.187" cy="457.889" r="2" transform="rotate(78.5446 903.187 457.889)" fill="#4DAD49"/>
<circle cx="905.364" cy="469.889" r="2" transform="rotate(80.9557 905.364 469.889)" fill="#4DAD49"/>
<circle cx="907.044" cy="482.064" r="2" transform="rotate(83.3749 907.044 482.064)" fill="#4DAD49"/>
<circle cx="908.215" cy="494.393" r="2" transform="rotate(85.8006 908.215 494.393)" fill="#4DAD49"/>
<circle cx="908.865" cy="506.854" r="2" transform="rotate(88.2309 908.865 506.854)" fill="#4DAD49"/>
<path d="M994.908 540.248L940.908 535.248C941.927 519.823 941.892 511.174 940.908 495.748L994.908 491.248C996.592 510.382 996.555 521.11 994.908 540.248Z" fill="url(#paint14_linear)"/>
<path d="M985.042 605.138L932.711 590.908C936.373 575.89 937.829 567.364 939.518 551.999L993.485 556.871C991.847 576.009 989.962 586.571 985.042 605.138Z" fill="url(#paint15_linear)"/>
<path d="M964.084 667.151L915.019 644.05C921.233 629.896 924.147 621.753 928.478 606.914L980.78 621.083C975.843 639.646 972.153 649.72 964.084 667.151Z" fill="url(#paint16_linear)"/>
<path d="M932.514 724.797L888.216 693.514C896.797 680.657 901.083 673.145 907.929 659.285L956.969 682.336C948.879 699.757 943.493 709.036 932.514 724.797Z" fill="url(#paint17_linear)"/>
<path d="M891.182 776.314L853.031 737.772C863.727 726.611 869.259 719.964 878.422 707.514L922.68 738.778C911.67 754.518 904.746 762.713 891.182 776.314Z" fill="url(#paint18_linear)"/>
<path d="M842.076 819.559L811.032 775.092C823.47 765.912 830.052 760.302 841.198 749.591L879.496 787.925C865.971 801.564 857.754 808.462 842.076 819.559Z" fill="url(#paint19_linear)"/>
<path d="M785.754 853.865L762.955 804.66C776.805 797.794 784.266 793.42 797.111 784.82L828.125 829.254C812.425 840.321 803.129 845.678 785.754 853.865Z" fill="url(#paint20_linear)"/>
<path d="M724.483 877.783L710.587 825.363C725.419 821.009 733.527 817.999 747.672 811.764L770.487 860.914C753.103 869.083 743.017 872.741 724.483 877.783Z" fill="url(#paint21_linear)"/>
<path d="M659.981 890.628L655.395 836.591C670.758 834.878 679.265 833.321 694.278 829.636L708.216 882C689.677 887.027 679.109 888.879 659.981 890.628Z" fill="url(#paint22_linear)"/>
<path d="M592.685 891.89L597.894 837.91C613.314 838.989 621.963 838.987 637.393 838.063L641.685 892.079C622.545 893.69 611.816 893.611 592.685 891.89Z" fill="url(#paint23_linear)"/>
<path d="M527.781 881.763L542.211 829.487C557.215 833.206 565.735 834.695 581.094 836.442L576.015 890.391C556.884 888.679 546.329 886.754 527.781 881.763Z" fill="url(#paint24_linear)"/>
<path d="M465.63 860.468L488.915 811.491C503.046 817.758 511.177 820.703 526 825.089L511.635 877.337C493.09 872.331 483.03 868.603 465.63 860.468Z" fill="url(#paint25_linear)"/>
<path d="M408.177 828.654L439.623 784.471C452.45 793.1 459.945 797.414 473.78 804.311L450.548 853.266C433.157 845.111 423.898 839.691 408.177 828.654Z" fill="url(#paint26_linear)"/>
<path d="M357.032 787.245L395.712 749.234C406.834 759.97 413.461 765.527 425.878 774.735L394.453 818.879C378.753 807.813 370.584 800.858 357.032 787.245Z" fill="url(#paint27_linear)"/>
<path d="M314.085 738.098L358.664 707.216C367.799 719.687 373.384 726.29 384.055 737.475L345.582 775.633C331.992 762.058 325.124 753.816 314.085 738.098Z" fill="url(#paint28_linear)"/>
<path d="M280.021 681.739L329.311 659.121C336.126 672.996 340.472 680.473 349.024 693.35L304.476 724.2C293.467 708.46 288.145 699.144 280.021 681.739Z" fill="url(#paint29_linear)"/>
<path d="M256.394 620.641L308.866 606.942C313.164 621.791 316.144 629.91 322.326 644.078L273.09 666.709C264.987 649.293 261.367 639.194 256.394 620.641Z" fill="url(#paint30_linear)"/>
<path d="M243.808 556.636L297.862 552.257C299.516 567.626 301.04 576.14 304.668 591.166L252.251 604.903C247.295 586.346 245.483 575.771 243.808 556.636Z" fill="url(#paint31_linear)"/>
<path d="M242.627 488.286L296.587 493.703C295.449 509.12 295.417 517.768 296.282 533.202L242.249 537.285C240.713 518.138 240.833 507.41 242.627 488.286Z" fill="url(#paint32_linear)"/>
<path d="M252.974 423.607L305.194 438.237C301.418 453.226 299.897 461.74 298.091 477.092L244.162 471.808C245.946 452.683 247.912 442.136 252.974 423.607Z" fill="url(#paint33_linear)"/>
<path d="M274.252 362.144L323.142 385.613C316.822 399.72 313.846 407.841 309.404 422.647L257.21 408.085C262.286 389.56 266.052 379.514 274.252 362.144Z" fill="url(#paint34_linear)"/>
<path d="M305.97 305.074L350.037 336.683C341.361 349.477 337.02 356.957 330.072 370.765L281.203 347.354C289.421 329.993 294.876 320.754 305.97 305.074Z" fill="url(#paint35_linear)"/>
<path d="M347.837 253.461L385.708 292.279C374.931 303.362 369.35 309.969 360.097 322.352L316.068 290.766C327.191 275.107 334.176 266.963 347.837 253.461Z" fill="url(#paint36_linear)"/>
<path d="M397.931 210.054L428.487 254.858C415.95 263.901 409.307 269.439 398.045 280.027L360.168 241.278C373.841 227.787 382.133 220.979 397.931 210.054Z" fill="url(#paint37_linear)"/>
<path d="M453.034 176.997L475.469 226.37C461.569 233.134 454.076 237.453 441.168 245.957L410.483 201.296C426.263 190.345 435.599 185.057 453.034 176.997Z" fill="url(#paint38_linear)"/>
<path d="M513.995 153.489L527.497 206.012C512.632 210.254 504.502 213.203 490.31 219.332L467.865 170.012C485.311 161.974 495.423 158.392 513.995 153.489Z" fill="url(#paint39_linear)"/>
<path d="M580.397 140.631L584.362 194.717C568.981 196.253 560.456 197.713 545.402 201.225L532.067 148.705C550.662 143.891 561.25 142.16 580.397 140.631Z" fill="url(#paint40_linear)"/>
<path d="M647.6 139.816L641.975 193.755C626.564 192.557 617.915 192.492 602.478 193.298L598.604 139.249C617.756 137.787 628.484 137.948 647.6 139.816Z" fill="url(#paint41_linear)"/>
<path d="M712.027 150.374L697.197 202.538C682.222 198.704 673.714 197.15 658.368 195.286L663.86 141.377C682.978 143.235 693.517 145.241 712.027 150.374Z" fill="url(#paint42_linear)"/>
<path d="M773.127 171.747L749.476 220.549C735.392 214.176 727.283 211.17 712.493 206.672L727.251 154.533C745.757 159.678 755.789 163.482 773.127 171.747Z" fill="url(#paint43_linear)"/>
<path d="M830.152 203.628L798.381 247.579C785.619 238.856 778.155 234.487 764.372 227.488L787.963 178.706C805.294 186.988 814.513 192.477 830.152 203.628Z" fill="url(#paint44_linear)"/>
<path d="M881.853 245.802L842.898 283.531C831.854 272.714 825.268 267.109 812.918 257.812L844.664 213.897C860.283 225.078 868.401 232.092 881.853 245.802Z" fill="url(#paint45_linear)"/>
<path d="M925.129 296.085L880.215 326.477C871.217 313.907 865.703 307.244 855.156 295.944L894.043 258.207C907.484 271.93 914.261 280.247 925.129 296.085Z" fill="url(#paint46_linear)"/>
<path d="M958.147 351.578L908.693 373.832C901.98 359.907 897.689 352.398 889.232 339.458L934.006 308.938C944.899 324.759 950.152 334.113 958.147 351.578Z" fill="url(#paint47_linear)"/>
<path d="M981.498 412.954L928.924 426.258C924.738 411.377 921.82 403.235 915.745 389.021L965.149 366.762C973.121 384.237 976.665 394.363 981.498 412.954Z" fill="url(#paint48_linear)"/>
<path d="M993.927 478.921L939.826 482.68C938.349 467.292 936.922 458.762 933.467 443.695L986.039 430.56C990.781 449.174 992.471 459.769 993.927 478.921Z" fill="url(#paint49_linear)"/>
<g filter="url(#filter1_d)">
<g filter="url(#filter2_d)">
<circle cx="456" cy="149" r="6" fill="#63C25D"/>
</g>
<path d="M331.9 793.6C263.8 721.4 222 623.6 222 516C222 352.7 318.2 212.2 456.3 149.2" stroke="#579846" stroke-width="1.2389" stroke-miterlimit="10"/>
<g filter="url(#filter3_d)">
<circle cx="331" cy="793" r="6" fill="#63C25D"/>
</g>
<g filter="url(#filter4_d)">
<circle cx="1237" cy="1066" r="6" fill="#63C25D"/>
</g>
<g filter="url(#filter5_d)">
<path d="M803 874L890 960H1008V1027L1047 1066H1237" stroke="#62C35B" stroke-width="1.2389" stroke-miterlimit="10"/>
</g>
<g filter="url(#filter6_d)">
<circle cx="465" cy="887" r="6" fill="#63C25D"/>
</g>
<path d="M802.1 872.9C747.3 901.7 685.1 918 619.2 918C564.6 918 512.6 906.8 465.2 886.7" stroke="#579846" stroke-width="1.2389" stroke-miterlimit="10"/>
<g filter="url(#filter7_d)">
<circle cx="802" cy="873" r="6" fill="#63C25D"/>
</g>
<g filter="url(#filter8_d)">
<circle cx="1524" cy="846" r="6" fill="#63C25D"/>
</g>
<g filter="url(#filter9_d)">
<path d="M869 827L933 891H1212L1257.5 845.5H1523" stroke="#62C35B" stroke-width="1.2389" stroke-miterlimit="10"/>
</g>
<g filter="url(#filter10_d)">
<circle cx="870" cy="827" r="6" fill="#63C25D"/>
</g>
<path d="M970.2 704.5C944.8 752.8 910 795.2 868.3 829.2" stroke="#579846" stroke-width="1.2389" stroke-miterlimit="10"/>
<g filter="url(#filter11_d)">
<circle cx="970" cy="705" r="6" fill="#63C25D"/>
</g>
<g filter="url(#filter12_d)">
<circle cx="1342" cy="732" r="6" fill="#63C25D"/>
</g>
<g filter="url(#filter13_d)">
<path d="M995 645L1079.5 730.5L1342.5 731.5" stroke="#62C35B" stroke-width="1.2389" stroke-miterlimit="10"/>
</g>
<g filter="url(#filter14_d)">
<circle cx="1436" cy="261" r="6" fill="#63C25D"/>
</g>
<g filter="url(#filter15_d)">
<path d="M985 358H1340L1436.5 262" stroke="#62C35B" stroke-width="1.2389" stroke-miterlimit="10"/>
</g>
<g filter="url(#filter16_d)">
<circle cx="995" cy="645" r="6" fill="#63C25D"/>
</g>
<path d="M984.9 358.8C1005.2 407.1 1016.4 460.2 1016.4 516C1016.4 562.4 1008.6 607 994.3 648.5" stroke="#579846" stroke-width="1.2389" stroke-miterlimit="10"/>
<g filter="url(#filter17_d)">
<circle cx="985" cy="358" r="6" fill="#63C25D"/>
</g>
<g filter="url(#filter18_d)">
<circle cx="1197" cy="297" r="6" fill="#63C25D"/>
</g>
<g filter="url(#filter19_d)">
<path d="M906 235H1135.5L1196.5 296" stroke="#62C35B" stroke-width="1.2389" stroke-miterlimit="10"/>
</g>
<g filter="url(#filter20_d)">
<circle cx="906" cy="236" r="6" fill="#63C25D"/>
</g>
<path d="M501.1 132.1C538.4 120.4 578.1 114 619.2 114C731.7 114 833.2 161.3 905.5 237.3" stroke="#579846" stroke-width="1.2389" stroke-miterlimit="10"/>
<g filter="url(#filter21_d)">
<circle cx="501" cy="132" r="6" fill="#63C25D"/>
</g>
</g>
<g style="mix-blend-mode:overlay" clip-path="url(#clip1)">
<path d="M1148.3 321.3C1134.3 294.6 1144.6 261.4 1171.4 247.4C1198.1 233.4 1231.3 243.7 1245.3 270.5C1259.3 297.2 1249 330.4 1222.2 344.4C1195.5 358.4 1162.4 348.1 1148.3 321.3ZM1240 273.3C1227.5 249.5 1198 240.3 1174.2 252.8C1150.4 265.3 1141.2 294.8 1153.7 318.6C1166.2 342.4 1195.7 351.6 1219.5 339.1C1243.2 326.5 1252.4 297 1240 273.3Z" fill="url(#paint50_linear)"/>
<path d="M1272 256.4C1282.4 276.2 1284.1 298.2 1278.6 318.2L1261.3 312.8C1265.4 297.2 1264 280.2 1256 264.9C1238.8 232.3 1198.4 219.7 1165.8 236.8C1150.5 244.8 1139.6 258.1 1134.1 273.2L1116.9 267.8C1123.8 248.2 1137.7 231.1 1157.4 220.7C1198.8 199 1250.3 215 1272 256.4Z" fill="url(#paint51_linear)"/>
<path d="M1137.7 326.9C1154.8 359.5 1195.2 372.1 1227.8 355C1243.1 347 1254 333.7 1259.5 318.6L1276.8 324C1269.9 343.6 1256 360.7 1236.3 371.1C1194.8 392.8 1143.4 376.8 1121.7 335.4C1111.3 315.6 1109.6 293.5 1115.1 273.5L1132.4 278.9C1128.3 294.5 1129.7 311.6 1137.7 326.9Z" fill="url(#paint52_linear)"/>
</g>
<g style="mix-blend-mode:overlay" clip-path="url(#clip2)">
<path d="M1433.96 280.007C1420.87 278.759 1411.19 267.081 1412.46 253.949C1413.71 240.855 1425.39 231.177 1438.52 232.449C1451.61 233.697 1461.29 245.375 1460.02 258.507C1458.77 271.601 1447.12 281.243 1433.96 280.007ZM1438.28 235.053C1426.6 233.948 1416.21 242.536 1415.1 254.213C1414 265.891 1422.59 276.285 1434.26 277.39C1445.94 278.495 1456.33 269.907 1457.44 258.23C1458.48 246.565 1449.9 236.171 1438.28 235.053Z" fill="url(#paint53_linear)"/>
<path d="M1439.73 219.33C1449.45 220.249 1457.89 224.872 1463.89 231.65L1457.79 236.685C1453.07 231.468 1446.52 227.927 1439.02 227.204C1423.01 225.718 1408.77 237.479 1407.25 253.469C1406.53 260.967 1408.79 268.121 1413 273.731L1406.93 278.729C1401.41 271.535 1398.47 262.379 1399.37 252.701C1401.31 232.399 1419.43 217.392 1439.73 219.33Z" fill="url(#paint54_linear)"/>
<path d="M1433.48 285.216C1449.47 286.738 1463.71 274.977 1465.23 258.987C1465.95 251.489 1463.69 244.335 1459.48 238.725L1465.58 233.69C1471.1 240.884 1474.03 250.04 1473.14 259.718C1471.18 280.057 1453.08 295.028 1432.77 293.089C1423.06 292.17 1414.58 287.523 1408.58 280.746L1414.68 275.711C1419.4 280.928 1425.98 284.492 1433.48 285.216Z" fill="url(#paint55_linear)"/>
</g>
<g style="mix-blend-mode:overlay" clip-path="url(#clip3)">
<path d="M1303.25 743.431C1296.79 722.284 1308.73 699.756 1329.95 693.31C1351.09 686.849 1373.62 698.786 1380.07 720.005C1386.53 741.151 1374.59 763.679 1353.37 770.126C1332.23 776.587 1309.77 764.664 1303.25 743.431ZM1375.87 721.302C1370.09 702.449 1350.08 691.808 1331.23 697.582C1312.38 703.356 1301.74 723.367 1307.51 742.219C1313.28 761.072 1333.29 771.713 1352.15 765.939C1370.94 760.08 1381.58 740.069 1375.87 721.302Z" fill="url(#paint56_linear)"/>
<path d="M1401.23 713.472C1406.03 729.156 1404.27 745.243 1397.58 758.91L1385.85 752.666C1390.92 741.98 1392.23 729.538 1388.54 717.423C1380.58 691.589 1353.17 677.016 1327.35 684.909C1315.24 688.594 1305.57 696.698 1299.56 706.834L1287.89 700.604C1295.53 687.415 1307.87 676.98 1323.49 672.163C1356.27 662.151 1391.22 680.684 1401.23 713.472Z" fill="url(#paint57_linear)"/>
<path d="M1294.85 746.026C1302.74 771.847 1330.15 786.42 1355.97 778.527C1368.08 774.841 1377.75 766.737 1383.76 756.602L1395.5 762.846C1387.86 776.034 1375.52 786.469 1359.91 791.286C1327.05 801.285 1292.17 782.766 1282.16 749.977C1277.36 734.293 1279.14 718.134 1285.82 704.467L1297.56 710.711C1292.48 721.397 1291.16 733.912 1294.85 746.026Z" fill="url(#paint58_linear)"/>
</g>
<g style="mix-blend-mode:overlay" clip-path="url(#clip4)">
<path d="M1499.81 829.549C1508.74 816.337 1526.78 812.815 1540.02 821.789C1553.23 830.717 1556.76 848.762 1547.78 861.999C1538.85 875.211 1520.81 878.734 1507.57 869.759C1494.36 860.831 1490.86 842.833 1499.81 829.549ZM1545.15 860.232C1553.1 848.446 1549.99 832.4 1538.21 824.447C1526.42 816.494 1510.37 819.601 1502.42 831.388C1494.47 843.174 1497.58 859.22 1509.36 867.173C1521.17 875.055 1537.22 871.947 1545.15 860.232Z" fill="url(#paint59_linear)"/>
<path d="M1561.04 870.903C1554.42 880.709 1544.6 887.014 1533.91 889.464L1532.09 880.053C1540.38 878.053 1547.95 873.141 1553.07 865.58C1563.94 849.399 1559.69 827.424 1543.55 816.525C1535.99 811.403 1527.07 809.659 1518.66 810.881L1516.86 801.517C1527.72 799.819 1539.17 802.008 1548.95 808.578C1569.43 822.423 1574.88 850.42 1561.04 870.903Z" fill="url(#paint60_linear)"/>
<path d="M1494.55 826.015C1483.65 842.15 1487.9 864.125 1504.04 875.024C1511.6 880.146 1520.52 881.89 1528.94 880.668L1530.76 890.079C1519.9 891.777 1508.45 889.588 1498.67 883.018C1478.16 869.126 1472.73 841.175 1486.58 820.693C1493.19 810.887 1503.06 804.557 1513.76 802.107L1515.58 811.518C1507.28 813.518 1499.67 818.455 1494.55 826.015Z" fill="url(#paint61_linear)"/>
</g>
<g style="mix-blend-mode:overlay" clip-path="url(#clip5)">
<path d="M1243.76 1028.86C1264.1 1032.69 1277.59 1052.37 1273.72 1072.75C1269.89 1093.08 1250.21 1106.57 1229.83 1102.7C1209.5 1098.88 1196.01 1079.2 1199.88 1058.82C1203.7 1038.48 1223.34 1025.05 1243.76 1028.86ZM1230.58 1098.66C1248.71 1102.06 1266.22 1090.09 1269.62 1071.96C1273.02 1053.83 1261.05 1036.32 1242.92 1032.92C1224.79 1029.52 1207.28 1041.49 1203.88 1059.62C1200.57 1077.74 1212.54 1095.25 1230.58 1098.66Z" fill="url(#paint62_linear)"/>
<path d="M1226.05 1123.08C1210.97 1120.25 1198.4 1111.8 1189.98 1100.33L1200.25 1093.31C1206.9 1102.16 1216.65 1108.64 1228.29 1110.85C1253.16 1115.46 1277.14 1099.08 1281.81 1074.25C1284.01 1062.61 1281.49 1051.08 1275.7 1041.69L1285.93 1034.73C1293.54 1046.79 1296.83 1061.55 1294.05 1076.58C1288.11 1108.1 1257.58 1129.02 1226.05 1123.08Z" fill="url(#paint63_linear)"/>
<path d="M1245.26 1020.78C1220.43 1016.11 1196.46 1032.49 1191.79 1057.32C1189.58 1068.96 1192.1 1080.49 1197.89 1089.88L1187.62 1096.89C1180.01 1084.84 1176.72 1070.08 1179.5 1055.04C1185.48 1023.47 1215.97 1002.61 1247.49 1008.54C1262.58 1011.37 1275.2 1019.86 1283.63 1031.34L1273.36 1038.35C1266.7 1029.5 1256.9 1022.98 1245.26 1020.78Z" fill="url(#paint64_linear)"/>
</g>
</g>
<defs>
<filter id="filter0_d" x="531" y="428" width="176" height="176" filterUnits="userSpaceOnUse" color-interpolation-filters="sRGB">
<feFlood flood-opacity="0" result="BackgroundImageFix"/>
<feColorMatrix in="SourceAlpha" type="matrix" values="0 0 0 0 0 0 0 0 0 0 0 0 0 0 0 0 0 0 127 0"/>
<feOffset/>
<feGaussianBlur stdDeviation="1.5"/>
<feColorMatrix type="matrix" values="0 0 0 0 0.316171 0 0 0 0 0.8125 0 0 0 0 0.0826042 0 0 0 0.6 0"/>
<feBlend mode="normal" in2="BackgroundImageFix" result="effect1_dropShadow"/>
<feBlend mode="normal" in="SourceGraphic" in2="effect1_dropShadow" result="shape"/>
</filter>
<filter id="filter1_d" x="211.38" y="103.38" width="1328.62" height="978.62" filterUnits="userSpaceOnUse" color-interpolation-filters="sRGB">
<feFlood flood-opacity="0" result="BackgroundImageFix"/>
<feColorMatrix in="SourceAlpha" type="matrix" values="0 0 0 0 0 0 0 0 0 0 0 0 0 0 0 0 0 0 127 0"/>
<feOffset/>
<feGaussianBlur stdDeviation="5"/>
<feColorMatrix type="matrix" values="0 0 0 0 0.316171 0 0 0 0 0.8125 0 0 0 0 0.0826042 0 0 0 1 0"/>
<feBlend mode="normal" in2="BackgroundImageFix" result="effect1_dropShadow"/>
<feBlend mode="normal" in="SourceGraphic" in2="effect1_dropShadow" result="shape"/>
</filter>
<filter id="filter2_d" x="435" y="128" width="42" height="42" filterUnits="userSpaceOnUse" color-interpolation-filters="sRGB">
<feFlood flood-opacity="0" result="BackgroundImageFix"/>
<feColorMatrix in="SourceAlpha" type="matrix" values="0 0 0 0 0 0 0 0 0 0 0 0 0 0 0 0 0 0 127 0"/>
<feOffset/>
<feGaussianBlur stdDeviation="7.5"/>
<feColorMatrix type="matrix" values="0 0 0 0 0.0791494 0 0 0 0 0.979167 0 0 0 0 0.493157 0 0 0 1 0"/>
<feBlend mode="normal" in2="BackgroundImageFix" result="effect1_dropShadow"/>
<feBlend mode="normal" in="SourceGraphic" in2="effect1_dropShadow" result="shape"/>
</filter>
<filter id="filter3_d" x="310" y="772" width="42" height="42" filterUnits="userSpaceOnUse" color-interpolation-filters="sRGB">
<feFlood flood-opacity="0" result="BackgroundImageFix"/>
<feColorMatrix in="SourceAlpha" type="matrix" values="0 0 0 0 0 0 0 0 0 0 0 0 0 0 0 0 0 0 127 0"/>
<feOffset/>
<feGaussianBlur stdDeviation="7.5"/>
<feColorMatrix type="matrix" values="0 0 0 0 0.0791494 0 0 0 0 0.979167 0 0 0 0 0.493157 0 0 0 1 0"/>
<feBlend mode="normal" in2="BackgroundImageFix" result="effect1_dropShadow"/>
<feBlend mode="normal" in="SourceGraphic" in2="effect1_dropShadow" result="shape"/>
</filter>
<filter id="filter4_d" x="1216" y="1045" width="42" height="42" filterUnits="userSpaceOnUse" color-interpolation-filters="sRGB">
<feFlood flood-opacity="0" result="BackgroundImageFix"/>
<feColorMatrix in="SourceAlpha" type="matrix" values="0 0 0 0 0 0 0 0 0 0 0 0 0 0 0 0 0 0 127 0"/>
<feOffset/>
<feGaussianBlur stdDeviation="7.5"/>
<feColorMatrix type="matrix" values="0 0 0 0 0.0791494 0 0 0 0 0.979167 0 0 0 0 0.493157 0 0 0 1 0"/>
<feBlend mode="normal" in2="BackgroundImageFix" result="effect1_dropShadow"/>
<feBlend mode="normal" in="SourceGraphic" in2="effect1_dropShadow" result="shape"/>
</filter>
<filter id="filter5_d" x="792.564" y="863.56" width="454.435" height="213.06" filterUnits="userSpaceOnUse" color-interpolation-filters="sRGB">
<feFlood flood-opacity="0" result="BackgroundImageFix"/>
<feColorMatrix in="SourceAlpha" type="matrix" values="0 0 0 0 0 0 0 0 0 0 0 0 0 0 0 0 0 0 127 0"/>
<feOffset/>
<feGaussianBlur stdDeviation="5"/>
<feColorMatrix type="matrix" values="0 0 0 0 0.316171 0 0 0 0 0.8125 0 0 0 0 0.0826042 0 0 0 1 0"/>
<feBlend mode="normal" in2="BackgroundImageFix" result="effect1_dropShadow"/>
<feBlend mode="normal" in="SourceGraphic" in2="effect1_dropShadow" result="shape"/>
</filter>
<filter id="filter6_d" x="444" y="866" width="42" height="42" filterUnits="userSpaceOnUse" color-interpolation-filters="sRGB">
<feFlood flood-opacity="0" result="BackgroundImageFix"/>
<feColorMatrix in="SourceAlpha" type="matrix" values="0 0 0 0 0 0 0 0 0 0 0 0 0 0 0 0 0 0 127 0"/>
<feOffset/>
<feGaussianBlur stdDeviation="7.5"/>
<feColorMatrix type="matrix" values="0 0 0 0 0.0791494 0 0 0 0 0.979167 0 0 0 0 0.493157 0 0 0 1 0"/>
<feBlend mode="normal" in2="BackgroundImageFix" result="effect1_dropShadow"/>
<feBlend mode="normal" in="SourceGraphic" in2="effect1_dropShadow" result="shape"/>
</filter>
<filter id="filter7_d" x="781" y="852" width="42" height="42" filterUnits="userSpaceOnUse" color-interpolation-filters="sRGB">
<feFlood flood-opacity="0" result="BackgroundImageFix"/>
<feColorMatrix in="SourceAlpha" type="matrix" values="0 0 0 0 0 0 0 0 0 0 0 0 0 0 0 0 0 0 127 0"/>
<feOffset/>
<feGaussianBlur stdDeviation="7.5"/>
<feColorMatrix type="matrix" values="0 0 0 0 0.0791494 0 0 0 0 0.979167 0 0 0 0 0.493157 0 0 0 1 0"/>
<feBlend mode="normal" in2="BackgroundImageFix" result="effect1_dropShadow"/>
<feBlend mode="normal" in="SourceGraphic" in2="effect1_dropShadow" result="shape"/>
</filter>
<filter id="filter8_d" x="1503" y="825" width="42" height="42" filterUnits="userSpaceOnUse" color-interpolation-filters="sRGB">
<feFlood flood-opacity="0" result="BackgroundImageFix"/>
<feColorMatrix in="SourceAlpha" type="matrix" values="0 0 0 0 0 0 0 0 0 0 0 0 0 0 0 0 0 0 127 0"/>
<feOffset/>
<feGaussianBlur stdDeviation="7.5"/>
<feColorMatrix type="matrix" values="0 0 0 0 0.0791494 0 0 0 0 0.979167 0 0 0 0 0.493157 0 0 0 1 0"/>
<feBlend mode="normal" in2="BackgroundImageFix" result="effect1_dropShadow"/>
<feBlend mode="normal" in="SourceGraphic" in2="effect1_dropShadow" result="shape"/>
</filter>
<filter id="filter9_d" x="858.562" y="816.562" width="674.438" height="85.0575" filterUnits="userSpaceOnUse" color-interpolation-filters="sRGB">
<feFlood flood-opacity="0" result="BackgroundImageFix"/>
<feColorMatrix in="SourceAlpha" type="matrix" values="0 0 0 0 0 0 0 0 0 0 0 0 0 0 0 0 0 0 127 0"/>
<feOffset/>
<feGaussianBlur stdDeviation="5"/>
<feColorMatrix type="matrix" values="0 0 0 0 0.316171 0 0 0 0 0.8125 0 0 0 0 0.0826042 0 0 0 1 0"/>
<feBlend mode="normal" in2="BackgroundImageFix" result="effect1_dropShadow"/>
<feBlend mode="normal" in="SourceGraphic" in2="effect1_dropShadow" result="shape"/>
</filter>
<filter id="filter10_d" x="849" y="806" width="42" height="42" filterUnits="userSpaceOnUse" color-interpolation-filters="sRGB">
<feFlood flood-opacity="0" result="BackgroundImageFix"/>
<feColorMatrix in="SourceAlpha" type="matrix" values="0 0 0 0 0 0 0 0 0 0 0 0 0 0 0 0 0 0 127 0"/>
<feOffset/>
<feGaussianBlur stdDeviation="7.5"/>
<feColorMatrix type="matrix" values="0 0 0 0 0.0791494 0 0 0 0 0.979167 0 0 0 0 0.493157 0 0 0 1 0"/>
<feBlend mode="normal" in2="BackgroundImageFix" result="effect1_dropShadow"/>
<feBlend mode="normal" in="SourceGraphic" in2="effect1_dropShadow" result="shape"/>
</filter>
<filter id="filter11_d" x="949" y="684" width="42" height="42" filterUnits="userSpaceOnUse" color-interpolation-filters="sRGB">
<feFlood flood-opacity="0" result="BackgroundImageFix"/>
<feColorMatrix in="SourceAlpha" type="matrix" values="0 0 0 0 0 0 0 0 0 0 0 0 0 0 0 0 0 0 127 0"/>
<feOffset/>
<feGaussianBlur stdDeviation="7.5"/>
<feColorMatrix type="matrix" values="0 0 0 0 0.0791494 0 0 0 0 0.979167 0 0 0 0 0.493157 0 0 0 1 0"/>
<feBlend mode="normal" in2="BackgroundImageFix" result="effect1_dropShadow"/>
<feBlend mode="normal" in="SourceGraphic" in2="effect1_dropShadow" result="shape"/>
</filter>
<filter id="filter12_d" x="1321" y="711" width="42" height="42" filterUnits="userSpaceOnUse" color-interpolation-filters="sRGB">
<feFlood flood-opacity="0" result="BackgroundImageFix"/>
<feColorMatrix in="SourceAlpha" type="matrix" values="0 0 0 0 0 0 0 0 0 0 0 0 0 0 0 0 0 0 127 0"/>
<feOffset/>
<feGaussianBlur stdDeviation="7.5"/>
<feColorMatrix type="matrix" values="0 0 0 0 0.0791494 0 0 0 0 0.979167 0 0 0 0 0.493157 0 0 0 1 0"/>
<feBlend mode="normal" in2="BackgroundImageFix" result="effect1_dropShadow"/>
<feBlend mode="normal" in="SourceGraphic" in2="effect1_dropShadow" result="shape"/>
</filter>
<filter id="filter13_d" x="984.56" y="634.564" width="367.943" height="107.555" filterUnits="userSpaceOnUse" color-interpolation-filters="sRGB">
<feFlood flood-opacity="0" result="BackgroundImageFix"/>
<feColorMatrix in="SourceAlpha" type="matrix" values="0 0 0 0 0 0 0 0 0 0 0 0 0 0 0 0 0 0 127 0"/>
<feOffset/>
<feGaussianBlur stdDeviation="5"/>
<feColorMatrix type="matrix" values="0 0 0 0 0.316171 0 0 0 0 0.8125 0 0 0 0 0.0826042 0 0 0 1 0"/>
<feBlend mode="normal" in2="BackgroundImageFix" result="effect1_dropShadow"/>
<feBlend mode="normal" in="SourceGraphic" in2="effect1_dropShadow" result="shape"/>
</filter>
<filter id="filter14_d" x="1415" y="240" width="42" height="42" filterUnits="userSpaceOnUse" color-interpolation-filters="sRGB">
<feFlood flood-opacity="0" result="BackgroundImageFix"/>
<feColorMatrix in="SourceAlpha" type="matrix" values="0 0 0 0 0 0 0 0 0 0 0 0 0 0 0 0 0 0 127 0"/>
<feOffset/>
<feGaussianBlur stdDeviation="7.5"/>
<feColorMatrix type="matrix" values="0 0 0 0 0.0791494 0 0 0 0 0.979167 0 0 0 0 0.493157 0 0 0 1 0"/>
<feBlend mode="normal" in2="BackgroundImageFix" result="effect1_dropShadow"/>
<feBlend mode="normal" in="SourceGraphic" in2="effect1_dropShadow" result="shape"/>
</filter>
<filter id="filter15_d" x="975" y="251.561" width="471.937" height="117.059" filterUnits="userSpaceOnUse" color-interpolation-filters="sRGB">
<feFlood flood-opacity="0" result="BackgroundImageFix"/>
<feColorMatrix in="SourceAlpha" type="matrix" values="0 0 0 0 0 0 0 0 0 0 0 0 0 0 0 0 0 0 127 0"/>
<feOffset/>
<feGaussianBlur stdDeviation="5"/>
<feColorMatrix type="matrix" values="0 0 0 0 0.316171 0 0 0 0 0.8125 0 0 0 0 0.0826042 0 0 0 1 0"/>
<feBlend mode="normal" in2="BackgroundImageFix" result="effect1_dropShadow"/>
<feBlend mode="normal" in="SourceGraphic" in2="effect1_dropShadow" result="shape"/>
</filter>
<filter id="filter16_d" x="974" y="624" width="42" height="42" filterUnits="userSpaceOnUse" color-interpolation-filters="sRGB">
<feFlood flood-opacity="0" result="BackgroundImageFix"/>
<feColorMatrix in="SourceAlpha" type="matrix" values="0 0 0 0 0 0 0 0 0 0 0 0 0 0 0 0 0 0 127 0"/>
<feOffset/>
<feGaussianBlur stdDeviation="7.5"/>
<feColorMatrix type="matrix" values="0 0 0 0 0.0791494 0 0 0 0 0.979167 0 0 0 0 0.493157 0 0 0 1 0"/>
<feBlend mode="normal" in2="BackgroundImageFix" result="effect1_dropShadow"/>
<feBlend mode="normal" in="SourceGraphic" in2="effect1_dropShadow" result="shape"/>
</filter>
<filter id="filter17_d" x="964" y="337" width="42" height="42" filterUnits="userSpaceOnUse" color-interpolation-filters="sRGB">
<feFlood flood-opacity="0" result="BackgroundImageFix"/>
<feColorMatrix in="SourceAlpha" type="matrix" values="0 0 0 0 0 0 0 0 0 0 0 0 0 0 0 0 0 0 127 0"/>
<feOffset/>
<feGaussianBlur stdDeviation="7.5"/>
<feColorMatrix type="matrix" values="0 0 0 0 0.0791494 0 0 0 0 0.979167 0 0 0 0 0.493157 0 0 0 1 0"/>
<feBlend mode="normal" in2="BackgroundImageFix" result="effect1_dropShadow"/>
<feBlend mode="normal" in="SourceGraphic" in2="effect1_dropShadow" result="shape"/>
</filter>
<filter id="filter18_d" x="1176" y="276" width="42" height="42" filterUnits="userSpaceOnUse" color-interpolation-filters="sRGB">
<feFlood flood-opacity="0" result="BackgroundImageFix"/>
<feColorMatrix in="SourceAlpha" type="matrix" values="0 0 0 0 0 0 0 0 0 0 0 0 0 0 0 0 0 0 127 0"/>
<feOffset/>
<feGaussianBlur stdDeviation="7.5"/>
<feColorMatrix type="matrix" values="0 0 0 0 0.0791494 0 0 0 0 0.979167 0 0 0 0 0.493157 0 0 0 1 0"/>
<feBlend mode="normal" in2="BackgroundImageFix" result="effect1_dropShadow"/>
<feBlend mode="normal" in="SourceGraphic" in2="effect1_dropShadow" result="shape"/>
</filter>
<filter id="filter19_d" x="896" y="224.38" width="310.938" height="82.0575" filterUnits="userSpaceOnUse" color-interpolation-filters="sRGB">
<feFlood flood-opacity="0" result="BackgroundImageFix"/>
<feColorMatrix in="SourceAlpha" type="matrix" values="0 0 0 0 0 0 0 0 0 0 0 0 0 0 0 0 0 0 127 0"/>
<feOffset/>
<feGaussianBlur stdDeviation="5"/>
<feColorMatrix type="matrix" values="0 0 0 0 0.316171 0 0 0 0 0.8125 0 0 0 0 0.0826042 0 0 0 1 0"/>
<feBlend mode="normal" in2="BackgroundImageFix" result="effect1_dropShadow"/>
<feBlend mode="normal" in="SourceGraphic" in2="effect1_dropShadow" result="shape"/>
</filter>
<filter id="filter20_d" x="885" y="215" width="42" height="42" filterUnits="userSpaceOnUse" color-interpolation-filters="sRGB">
<feFlood flood-opacity="0" result="BackgroundImageFix"/>
<feColorMatrix in="SourceAlpha" type="matrix" values="0 0 0 0 0 0 0 0 0 0 0 0 0 0 0 0 0 0 127 0"/>
<feOffset/>
<feGaussianBlur stdDeviation="7.5"/>
<feColorMatrix type="matrix" values="0 0 0 0 0.0791494 0 0 0 0 0.979167 0 0 0 0 0.493157 0 0 0 1 0"/>
<feBlend mode="normal" in2="BackgroundImageFix" result="effect1_dropShadow"/>
<feBlend mode="normal" in="SourceGraphic" in2="effect1_dropShadow" result="shape"/>
</filter>
<filter id="filter21_d" x="480" y="111" width="42" height="42" filterUnits="userSpaceOnUse" color-interpolation-filters="sRGB">
<feFlood flood-opacity="0" result="BackgroundImageFix"/>
<feColorMatrix in="SourceAlpha" type="matrix" values="0 0 0 0 0 0 0 0 0 0 0 0 0 0 0 0 0 0 127 0"/>
<feOffset/>
<feGaussianBlur stdDeviation="7.5"/>
<feColorMatrix type="matrix" values="0 0 0 0 0.0791494 0 0 0 0 0.979167 0 0 0 0 0.493157 0 0 0 1 0"/>
<feBlend mode="normal" in2="BackgroundImageFix" result="effect1_dropShadow"/>
<feBlend mode="normal" in="SourceGraphic" in2="effect1_dropShadow" result="shape"/>
</filter>
<linearGradient id="paint0_linear" x1="471" y1="166" x2="791" y2="162.001" gradientUnits="userSpaceOnUse">
<stop offset="1.08255e-07" stop-opacity="0"/>
<stop offset="1" stop-color="#4CB648"/>
</linearGradient>
<radialGradient id="paint1_radial" cx="0" cy="0" r="1" gradientUnits="userSpaceOnUse" gradientTransform="translate(616.992 510.966) rotate(1.0301) scale(280.026 280.066)">
<stop offset="0.534375" stop-color="#006A09" stop-opacity="0"/>
<stop offset="0.711458" stop-color="#108B11" stop-opacity="0.3"/>
<stop offset="1" stop-color="#0E210F" stop-opacity="0"/>
</radialGradient>
<linearGradient id="paint2_linear" x1="802.32" y1="515.451" x2="616.181" y2="515.451" gradientUnits="userSpaceOnUse">
<stop offset="1.08255e-07" stop-color="#2DA000"/>
<stop offset="1" stop-color="#289400" stop-opacity="0"/>
</linearGradient>
<linearGradient id="paint3_linear" x1="843.985" y1="516.992" x2="394" y2="516.992" gradientUnits="userSpaceOnUse">
<stop stop-color="#87A000"/>
<stop offset="1" stop-color="#006A06"/>
</linearGradient>
<linearGradient id="paint4_linear" x1="849.984" y1="515.991" x2="388" y2="515.991" gradientUnits="userSpaceOnUse">
<stop stop-color="#87A000"/>
<stop offset="1" stop-color="#006A06"/>
</linearGradient>
<linearGradient id="paint5_linear" x1="388.016" y1="516.009" x2="850" y2="516.009" gradientUnits="userSpaceOnUse">
<stop stop-color="#006A06"/>
<stop offset="0.346298" stop-color="#87A000"/>
</linearGradient>
<linearGradient id="paint6_linear" x1="888.016" y1="492.466" x2="375.35" y2="537.318" gradientUnits="userSpaceOnUse">
<stop stop-color="#299601"/>
<stop offset="0.747917" stop-color="#68E03B" stop-opacity="0"/>
</linearGradient>
<linearGradient id="paint7_linear" x1="888.016" y1="492.466" x2="375.35" y2="537.318" gradientUnits="userSpaceOnUse">
<stop stop-color="#299601"/>
<stop offset="0.747917" stop-color="#68E03B" stop-opacity="0"/>
</linearGradient>
<linearGradient id="paint8_linear" x1="888.016" y1="492.466" x2="375.35" y2="537.318" gradientUnits="userSpaceOnUse">
<stop stop-color="#299601"/>
<stop offset="0.747917" stop-color="#68E03B" stop-opacity="0"/>
</linearGradient>
<linearGradient id="paint9_linear" x1="888.016" y1="492.466" x2="375.35" y2="537.318" gradientUnits="userSpaceOnUse">
<stop stop-color="#299601"/>
<stop offset="0.747917" stop-color="#68E03B" stop-opacity="0"/>
</linearGradient>
<linearGradient id="paint10_linear" x1="888.016" y1="492.466" x2="375.35" y2="537.318" gradientUnits="userSpaceOnUse">
<stop stop-color="#299601"/>
<stop offset="0.747917" stop-color="#68E03B" stop-opacity="0"/>
</linearGradient>
<linearGradient id="paint11_linear" x1="888.016" y1="492.466" x2="375.35" y2="537.318" gradientUnits="userSpaceOnUse">
<stop stop-color="#299601"/>
<stop offset="0.747917" stop-color="#68E03B" stop-opacity="0"/>
</linearGradient>
<linearGradient id="paint12_linear" x1="888.016" y1="492.466" x2="375.35" y2="537.318" gradientUnits="userSpaceOnUse">
<stop stop-color="#299601"/>
<stop offset="0.747917" stop-color="#68E03B" stop-opacity="0"/>
</linearGradient>
<linearGradient id="paint13_linear" x1="888.016" y1="492.466" x2="375.35" y2="537.318" gradientUnits="userSpaceOnUse">
<stop stop-color="#299601"/>
<stop offset="0.747917" stop-color="#68E03B" stop-opacity="0"/>
</linearGradient>
<linearGradient id="paint14_linear" x1="996.157" y1="515.748" x2="940.908" y2="515.748" gradientUnits="userSpaceOnUse">
<stop offset="0.107292" stop-color="#019634" stop-opacity="0"/>
<stop offset="1" stop-color="#01963D" stop-opacity="0.4"/>
</linearGradient>
<linearGradient id="paint15_linear" x1="990.494" y1="581.219" x2="936.071" y2="571.7" gradientUnits="userSpaceOnUse">
<stop offset="0.107292" stop-color="#019634" stop-opacity="0"/>
<stop offset="1" stop-color="#01963D" stop-opacity="0.4"/>
</linearGradient>
<linearGradient id="paint16_linear" x1="973.606" y1="644.543" x2="921.663" y2="625.717" gradientUnits="userSpaceOnUse">
<stop offset="0.107292" stop-color="#019634" stop-opacity="0"/>
<stop offset="1" stop-color="#01963D" stop-opacity="0.4"/>
</linearGradient>
<linearGradient id="paint17_linear" x1="945.824" y1="704.19" x2="897.948" y2="676.616" gradientUnits="userSpaceOnUse">
<stop offset="0.107292" stop-color="#019634" stop-opacity="0"/>
<stop offset="1" stop-color="#01963D" stop-opacity="0.4"/>
</linearGradient>
<linearGradient id="paint18_linear" x1="907.888" y1="758.349" x2="865.565" y2="722.834" gradientUnits="userSpaceOnUse">
<stop offset="0.107292" stop-color="#019634" stop-opacity="0"/>
<stop offset="1" stop-color="#01963D" stop-opacity="0.4"/>
</linearGradient>
<linearGradient id="paint19_linear" x1="861.592" y1="804.696" x2="825.924" y2="762.503" gradientUnits="userSpaceOnUse">
<stop offset="0.107292" stop-color="#019634" stop-opacity="0"/>
<stop offset="1" stop-color="#01963D" stop-opacity="0.4"/>
</linearGradient>
<linearGradient id="paint20_linear" x1="807.567" y1="842.64" x2="779.817" y2="794.865" gradientUnits="userSpaceOnUse">
<stop offset="0.107292" stop-color="#019634" stop-opacity="0"/>
<stop offset="1" stop-color="#01963D" stop-opacity="0.4"/>
</linearGradient>
<linearGradient id="paint21_linear" x1="747.915" y1="870.521" x2="728.895" y2="818.65" gradientUnits="userSpaceOnUse">
<stop offset="0.107292" stop-color="#019634" stop-opacity="0"/>
<stop offset="1" stop-color="#01963D" stop-opacity="0.4"/>
</linearGradient>
<linearGradient id="paint22_linear" x1="684.318" y1="887.543" x2="674.59" y2="833.157" gradientUnits="userSpaceOnUse">
<stop offset="0.107292" stop-color="#019634" stop-opacity="0"/>
<stop offset="1" stop-color="#01963D" stop-opacity="0.4"/>
</linearGradient>
<linearGradient id="paint23_linear" x1="617.18" y1="893.234" x2="617.394" y2="837.985" gradientUnits="userSpaceOnUse">
<stop offset="0.107292" stop-color="#019634" stop-opacity="0"/>
<stop offset="1" stop-color="#01963D" stop-opacity="0.4"/>
</linearGradient>
<linearGradient id="paint24_linear" x1="551.678" y1="887.306" x2="561.406" y2="832.92" gradientUnits="userSpaceOnUse">
<stop offset="0.107292" stop-color="#019634" stop-opacity="0"/>
<stop offset="1" stop-color="#01963D" stop-opacity="0.4"/>
</linearGradient>
<linearGradient id="paint25_linear" x1="488.202" y1="870.076" x2="507.223" y2="818.204" gradientUnits="userSpaceOnUse">
<stop offset="0.107292" stop-color="#019634" stop-opacity="0"/>
<stop offset="1" stop-color="#01963D" stop-opacity="0.4"/>
</linearGradient>
<linearGradient id="paint26_linear" x1="428.735" y1="842.04" x2="456.485" y2="794.266" gradientUnits="userSpaceOnUse">
<stop offset="0.107292" stop-color="#019634" stop-opacity="0"/>
<stop offset="1" stop-color="#01963D" stop-opacity="0.4"/>
</linearGradient>
<linearGradient id="paint27_linear" x1="374.936" y1="804.016" x2="410.604" y2="761.823" gradientUnits="userSpaceOnUse">
<stop offset="0.107292" stop-color="#019634" stop-opacity="0"/>
<stop offset="1" stop-color="#01963D" stop-opacity="0.4"/>
</linearGradient>
<linearGradient id="paint28_linear" x1="328.876" y1="757.668" x2="371.199" y2="722.154" gradientUnits="userSpaceOnUse">
<stop offset="0.107292" stop-color="#019634" stop-opacity="0"/>
<stop offset="1" stop-color="#01963D" stop-opacity="0.4"/>
</linearGradient>
<linearGradient id="paint29_linear" x1="291.166" y1="703.593" x2="339.043" y2="676.019" gradientUnits="userSpaceOnUse">
<stop offset="0.107292" stop-color="#019634" stop-opacity="0"/>
<stop offset="1" stop-color="#01963D" stop-opacity="0.4"/>
</linearGradient>
<linearGradient id="paint30_linear" x1="263.568" y1="644.1" x2="315.511" y2="625.275" gradientUnits="userSpaceOnUse">
<stop offset="0.107292" stop-color="#019634" stop-opacity="0"/>
<stop offset="1" stop-color="#01963D" stop-opacity="0.4"/>
</linearGradient>
<linearGradient id="paint31_linear" x1="246.799" y1="580.985" x2="301.222" y2="571.465" gradientUnits="userSpaceOnUse">
<stop offset="0.107292" stop-color="#019634" stop-opacity="0"/>
<stop offset="1" stop-color="#01963D" stop-opacity="0.4"/>
</linearGradient>
<linearGradient id="paint32_linear" x1="241.189" y1="512.776" x2="296.437" y2="513.203" gradientUnits="userSpaceOnUse">
<stop offset="0.107292" stop-color="#019634" stop-opacity="0"/>
<stop offset="1" stop-color="#01963D" stop-opacity="0.4"/>
</linearGradient>
<linearGradient id="paint33_linear" x1="247.339" y1="447.482" x2="301.688" y2="457.419" gradientUnits="userSpaceOnUse">
<stop offset="0.107292" stop-color="#019634" stop-opacity="0"/>
<stop offset="1" stop-color="#01963D" stop-opacity="0.4"/>
</linearGradient>
<linearGradient id="paint34_linear" x1="264.56" y1="384.68" x2="316.36" y2="403.895" gradientUnits="userSpaceOnUse">
<stop offset="0.107292" stop-color="#019634" stop-opacity="0"/>
<stop offset="1" stop-color="#01963D" stop-opacity="0.4"/>
</linearGradient>
<linearGradient id="paint35_linear" x1="292.509" y1="325.583" x2="340.181" y2="353.508" gradientUnits="userSpaceOnUse">
<stop offset="0.107292" stop-color="#019634" stop-opacity="0"/>
<stop offset="1" stop-color="#01963D" stop-opacity="0.4"/>
</linearGradient>
<linearGradient id="paint36_linear" x1="331.002" y1="271.304" x2="373.065" y2="307.125" gradientUnits="userSpaceOnUse">
<stop offset="0.107292" stop-color="#019634" stop-opacity="0"/>
<stop offset="1" stop-color="#01963D" stop-opacity="0.4"/>
</linearGradient>
<linearGradient id="paint37_linear" x1="378.253" y1="224.703" x2="413.459" y2="267.283" gradientUnits="userSpaceOnUse">
<stop offset="0.107292" stop-color="#019634" stop-opacity="0"/>
<stop offset="1" stop-color="#01963D" stop-opacity="0.4"/>
</linearGradient>
<linearGradient id="paint38_linear" x1="431.139" y1="188.062" x2="458.536" y2="236.04" gradientUnits="userSpaceOnUse">
<stop offset="0.107292" stop-color="#019634" stop-opacity="0"/>
<stop offset="1" stop-color="#01963D" stop-opacity="0.4"/>
</linearGradient>
<linearGradient id="paint39_linear" x1="490.509" y1="160.574" x2="509.139" y2="212.588" gradientUnits="userSpaceOnUse">
<stop offset="0.107292" stop-color="#019634" stop-opacity="0"/>
<stop offset="1" stop-color="#01963D" stop-opacity="0.4"/>
</linearGradient>
<linearGradient id="paint40_linear" x1="556.026" y1="143.436" x2="565.129" y2="197.93" gradientUnits="userSpaceOnUse">
<stop offset="0.107292" stop-color="#019634" stop-opacity="0"/>
<stop offset="1" stop-color="#01963D" stop-opacity="0.4"/>
</linearGradient>
<linearGradient id="paint41_linear" x1="623.117" y1="138.284" x2="622.477" y2="193.529" gradientUnits="userSpaceOnUse">
<stop offset="0.107292" stop-color="#019634" stop-opacity="0"/>
<stop offset="1" stop-color="#01963D" stop-opacity="0.4"/>
</linearGradient>
<linearGradient id="paint42_linear" x1="688.172" y1="144.648" x2="678.029" y2="198.958" gradientUnits="userSpaceOnUse">
<stop offset="0.107292" stop-color="#019634" stop-opacity="0"/>
<stop offset="1" stop-color="#01963D" stop-opacity="0.4"/>
</linearGradient>
<linearGradient id="paint43_linear" x1="750.628" y1="161.971" x2="731.218" y2="213.698" gradientUnits="userSpaceOnUse">
<stop offset="0.107292" stop-color="#019634" stop-opacity="0"/>
<stop offset="1" stop-color="#01963D" stop-opacity="0.4"/>
</linearGradient>
<linearGradient id="paint44_linear" x1="809.693" y1="190.092" x2="781.592" y2="237.661" gradientUnits="userSpaceOnUse">
<stop offset="0.107292" stop-color="#019634" stop-opacity="0"/>
<stop offset="1" stop-color="#01963D" stop-opacity="0.4"/>
</linearGradient>
<linearGradient id="paint45_linear" x1="864.072" y1="228.902" x2="828.098" y2="270.834" gradientUnits="userSpaceOnUse">
<stop offset="0.107292" stop-color="#019634" stop-opacity="0"/>
<stop offset="1" stop-color="#01963D" stop-opacity="0.4"/>
</linearGradient>
<linearGradient id="paint46_linear" x1="910.552" y1="276.354" x2="867.844" y2="311.404" gradientUnits="userSpaceOnUse">
<stop offset="0.107292" stop-color="#019634" stop-opacity="0"/>
<stop offset="1" stop-color="#01963D" stop-opacity="0.4"/>
</linearGradient>
<linearGradient id="paint47_linear" x1="947.164" y1="329.642" x2="899.085" y2="356.862" gradientUnits="userSpaceOnUse">
<stop offset="0.107292" stop-color="#019634" stop-opacity="0"/>
<stop offset="1" stop-color="#01963D" stop-opacity="0.4"/>
</linearGradient>
<linearGradient id="paint48_linear" x1="974.501" y1="389.441" x2="922.418" y2="407.875" gradientUnits="userSpaceOnUse">
<stop offset="0.107292" stop-color="#019634" stop-opacity="0"/>
<stop offset="1" stop-color="#01963D" stop-opacity="0.4"/>
</linearGradient>
<linearGradient id="paint49_linear" x1="991.216" y1="454.54" x2="936.687" y2="463.434" gradientUnits="userSpaceOnUse">
<stop offset="0.107292" stop-color="#019634" stop-opacity="0"/>
<stop offset="1" stop-color="#01963D" stop-opacity="0.4"/>
</linearGradient>
<linearGradient id="paint50_linear" x1="1251.57" y1="295.921" x2="1142.06" y2="295.843" gradientUnits="userSpaceOnUse">
<stop stop-color="#ACEDED"/>
<stop offset="1" stop-color="#008694"/>
</linearGradient>
<linearGradient id="paint51_linear" x1="1169.47" y1="214.397" x2="1235.73" y2="340.733" gradientUnits="userSpaceOnUse">
<stop stop-color="#ACEDED"/>
<stop offset="1" stop-color="#008694"/>
</linearGradient>
<linearGradient id="paint52_linear" x1="1158.04" y1="251.031" x2="1224.31" y2="377.361" gradientUnits="userSpaceOnUse">
<stop stop-color="#ACEDED"/>
<stop offset="1" stop-color="#008694"/>
</linearGradient>
<linearGradient id="paint53_linear" x1="1449.3" y1="236.215" x2="1423.17" y2="276.218" gradientUnits="userSpaceOnUse">
<stop stop-color="#ACEDED"/>
<stop offset="1" stop-color="#008694"/>
</linearGradient>
<linearGradient id="paint54_linear" x1="1399.94" y1="246.788" x2="1461.91" y2="252.687" gradientUnits="userSpaceOnUse">
<stop stop-color="#ACEDED"/>
<stop offset="1" stop-color="#008694"/>
</linearGradient>
<linearGradient id="paint55_linear" x1="1410.61" y1="259.696" x2="1472.57" y2="265.594" gradientUnits="userSpaceOnUse">
<stop stop-color="#ACEDED"/>
<stop offset="1" stop-color="#008694"/>
</linearGradient>
<linearGradient id="paint56_linear" x1="1381.13" y1="739.179" x2="1302.22" y2="724.236" gradientUnits="userSpaceOnUse">
<stop stop-color="#ACEDED"/>
<stop offset="1" stop-color="#008694"/>
</linearGradient>
<linearGradient id="paint57_linear" x1="1333.04" y1="669.261" x2="1363.62" y2="769.323" gradientUnits="userSpaceOnUse">
<stop stop-color="#ACEDED"/>
<stop offset="1" stop-color="#008694"/>
</linearGradient>
<linearGradient id="paint58_linear" x1="1319.83" y1="694.111" x2="1350.41" y2="794.168" gradientUnits="userSpaceOnUse">
<stop stop-color="#ACEDED"/>
<stop offset="1" stop-color="#008694"/>
</linearGradient>
<linearGradient id="paint59_linear" x1="1537.51" y1="871.292" x2="1510.11" y2="820.265" gradientUnits="userSpaceOnUse">
<stop stop-color="#ACEDED"/>
<stop offset="1" stop-color="#008694"/>
</linearGradient>
<linearGradient id="paint60_linear" x1="1554.91" y1="812.62" x2="1512.67" y2="875.144" gradientUnits="userSpaceOnUse">
<stop stop-color="#ACEDED"/>
<stop offset="1" stop-color="#008694"/>
</linearGradient>
<linearGradient id="paint61_linear" x1="1534.98" y1="816.479" x2="1492.75" y2="879" gradientUnits="userSpaceOnUse">
<stop stop-color="#ACEDED"/>
<stop offset="1" stop-color="#008694"/>
</linearGradient>
<linearGradient id="paint62_linear" x1="1213.47" y1="1095.26" x2="1260.12" y2="1036.34" gradientUnits="userSpaceOnUse">
<stop stop-color="#ACEDED"/>
<stop offset="1" stop-color="#008694"/>
</linearGradient>
<linearGradient id="paint63_linear" x1="1292.3" y1="1085.76" x2="1196.09" y2="1067.66" gradientUnits="userSpaceOnUse">
<stop stop-color="#ACEDED"/>
<stop offset="1" stop-color="#008694"/>
</linearGradient>
<linearGradient id="paint64_linear" x1="1277.44" y1="1064.02" x2="1181.24" y2="1045.92" gradientUnits="userSpaceOnUse">
<stop stop-color="#ACEDED"/>
<stop offset="1" stop-color="#008694"/>
</linearGradient>
<clipPath id="clip0">
<rect width="1920" height="1080" fill="white"/>
</clipPath>
<clipPath id="clip1">
<rect width="169.6" height="169.8" fill="white" transform="translate(1112 211)"/>
</clipPath>
<clipPath id="clip2">
<rect width="74" height="74.0873" fill="white" transform="translate(1385 266.98) rotate(-56.8848)"/>
</clipPath>
<clipPath id="clip3">
<rect width="124.391" height="124.538" fill="white" transform="translate(1292.08 659) rotate(10.6815)"/>
</clipPath>
<clipPath id="clip4">
<rect width="89.7043" height="89.8101" fill="white" transform="translate(1542.09 785) rotate(61.7189)"/>
</clipPath>
<clipPath id="clip5">
<rect width="116.389" height="116.526" fill="white" transform="translate(1318.59 1056.27) rotate(128.329)"/>
</clipPath>
</defs>
</svg>
