<svg width="800" height="400" viewBox="0 -400 2880 1620" fill="none" xmlns="http://www.w3.org/2000/svg" style="border: 1px solid grey;">
	<defs>
		<style>
			.glowing-line {
				stroke: #62C35B;
				stroke-width: 1.24;
				stroke-miterlimit: 10;
				filter: url(#line-shadow);
			}

			.glowing-point {
				fill: #63C25D;
				filter: url(#point-filter);
			}

			#locator-trace {
				z-index: 10;
				transform-origin: 619px 516px;
				animation-name: locator-rotation;
				animation-duration: 10s;
				animation-iteration-count: infinite;
				animation-timing-function: linear;
			}

			@keyframes locator-rotation {
				0% {
						transform: rotate(0deg);
				}
				100% {
						transform: rotate(360deg);
				}
			}
		</style>
	</defs>
	<path id="locator-trace"
		d="M419 174.59C473.667 143.028 535.028 124.852 598.066 121.549C661.103 118.245 724.028 129.907 781.695 155.582L619 521L419 174.59Z"
		fill="url(#locator-trace-linear)" />
	<circle id="Vector" cx="619" cy="516" r="258" fill="url(#center-shadow)" />
	<!-- ● -->
	<circle id="center" cx="619" cy="516" r="25" fill="#2DA000" />
	<!-- ——————————— -->
	<circle id="c1" cx="618.5" cy="515.5" r="32" stroke="#2DA000" />
	<!-- ⚊⚊⚊⚊⚊⚊⚊⚊⚊⚊⚊⚊⚊⚊⚊ -->
	<circle id="c2" cx="619" cy="516" r="83.5" stroke="#2DA000" stroke-width="3" />
	<g id="rays">
		<line id="Line 45" x1="619" y1="822.001" x2="619" y2="216" stroke="#2DA000" stroke-width="2" />
		<line id="Line 46" x1="316" y1="517" x2="921" y2="517" stroke="#2DA000" stroke-width="2" />
		<path id="Line 47" d="M281.709 179.294L728.709 627.294" stroke="#2DA000" stroke-width="2" />
		<path id="Line 48" d="M441.849 232.472L619 517" stroke="#2DA000" stroke-width="2" />
		<path id="Line 49" d="M770.947 67.321L530.947 778.321" stroke="#2DA000" stroke-width="2" />
		<path id="Line 50" d="M293.247 435.031L619 517" stroke="#2DA000" stroke-width="2" />
		<path id="Line 51" d="M686.711 448.703L339.711 800.703" stroke="#2DA000" stroke-width="2" />
		<line id="Line 52" x1="742.293" y1="391.293" x2="882.293" y2="251.293" stroke="#2DA000" stroke-width="2" />
		<line id="Line 54" x1="761.699" y1="659.285" x2="932.699" y2="826.285" stroke="#2DA000" stroke-width="2" />
	</g>
	<!-- ||||||||||||||||||||||| -->
	<circle id="c3-dot" cx="619" cy="516" r="115" stroke="#2DA000" stroke-width="6" stroke-dasharray="2 8" />
	<!-- —————  ————————  ———— —— —————— -->
	<circle id="c4-dash" cx="619" cy="516" r="130" stroke="#1E9E00" stroke-width="5"
		stroke-dasharray="150 40 100 20 50 30 120 50" />
	<!-- ░░░░░░▒▒▒▓▓▓█████▓▓▓▒▒▒░░░░░░ -->
	<circle id="c5" cx="619" cy="516" r="174" stroke="url(#c5-linear)" stroke-width="30" />
	<!-- ■■■■■—————■■■■■————— -->
	<g id="c6">
		<circle id="c6-narrow" cx="619" cy="516" r="225" stroke="url(#c6_linear)" stroke-width="5" />
		<circle id="c6-wide" cx="619" cy="516" r="225" stroke="url(#c6_linear)" stroke-width="18"
			stroke-dasharray="360 360" stroke-dashoffset="360" />
	</g>
	<!-- —————— —————— —————— —————— —————— -->
	<circle id="c7" cx="619" cy="516" r="264" stroke="url(#c7_linear)" stroke-width="14"
		stroke-dasharray="188 16" />
	<!-- ................... -->
	<circle id="c8-dot" cx="619" cy="516" r="290" stroke="#4DAD49" stroke-width="4" stroke-dasharray="4 8" />
	<!-- ▮▮▮▮▮▮▮▮▮▮▮▮▮▮▮▮▮▮▮▮▮-->
	<circle id="c9-dash" cx="619" cy="516" r="352" stroke="url(#c9-radial)" stroke-width="56"
		stroke-dasharray="45 16" />
	<!-- *—————*  *———————*   *———* *——————————* -->
	<g id="c11">
		<g id="c11_5">
			<path id="c11_5-line" class="glowing-line" d="M331.9 793.6C263.8 721.4 222 623.6 222 516C222 352.7 318.2 212.2 456.3 149.2" />
			<circle id="c11_5_point-2" class="glowing-point" cx="456" cy="149" r="6" />
			<circle id="c11_5_point-1" class="glowing-point" cx="331" cy="793" r="6" />
		</g>
		<g id="c11_4">
			<path id="tendril-4_line1" class="glowing-line" d="M803 874L890 960H1008V1027L1047 1066H1237" />
			<circle id="tendril-4_point1" class="glowing-point" cx="1237" cy="1066" r="6" />
			<path id="c11_4-line" class="glowing-line" d="M802.1 872.9C747.3 901.7 685.1 918 619.2 918C564.6 918 512.6 906.8 465.2 886.7" />
			<circle id="c11_4-point-2" class="glowing-point" cx="465" cy="887" r="6" />
			<circle id="c11_4-point-1" class="glowing-point" cx="802" cy="873" r="6" />
		</g>
		<g id="c11_3">
			<path id="tendril-3_line2" class="glowing-line" d="M869 827L933 891H1212L1257.5 845.5H1523" />
			<circle id="tendril-3_point2" class="glowing-point" cx="1524" cy="846" r="6" />
			<path id="c11_3-line" class="glowing-line" d="M970.2 704.5C944.8 752.8 910 795.2 868.3 829.2" />
			<circle id="c11_3-point-2" class="glowing-point" cx="870" cy="827" r="6" />
			<circle id="c11_3-point-1" class="glowing-point" cx="970" cy="705" r="6" />
		</g>
		<g id="c11_2">
			<path id="tendril-2_line2" class="glowing-line" d="M995 645L1079.5 730.5L1342.5 731.5" />
			<circle id="tendril-2_point2" class="glowing-point" cx="1342" cy="732" r="6" />
			<path id="tendril-2_line1" class="glowing-line" d="M985 358H1340L1436.5 262" />
			<circle id="tendril-2_point1" class="glowing-point" cx="1436" cy="261" r="6" />
			<path id="c11_2-line" class="glowing-line" d="M984.9 358.8C1005.2 407.1 1016.4 460.2 1016.4 516C1016.4 562.4 1008.6 607 994.3 648.5" />
			<circle id="c11_2-point2" class="glowing-point" cx="995" cy="645" r="6" />
			<circle id="c11_2-point1" class="glowing-point" cx="985" cy="358" r="6" />
		</g>
		<g id="c11_1">
			<path id="tendril-1_line" class="glowing-line" d="M906 235H1135.5L1196.5 296" />
			<circle id="tendril-1_point2" class="glowing-point" cx="1197" cy="297" r="6" />
			<circle id="c11_1-point2" class="glowing-point" cx="906" cy="236" r="6" />
			<path id="c11_1-line" class="glowing-line" d="M501.1 132.1C538.4 120.4 578.1 114 619.2 114C731.7 114 833.2 161.3 905.5 237.3" />
			<circle id="c11_1-point1" class="glowing-point" cx="501" cy="132" r="6" />
		</g>
	</g>
	<defs>
		<filter id="point-filter" x="-150%" y="-150%" width="400%" height="400%" filterUnits="objectBoundingBox"
			color-interpolation-filters="sRGB">
			<feFlood flood-opacity="0" result="BackgroundImageFix" />
			<feColorMatrix in="SourceAlpha" type="matrix" values="0 0 0 0 0 0 0 0 0 0 0 0 0 0 0 0 0 0 127 0" />
			<feOffset />
			<feGaussianBlur stdDeviation="7.5" />
			<feColorMatrix type="matrix" values="0 0 0 0 0.0791494 0 0 0 0 0.979167 0 0 0 0 0.493157 0 0 0 1 0" />
			<feBlend mode="normal" in2="BackgroundImageFix" result="effect1_dropShadow" />
			<feBlend mode="normal" in="SourceGraphic" in2="effect1_dropShadow" result="shape" />
		</filter>
		<filter id="line-shadow" x="211.38" y="103.38" width="1328.62" height="978.62" filterUnits="userSpaceOnUse"
			color-interpolation-filters="sRGB">
			<feFlood flood-opacity="0" result="BackgroundImageFix" />
			<feColorMatrix in="SourceAlpha" type="matrix" values="0 0 0 0 0 0 0 0 0 0 0 0 0 0 0 0 0 0 127 0" />
			<feOffset />
			<feGaussianBlur stdDeviation="5" />
			<feColorMatrix type="matrix" values="0 0 0 0 0.316171 0 0 0 0 0.8125 0 0 0 0 0.0826042 0 0 0 1 0" />
			<feBlend mode="normal" in2="BackgroundImageFix" result="effect1_dropShadow" />
			<feBlend mode="normal" in="SourceGraphic" in2="effect1_dropShadow" result="shape" />
		</filter>
		<linearGradient id="locator-trace-linear" x1="471" y1="166" x2="791" y2="162.001"
			gradientUnits="userSpaceOnUse">
			<stop offset="1.08255e-07" stop-opacity="0" />
			<stop offset="1" stop-color="#4CB648" />
		</linearGradient>
		<radialGradient id="center-shadow" cx="0" cy="0" r="1" gradientUnits="userSpaceOnUse"
			gradientTransform="translate(616.992 510.966) rotate(1.0301) scale(280.026 280.066)">
			<stop offset="0.534375" stop-color="#006A09" stop-opacity="0" />
			<stop offset="0.711458" stop-color="#108B11" stop-opacity="0.3" />
			<stop offset="1" stop-color="#0E210F" stop-opacity="0" />
		</radialGradient>
		<radialGradient id="c9-radial" cx="0" cy="0" r="1" gradientUnits="userSpaceOnUse"
			gradientTransform="translate(617 515) rotate(-180) scale(377 378)">
			<stop offset="0.831962" stop-color="#01963D" stop-opacity="0.4" />
			<stop offset="1" stop-color="#019634" stop-opacity="0" />
		</radialGradient>
		<linearGradient id="c5-linear" x1="802.32" y1="515.451" x2="616.181" y2="515.451"
			gradientUnits="userSpaceOnUse">
			<stop offset="1.08255e-07" stop-color="#2DA000" />
			<stop offset="1" stop-color="#289400" stop-opacity="0" />
		</linearGradient>
		<linearGradient id="c6_linear" x1="849.984" y1="515.991" x2="388" y2="515.991"
			gradientUnits="userSpaceOnUse">
			<stop stop-color="#87A000" />
			<stop offset="1" stop-color="#006A06" />
		</linearGradient>
		<linearGradient id="c7_linear" x1="888.016" y1="492.466" x2="375.35" y2="537.318"
			gradientUnits="userSpaceOnUse">
			<stop stop-color="#299601" />
			<stop offset="0.747917" stop-color="#68E03B" stop-opacity="0" />
		</linearGradient>
	</defs>
</svg>