<svg width="470" height="98" viewBox="0 0 470 98" fill="none" xmlns="http://www.w3.org/2000/svg">
<g filter="url(#filter0_d)">
<path d="M52.8571 9L10 49L52.8571 89H417.143L460 49L417.143 9H52.8571Z" stroke="#24F2FF" stroke-width="2"/>
</g>
<path d="M163.032 37.2V61H159.7V40.158H145.896V61H142.53V37.2H163.032ZM181.436 37.2C184.518 37.2 186.944 37.9367 188.712 39.41C190.48 40.8833 191.364 42.912 191.364 45.496C191.364 48.08 190.48 50.1087 188.712 51.582C186.944 53.0553 184.518 53.792 181.436 53.792H175.554V61H172.154V37.2H181.436ZM181.334 50.834C183.487 50.834 185.13 50.3807 186.264 49.474C187.397 48.5447 187.964 47.2187 187.964 45.496C187.964 43.7733 187.397 42.4587 186.264 41.552C185.13 40.6227 183.487 40.158 181.334 40.158H175.554V50.834H181.334ZM212.068 55.05H199.42L196.802 61H193.3L204.078 37.2H207.444L218.256 61H214.686L212.068 55.05ZM210.878 52.33L205.744 40.668L200.61 52.33H210.878ZM238.887 48.658C240.497 49.0433 241.709 49.7347 242.525 50.732C243.364 51.7067 243.783 52.9647 243.783 54.506C243.783 56.5687 243.024 58.1667 241.505 59.3C240.009 60.4333 237.822 61 234.943 61H224.063V37.2H234.297C236.904 37.2 238.933 37.7327 240.383 38.798C241.857 39.8407 242.593 41.348 242.593 43.32C242.593 44.612 242.265 45.7113 241.607 46.618C240.973 47.5247 240.066 48.2047 238.887 48.658ZM227.429 47.672H234.059C235.714 47.672 236.972 47.3433 237.833 46.686C238.717 46.0287 239.159 45.0653 239.159 43.796C239.159 42.5267 238.717 41.5633 237.833 40.906C236.949 40.226 235.691 39.886 234.059 39.886H227.429V47.672ZM234.875 58.314C238.525 58.314 240.349 56.954 240.349 54.234C240.349 52.874 239.885 51.8767 238.955 51.242C238.049 50.5847 236.689 50.256 234.875 50.256H227.429V58.314H234.875ZM251.164 37.2H254.53V55.56L268.606 37.2H271.734V61H268.402V42.674L254.292 61H251.164V37.2ZM300.003 37.2V61H296.671V40.158H286.131L285.893 47.128C285.78 50.4147 285.508 53.078 285.077 55.118C284.669 57.158 284.012 58.6993 283.105 59.742C282.199 60.762 280.975 61.272 279.433 61.272C278.731 61.272 278.017 61.1813 277.291 61L277.529 57.974C277.892 58.0647 278.255 58.11 278.617 58.11C279.592 58.11 280.374 57.7247 280.963 56.954C281.553 56.1607 281.995 54.982 282.289 53.418C282.584 51.854 282.777 49.7913 282.867 47.23L283.241 37.2H300.003ZM324.587 55.05H311.939L309.321 61H305.819L316.597 37.2H319.963L330.775 61H327.205L324.587 55.05ZM323.397 52.33L318.263 40.668L313.129 52.33H323.397Z" fill="#24F2FF"/>
<defs>
<filter id="filter0_d" x="0.534393" y="0" width="468.931" height="98" filterUnits="userSpaceOnUse" color-interpolation-filters="sRGB">
<feFlood flood-opacity="0" result="BackgroundImageFix"/>
<feColorMatrix in="SourceAlpha" type="matrix" values="0 0 0 0 0 0 0 0 0 0 0 0 0 0 0 0 0 0 127 0"/>
<feOffset/>
<feGaussianBlur stdDeviation="4"/>
<feColorMatrix type="matrix" values="0 0 0 0 0.141667 0 0 0 0 0.9485 0 0 0 0 1 0 0 0 1 0"/>
<feBlend mode="normal" in2="BackgroundImageFix" result="effect1_dropShadow"/>
<feBlend mode="normal" in="SourceGraphic" in2="effect1_dropShadow" result="shape"/>
</filter>
</defs>
</svg>
