<svg width="470" height="98" viewBox="0 0 470 98" fill="none" xmlns="http://www.w3.org/2000/svg">
<g filter="url(#filter0_d)">
<path d="M52.8571 9L10 49L52.8571 89H417.143L460 49L417.143 9H52.8571Z" stroke="#24F2FF" stroke-width="2"/>
</g>
<path d="M176.501 40.158H168.341V61H165.009V40.158H156.883V37.2H176.501V40.158ZM199.606 58.042V61H182.334V37.2H199.13V40.158H185.734V47.468H197.668V50.358H185.734V58.042H199.606ZM217.255 61.272C214.853 61.272 212.688 60.7507 210.761 59.708C208.835 58.6427 207.316 57.1807 206.205 55.322C205.117 53.4633 204.573 51.3893 204.573 49.1C204.573 46.8107 205.117 44.7367 206.205 42.878C207.316 41.0193 208.835 39.5687 210.761 38.526C212.688 37.4607 214.853 36.928 217.255 36.928C219.635 36.928 221.789 37.4607 223.715 38.526C225.642 39.5687 227.149 41.0193 228.237 42.878C229.325 44.714 229.869 46.788 229.869 49.1C229.869 51.412 229.325 53.4973 228.237 55.356C227.149 57.192 225.642 58.6427 223.715 59.708C221.789 60.7507 219.635 61.272 217.255 61.272ZM217.255 58.246C219.001 58.246 220.565 57.8493 221.947 57.056C223.353 56.2627 224.452 55.1747 225.245 53.792C226.061 52.3867 226.469 50.8227 226.469 49.1C226.469 47.3773 226.061 45.8247 225.245 44.442C224.452 43.0367 223.353 41.9373 221.947 41.144C220.565 40.3507 219.001 39.954 217.255 39.954C215.51 39.954 213.923 40.3507 212.495 41.144C211.09 41.9373 209.979 43.0367 209.163 44.442C208.37 45.8247 207.973 47.3773 207.973 49.1C207.973 50.8227 208.37 52.3867 209.163 53.792C209.979 55.1747 211.09 56.2627 212.495 57.056C213.923 57.8493 215.51 58.246 217.255 58.246ZM246.348 37.2C249.43 37.2 251.856 37.9367 253.624 39.41C255.392 40.8833 256.276 42.912 256.276 45.496C256.276 48.08 255.392 50.1087 253.624 51.582C251.856 53.0553 249.43 53.792 246.348 53.792H240.466V61H237.066V37.2H246.348ZM246.246 50.834C248.399 50.834 250.042 50.3807 251.176 49.474C252.309 48.5447 252.876 47.2187 252.876 45.496C252.876 43.7733 252.309 42.4587 251.176 41.552C250.042 40.6227 248.399 40.158 246.246 40.158H240.466V50.834H246.246ZM262.705 37.2H266.071V55.56L280.147 37.2H283.275V61H279.943V42.674L265.833 61H262.705V37.2ZM309.837 37.2V61H306.505V54.064H299.943C299.535 54.064 299.229 54.0527 299.025 54.03L294.265 61H290.661L295.931 53.452C294.231 52.8853 292.928 51.9447 292.021 50.63C291.115 49.2927 290.661 47.672 290.661 45.768C290.661 43.0707 291.523 40.974 293.245 39.478C294.991 37.9593 297.337 37.2 300.283 37.2H309.837ZM294.095 45.734C294.095 47.502 294.605 48.862 295.625 49.814C296.668 50.7433 298.198 51.208 300.215 51.208H306.505V40.158H300.419C298.379 40.158 296.815 40.634 295.727 41.586C294.639 42.538 294.095 43.9207 294.095 45.734Z" fill="#24F2FF"/>
<defs>
<filter id="filter0_d" x="0.534393" y="0" width="468.931" height="98" filterUnits="userSpaceOnUse" color-interpolation-filters="sRGB">
<feFlood flood-opacity="0" result="BackgroundImageFix"/>
<feColorMatrix in="SourceAlpha" type="matrix" values="0 0 0 0 0 0 0 0 0 0 0 0 0 0 0 0 0 0 127 0"/>
<feOffset/>
<feGaussianBlur stdDeviation="4"/>
<feColorMatrix type="matrix" values="0 0 0 0 0.141667 0 0 0 0 0.9485 0 0 0 0 1 0 0 0 1 0"/>
<feBlend mode="normal" in2="BackgroundImageFix" result="effect1_dropShadow"/>
<feBlend mode="normal" in="SourceGraphic" in2="effect1_dropShadow" result="shape"/>
</filter>
</defs>
</svg>
