<svg width="470" height="98" viewBox="0 0 470 98" fill="none" xmlns="http://www.w3.org/2000/svg">
<g filter="url(#filter0_d)">
<path d="M52.8571 9L10 49L52.8571 89H417.143L460 49L417.143 9H52.8571Z" stroke="#24F2FF" stroke-width="2"/>
</g>
<path d="M164.613 37.2H167.979V55.56L182.055 37.2H185.183V61H181.851V42.674L167.741 61H164.613V37.2ZM209.875 40.158H197.635L197.669 61H194.303V37.2H209.909L209.875 40.158ZM224.942 37.2C228.024 37.2 230.45 37.9367 232.218 39.41C233.986 40.8833 234.87 42.912 234.87 45.496C234.87 48.08 233.986 50.1087 232.218 51.582C230.45 53.0553 228.024 53.792 224.942 53.792H219.06V61H215.66V37.2H224.942ZM224.84 50.834C226.993 50.834 228.636 50.3807 229.77 49.474C230.903 48.5447 231.47 47.2187 231.47 45.496C231.47 43.7733 230.903 42.4587 229.77 41.552C228.636 40.6227 226.993 40.158 224.84 40.158H219.06V50.834H224.84ZM255.574 55.05H242.926L240.308 61H236.806L247.584 37.2H250.95L261.762 61H258.192L255.574 55.05ZM254.384 52.33L249.25 40.668L244.116 52.33H254.384ZM282.728 40.158H274.568V61H271.236V40.158H263.11V37.2H282.728V40.158ZM298.998 45.496C301.832 45.496 303.996 46.1307 305.492 47.4C307.011 48.6693 307.77 50.5393 307.77 53.01C307.77 55.6167 306.954 57.6 305.322 58.96C303.713 60.32 301.401 61 298.386 61H288.56V37.2H291.926V45.496H298.998ZM298.25 58.314C300.222 58.314 301.73 57.872 302.772 56.988C303.838 56.0813 304.37 54.778 304.37 53.078C304.37 49.814 302.33 48.182 298.25 48.182H291.926V58.314H298.25Z" fill="#24F2FF"/>
<defs>
<filter id="filter0_d" x="0.534393" y="0" width="468.931" height="98" filterUnits="userSpaceOnUse" color-interpolation-filters="sRGB">
<feFlood flood-opacity="0" result="BackgroundImageFix"/>
<feColorMatrix in="SourceAlpha" type="matrix" values="0 0 0 0 0 0 0 0 0 0 0 0 0 0 0 0 0 0 127 0"/>
<feOffset/>
<feGaussianBlur stdDeviation="4"/>
<feColorMatrix type="matrix" values="0 0 0 0 0.141667 0 0 0 0 0.9485 0 0 0 0 1 0 0 0 1 0"/>
<feBlend mode="normal" in2="BackgroundImageFix" result="effect1_dropShadow"/>
<feBlend mode="normal" in="SourceGraphic" in2="effect1_dropShadow" result="shape"/>
</filter>
</defs>
</svg>
