<svg width="470" height="98" viewBox="0 0 470 98" fill="none" xmlns="http://www.w3.org/2000/svg">
<g filter="url(#filter0_d)">
<path d="M52.8571 9L10 49L52.8571 89H417.143L460 49L417.143 9H52.8571Z" stroke="#24F2FF" stroke-width="2"/>
</g>
<path d="M122.301 40.158H114.141V61H110.809V40.158H102.683V37.2H122.301V40.158ZM137.415 37.2C140.498 37.2 142.923 37.9367 144.691 39.41C146.459 40.8833 147.343 42.912 147.343 45.496C147.343 48.08 146.459 50.1087 144.691 51.582C142.923 53.0553 140.498 53.792 137.415 53.792H131.533V61H128.133V37.2H137.415ZM137.313 50.834C139.466 50.834 141.11 50.3807 142.243 49.474C143.376 48.5447 143.943 47.2187 143.943 45.496C143.943 43.7733 143.376 42.4587 142.243 41.552C141.11 40.6227 139.466 40.158 137.313 40.158H131.533V50.834H137.313ZM171.044 58.042V61H153.772V37.2H170.568V40.158H157.172V47.468H169.106V50.358H157.172V58.042H171.044ZM198.552 37.2V61H195.152V50.392H181.484V61H178.084V37.2H181.484V47.434H195.152V37.2H198.552ZM207.674 37.2H211.04V55.56L225.116 37.2H228.244V61H224.912V42.674L210.802 61H207.674V37.2ZM246.647 37.2C249.729 37.2 252.155 37.9367 253.923 39.41C255.691 40.8833 256.575 42.912 256.575 45.496C256.575 48.08 255.691 50.1087 253.923 51.582C252.155 53.0553 249.729 53.792 246.647 53.792H240.765V61H237.365V37.2H246.647ZM246.545 50.834C248.698 50.834 250.341 50.3807 251.475 49.474C252.608 48.5447 253.175 47.2187 253.175 45.496C253.175 43.7733 252.608 42.4587 251.475 41.552C250.341 40.6227 248.698 40.158 246.545 40.158H240.765V50.834H246.545ZM274.046 61.272C271.643 61.272 269.479 60.7507 267.552 59.708C265.625 58.6427 264.107 57.1807 262.996 55.322C261.908 53.4633 261.364 51.3893 261.364 49.1C261.364 46.8107 261.908 44.7367 262.996 42.878C264.107 41.0193 265.625 39.5687 267.552 38.526C269.479 37.4607 271.643 36.928 274.046 36.928C276.426 36.928 278.579 37.4607 280.506 38.526C282.433 39.5687 283.94 41.0193 285.028 42.878C286.116 44.714 286.66 46.788 286.66 49.1C286.66 51.412 286.116 53.4973 285.028 55.356C283.94 57.192 282.433 58.6427 280.506 59.708C278.579 60.7507 276.426 61.272 274.046 61.272ZM274.046 58.246C275.791 58.246 277.355 57.8493 278.738 57.056C280.143 56.2627 281.243 55.1747 282.036 53.792C282.852 52.3867 283.26 50.8227 283.26 49.1C283.26 47.3773 282.852 45.8247 282.036 44.442C281.243 43.0367 280.143 41.9373 278.738 41.144C277.355 40.3507 275.791 39.954 274.046 39.954C272.301 39.954 270.714 40.3507 269.286 41.144C267.881 41.9373 266.77 43.0367 265.954 44.442C265.161 45.8247 264.764 47.3773 264.764 49.1C264.764 50.8227 265.161 52.3867 265.954 53.792C266.77 55.1747 267.881 56.2627 269.286 57.056C270.714 57.8493 272.301 58.246 274.046 58.246ZM308.68 48.658C310.29 49.0433 311.502 49.7347 312.318 50.732C313.157 51.7067 313.576 52.9647 313.576 54.506C313.576 56.5687 312.817 58.1667 311.298 59.3C309.802 60.4333 307.615 61 304.736 61H293.856V37.2H304.09C306.697 37.2 308.726 37.7327 310.176 38.798C311.65 39.8407 312.386 41.348 312.386 43.32C312.386 44.612 312.058 45.7113 311.4 46.618C310.766 47.5247 309.859 48.2047 308.68 48.658ZM297.222 47.672H303.852C305.507 47.672 306.765 47.3433 307.626 46.686C308.51 46.0287 308.952 45.0653 308.952 43.796C308.952 42.5267 308.51 41.5633 307.626 40.906C306.742 40.226 305.484 39.886 303.852 39.886H297.222V47.672ZM304.668 58.314C308.318 58.314 310.142 56.954 310.142 54.234C310.142 52.874 309.678 51.8767 308.748 51.242C307.842 50.5847 306.482 50.256 304.668 50.256H297.222V58.314H304.668ZM329.253 50.528H324.289V61H320.957V37.2H324.289V47.536H329.321L336.801 37.2H340.439L331.939 48.726L340.847 61H336.971L329.253 50.528ZM361.17 55.05H348.522L345.904 61H342.402L353.18 37.2H356.546L367.358 61H363.788L361.17 55.05ZM359.98 52.33L354.846 40.668L349.712 52.33H359.98Z" fill="#24F2FF"/>
<defs>
<filter id="filter0_d" x="0.534393" y="0" width="468.931" height="98" filterUnits="userSpaceOnUse" color-interpolation-filters="sRGB">
<feFlood flood-opacity="0" result="BackgroundImageFix"/>
<feColorMatrix in="SourceAlpha" type="matrix" values="0 0 0 0 0 0 0 0 0 0 0 0 0 0 0 0 0 0 127 0"/>
<feOffset/>
<feGaussianBlur stdDeviation="4"/>
<feColorMatrix type="matrix" values="0 0 0 0 0.141667 0 0 0 0 0.9485 0 0 0 0 1 0 0 0 1 0"/>
<feBlend mode="normal" in2="BackgroundImageFix" result="effect1_dropShadow"/>
<feBlend mode="normal" in="SourceGraphic" in2="effect1_dropShadow" result="shape"/>
</filter>
</defs>
</svg>
