<svg viewBox="0 0 30 30" fill="none" xmlns="http://www.w3.org/2000/svg">
<path d="M20.2312 9.88629L15 4.57404L9.75937 9.89583L8.4375 8.55108L15 1.875L21.5625 8.55108L20.2312 9.88629Z" fill="#96C2AF"/>
<path fill-rule="evenodd" clip-rule="evenodd" d="M11.3542 15C11.3542 15.7211 11.568 16.426 11.9686 17.0255C12.3692 17.6251 12.9386 18.0924 13.6048 18.3683C14.271 18.6443 15.004 18.7165 15.7113 18.5758C16.4185 18.4351 17.0681 18.0879 17.578 17.578C18.0879 17.0681 18.4351 16.4185 18.5758 15.7113C18.7165 15.004 18.6443 14.271 18.3683 13.6048C18.0924 12.9386 17.6251 12.3692 17.0255 11.9686C16.426 11.568 15.7211 11.3542 15 11.3542C14.0331 11.3542 13.1057 11.7383 12.422 12.422C11.7383 13.1057 11.3542 14.0331 11.3542 15ZM16.8229 15C16.8229 15.3605 16.716 15.713 16.5157 16.0128C16.3154 16.3125 16.0307 16.5462 15.6976 16.6842C15.3645 16.8221 14.998 16.8582 14.6444 16.7879C14.2908 16.7175 13.9659 16.5439 13.711 16.289C13.4561 16.0341 13.2824 15.7092 13.2121 15.3556C13.1418 15.002 13.1779 14.6355 13.3158 14.3024C13.4538 13.9693 13.6875 13.6846 13.9872 13.4843C14.287 13.284 14.6395 13.1771 15 13.1771C15.4835 13.1771 15.9471 13.3691 16.289 13.711C16.6309 14.0529 16.8229 14.5165 16.8229 15Z" fill="#96C2AF"/>
<path d="M15 25.4292L9.75 20.1042L8.4375 21.4568L15 28.125L21.5625 21.4568L20.2406 20.1137L15 25.4292Z" fill="#96C2AF"/>
</svg>
