<svg width="380" height="84" viewBox="0 0 380 84" fill="none" xmlns="http://www.w3.org/2000/svg">
<path d="M42.2594 47.4216C43.2741 47.4216 44.0967 46.6007 44.0967 45.588C44.0967 44.5754 43.2741 43.7545 42.2594 43.7545C41.2446 43.7545 40.422 44.5754 40.422 45.588C40.422 46.6007 41.2446 47.4216 42.2594 47.4216Z" fill="white"/>
<path d="M50.1099 36.5871C51.632 36.5871 52.866 35.3558 52.866 33.8368C52.866 32.3179 51.632 31.0865 50.1099 31.0865C48.5878 31.0865 47.3539 32.3179 47.3539 33.8368C47.3539 35.3558 48.5878 36.5871 50.1099 36.5871Z" fill="white"/>
<path d="M57.9604 40.5042C59.4825 40.5042 60.7164 39.2729 60.7164 37.7539C60.7164 36.235 59.4825 35.0037 57.9604 35.0037C56.4383 35.0037 55.2043 36.235 55.2043 37.7539C55.2043 39.2729 56.4383 40.5042 57.9604 40.5042Z" fill="white"/>
<path d="M65.7275 44.4213C67.2496 44.4213 68.4835 43.19 68.4835 41.6711C68.4835 40.1521 67.2496 38.9208 65.7275 38.9208C64.2054 38.9208 62.9714 40.1521 62.9714 41.6711C62.9714 43.19 64.2054 44.4213 65.7275 44.4213Z" fill="white"/>
<path d="M57.9604 48.3383C59.4825 48.3383 60.7164 47.107 60.7164 45.5881C60.7164 44.0691 59.4825 42.8378 57.9604 42.8378C56.4383 42.8378 55.2043 44.0691 55.2043 45.5881C55.2043 47.107 56.4383 48.3383 57.9604 48.3383Z" fill="white"/>
<path d="M73.5781 48.3383C75.1002 48.3383 76.3341 47.107 76.3341 45.5881C76.3341 44.0691 75.1002 42.8378 73.5781 42.8378C72.0559 42.8378 70.822 44.0691 70.822 45.5881C70.822 47.107 72.0559 48.3383 73.5781 48.3383Z" fill="white"/>
<path d="M73.578 55.1724C74.5927 55.1724 75.4153 54.3515 75.4153 53.3389C75.4153 52.3263 74.5927 51.5054 73.578 51.5054C72.5632 51.5054 71.7406 52.3263 71.7406 53.3389C71.7406 54.3515 72.5632 55.1724 73.578 55.1724Z" fill="white"/>
<path d="M81.4285 51.3387C82.4433 51.3387 83.2659 50.5178 83.2659 49.5052C83.2659 48.4925 82.4433 47.6716 81.4285 47.6716C80.4138 47.6716 79.5912 48.4925 79.5912 49.5052C79.5912 50.5178 80.4138 51.3387 81.4285 51.3387Z" fill="white"/>
<path d="M81.4285 44.4213C82.9507 44.4213 84.1846 43.19 84.1846 41.6711C84.1846 40.1521 82.9507 38.9208 81.4285 38.9208C79.9064 38.9208 78.6725 40.1521 78.6725 41.6711C78.6725 43.19 79.9064 44.4213 81.4285 44.4213Z" fill="white"/>
<path d="M73.5781 40.5042C75.1002 40.5042 76.3341 39.2729 76.3341 37.7539C76.3341 36.235 75.1002 35.0037 73.5781 35.0037C72.0559 35.0037 70.822 36.235 70.822 37.7539C70.822 39.2729 72.0559 40.5042 73.5781 40.5042Z" fill="white"/>
<path d="M65.7275 51.3387C66.7422 51.3387 67.5649 50.5178 67.5649 49.5052C67.5649 48.4925 66.7422 47.6716 65.7275 47.6716C64.7127 47.6716 63.8901 48.4925 63.8901 49.5052C63.8901 50.5178 64.7127 51.3387 65.7275 51.3387Z" fill="white"/>
<path d="M81.4285 36.5871C82.9507 36.5871 84.1846 35.3558 84.1846 33.8368C84.1846 32.3179 82.9507 31.0865 81.4285 31.0865C79.9064 31.0865 78.6725 32.3179 78.6725 33.8368C78.6725 35.3558 79.9064 36.5871 81.4285 36.5871Z" fill="white"/>
<path d="M89.1956 31.8366C90.2104 31.8366 91.033 31.0157 91.033 30.0031C91.033 28.9905 90.2104 28.1696 89.1956 28.1696C88.1809 28.1696 87.3583 28.9905 87.3583 30.0031C87.3583 31.0157 88.1809 31.8366 89.1956 31.8366Z" fill="white"/>
<path d="M89.1956 47.4216C90.2104 47.4216 91.033 46.6007 91.033 45.588C91.033 44.5754 90.2104 43.7545 89.1956 43.7545C88.1809 43.7545 87.3583 44.5754 87.3583 45.588C87.3583 46.6007 88.1809 47.4216 89.1956 47.4216Z" fill="white"/>
<path d="M65.7275 35.6703C66.7422 35.6703 67.5649 34.8495 67.5649 33.8368C67.5649 32.8242 66.7422 32.0033 65.7275 32.0033C64.7127 32.0033 63.8901 32.8242 63.8901 33.8368C63.8901 34.8495 64.7127 35.6703 65.7275 35.6703Z" fill="white"/>
<path d="M57.9604 55.1724C58.9752 55.1724 59.7978 54.3515 59.7978 53.3389C59.7978 52.3263 58.9752 51.5054 57.9604 51.5054C56.9457 51.5054 56.123 52.3263 56.123 53.3389C56.123 54.3515 56.9457 55.1724 57.9604 55.1724Z" fill="white"/>
<path d="M50.1099 44.4213C51.632 44.4213 52.866 43.19 52.866 41.6711C52.866 40.1521 51.632 38.9208 50.1099 38.9208C48.5878 38.9208 47.3539 40.1521 47.3539 41.6711C47.3539 43.19 48.5878 44.4213 50.1099 44.4213Z" fill="white"/>
<path d="M42.2593 40.5042C43.7815 40.5042 45.0154 39.2729 45.0154 37.7539C45.0154 36.235 43.7815 35.0037 42.2593 35.0037C40.7372 35.0037 39.5033 36.235 39.5033 37.7539C39.5033 39.2729 40.7372 40.5042 42.2593 40.5042Z" fill="white"/>
<path d="M34.4923 50.5886C35.092 50.5886 35.578 50.1036 35.578 49.5052C35.578 48.9068 35.092 48.4218 34.4923 48.4218C33.8927 48.4218 33.4066 48.9068 33.4066 49.5052C33.4066 50.1036 33.8927 50.5886 34.4923 50.5886Z" fill="white"/>
<path d="M34.4923 42.7544C35.092 42.7544 35.578 42.2693 35.578 41.671C35.578 41.0726 35.092 40.5875 34.4923 40.5875C33.8927 40.5875 33.4066 41.0726 33.4066 41.671C33.4066 42.2693 33.8927 42.7544 34.4923 42.7544Z" fill="white"/>
<path d="M50.1099 50.5053C50.7095 50.5053 51.1956 50.0202 51.1956 49.4218C51.1956 48.8235 50.7095 48.3384 50.1099 48.3384C49.5103 48.3384 49.0242 48.8235 49.0242 49.4218C49.0242 50.0202 49.5103 50.5053 50.1099 50.5053Z" fill="white"/>
<path d="M50.1099 27.1695C50.7095 27.1695 51.1956 26.6844 51.1956 26.086C51.1956 25.4876 50.7095 25.0026 50.1099 25.0026C49.5103 25.0026 49.0242 25.4876 49.0242 26.086C49.0242 26.6844 49.5103 27.1695 50.1099 27.1695Z" fill="white"/>
<path d="M65.7274 58.3394C66.3271 58.3394 66.8131 57.8543 66.8131 57.2559C66.8131 56.6576 66.3271 56.1725 65.7274 56.1725C65.1278 56.1725 64.6417 56.6576 64.6417 57.2559C64.6417 57.8543 65.1278 58.3394 65.7274 58.3394Z" fill="white"/>
<path d="M42.2593 31.0866C42.8589 31.0866 43.345 30.6015 43.345 30.0031C43.345 29.4048 42.8589 28.9197 42.2593 28.9197C41.6597 28.9197 41.1736 29.4048 41.1736 30.0031C41.1736 30.6015 41.6597 31.0866 42.2593 31.0866Z" fill="white"/>
<path d="M57.9605 31.0866C58.5601 31.0866 59.0462 30.6015 59.0462 30.0031C59.0462 29.4048 58.5601 28.9197 57.9605 28.9197C57.3608 28.9197 56.8748 29.4048 56.8748 30.0031C56.8748 30.6015 57.3608 31.0866 57.9605 31.0866Z" fill="white"/>
<path d="M65.7274 58.3394C66.3271 58.3394 66.8131 57.8543 66.8131 57.2559C66.8131 56.6576 66.3271 56.1725 65.7274 56.1725C65.1278 56.1725 64.6417 56.6576 64.6417 57.2559C64.6417 57.8543 65.1278 58.3394 65.7274 58.3394Z" fill="white"/>
<path d="M104.813 38.8374C105.413 38.8374 105.899 38.3524 105.899 37.754C105.899 37.1556 105.413 36.6705 104.813 36.6705C104.214 36.6705 103.727 37.1556 103.727 37.754C103.727 38.3524 104.214 38.8374 104.813 38.8374Z" fill="white"/>
<path d="M89.1956 54.4224C89.7952 54.4224 90.2813 53.9373 90.2813 53.3389C90.2813 52.7406 89.7952 52.2555 89.1956 52.2555C88.596 52.2555 88.1099 52.7406 88.1099 53.3389C88.1099 53.9373 88.596 54.4224 89.1956 54.4224Z" fill="white"/>
<path d="M97.0462 36.5871C98.5683 36.5871 99.8022 35.3558 99.8022 33.8368C99.8022 32.3179 98.5683 31.0865 97.0462 31.0865C95.5241 31.0865 94.2902 32.3179 94.2902 33.8368C94.2902 35.3558 95.5241 36.5871 97.0462 36.5871Z" fill="white"/>
<path d="M89.1956 40.5042C90.7177 40.5042 91.9517 39.2729 91.9517 37.7539C91.9517 36.235 90.7177 35.0037 89.1956 35.0037C87.6735 35.0037 86.4396 36.235 86.4396 37.7539C86.4396 39.2729 87.6735 40.5042 89.1956 40.5042Z" fill="white"/>
<path d="M97.0462 50.5886C97.6458 50.5886 98.1319 50.1036 98.1319 49.5052C98.1319 48.9068 97.6458 48.4218 97.0462 48.4218C96.4465 48.4218 95.9604 48.9068 95.9604 49.5052C95.9604 50.1036 96.4465 50.5886 97.0462 50.5886Z" fill="white"/>
<path d="M97.0461 43.5046C98.0608 43.5046 98.8835 42.6837 98.8835 41.671C98.8835 40.6584 98.0608 39.8375 97.0461 39.8375C96.0314 39.8375 95.2087 40.6584 95.2087 41.671C95.2087 42.6837 96.0314 43.5046 97.0461 43.5046Z" fill="white"/>
<path d="M73.578 31.0866C74.1776 31.0866 74.6637 30.6015 74.6637 30.0031C74.6637 29.4048 74.1776 28.9197 73.578 28.9197C72.9784 28.9197 72.4923 29.4048 72.4923 30.0031C72.4923 30.6015 72.9784 31.0866 73.578 31.0866Z" fill="white"/>
<path d="M97.0462 27.1695C97.6458 27.1695 98.1319 26.6844 98.1319 26.086C98.1319 25.4876 97.6458 25.0026 97.0462 25.0026C96.4465 25.0026 95.9604 25.4876 95.9604 26.086C95.9604 26.6844 96.4465 27.1695 97.0462 27.1695Z" fill="white"/>
<path d="M104.813 31.0866C105.413 31.0866 105.899 30.6015 105.899 30.0031C105.899 29.4048 105.413 28.9197 104.813 28.9197C104.214 28.9197 103.727 29.4048 103.727 30.0031C103.727 30.6015 104.214 31.0866 104.813 31.0866Z" fill="white"/>
<path d="M127.78 36.0871C128.031 35.5037 128.114 35.0036 127.947 34.6703C127.947 34.4202 127.613 34.2536 127.279 34.0869C126.444 33.7535 125.776 34.0869 125.358 35.1703L122.435 42.4211L118.259 34.9203C118.009 34.5036 117.758 34.0869 117.424 34.0869C117.09 33.9202 116.589 33.9202 116.255 34.0869C116.004 34.3369 115.754 34.6703 115.754 35.087C115.754 35.5037 115.754 35.9204 116.088 36.3371L121.099 45.1714C120.932 45.7548 120.681 46.2548 120.431 46.5048C120.18 46.7549 119.93 46.8382 119.596 46.8382H119.178C119.011 46.8382 118.844 46.8382 118.677 46.6715L118.176 46.5048C117.341 46.2548 116.923 46.5048 116.673 47.1716C116.339 48.005 116.673 48.505 117.508 49.0051C118.009 49.2551 118.76 49.4218 119.596 49.4218C120.681 49.4218 121.517 49.0051 122.101 48.255C122.936 47.6716 123.521 46.4215 124.189 44.9213L127.947 36.0037L127.78 36.0871ZM131.956 49.4218C132.374 49.4218 132.791 49.2551 132.958 48.9218C133.209 48.6717 133.376 48.3384 133.376 47.9217V42.7544H140.224V47.9217C140.224 48.3384 140.224 48.7551 140.475 48.9218C140.725 49.2551 141.059 49.3385 141.561 49.3385C141.978 49.3385 142.396 49.3385 142.563 48.9218C142.813 48.6717 142.98 48.3384 142.98 47.9217V35.4203C142.98 35.0036 142.813 34.5869 142.563 34.4202C142.312 34.0869 141.978 34.0035 141.561 34.0035C141.059 34.0035 140.725 34.0035 140.475 34.4202C140.224 34.6703 140.141 35.0036 140.141 35.4203V40.2542H133.209V35.4203C133.209 35.0036 133.042 34.5869 132.791 34.4202C132.541 34.0869 132.207 34.0035 131.789 34.0035C131.371 34.0035 130.954 34.0035 130.703 34.4202C130.536 34.6703 130.369 35.0036 130.369 35.4203V47.9217C130.369 48.3384 130.536 48.7551 130.703 48.9218C130.954 49.2551 131.371 49.3385 131.789 49.3385L131.956 49.4218ZM148.409 49.4218C148.826 49.4218 149.244 49.0884 149.745 48.5884L156.761 39.0041V47.9217C156.761 48.3384 156.761 48.7551 157.095 48.9218C157.429 49.2551 157.763 49.3385 158.264 49.3385C158.681 49.3385 159.099 49.3385 159.266 48.9218C159.517 48.6717 159.6 48.3384 159.6 47.9217V35.4203C159.6 34.5869 159.182 34.0035 158.264 34.0035C157.763 34.0035 157.429 34.2536 156.928 34.837L149.996 44.4213V35.4203C149.996 35.0036 149.829 34.5869 149.578 34.4202C149.328 34.0869 148.993 34.0035 148.576 34.0035C148.075 34.0035 147.741 34.0035 147.49 34.4202C147.24 34.6703 147.156 35.0036 147.156 35.4203V47.9217C147.156 48.3384 147.323 48.7551 147.574 49.0051C147.824 49.2551 148.158 49.3385 148.576 49.3385L148.409 49.4218ZM172.295 41.0876C172.796 40.8376 173.13 40.4209 173.547 39.9208C173.965 39.0874 174.132 38.5873 174.132 37.8373C174.132 35.1703 172.211 33.6702 168.453 33.6702C167.117 33.6702 165.947 33.8369 164.945 34.0869C164.11 34.0869 163.609 34.7536 163.609 35.587V47.6716C163.609 48.5051 163.943 49.0051 164.778 49.1718C165.864 49.4218 167.117 49.5052 168.536 49.5052C172.712 49.5052 174.717 47.8383 174.717 44.7547C174.717 43.9212 174.466 43.0878 173.881 42.4211C173.464 41.7543 172.879 41.3376 172.211 41.0043L172.295 41.0876ZM168.453 40.4209H166.198V36.2538H168.202C170.29 36.2538 171.209 36.9205 171.209 38.254C171.209 39.5875 170.374 40.3375 168.453 40.3375V40.4209ZM171.209 46.6715C170.624 46.9216 169.789 47.0882 168.703 47.0882H166.198V42.5044H168.703C170.875 42.5044 172.044 43.3378 172.044 44.838C172.044 45.6714 171.71 46.2548 171.209 46.5048V46.6715ZM188.33 49.0051C188.58 48.7551 188.664 48.505 188.664 48.1717C188.664 47.6716 188.497 47.3383 188.246 47.1716C187.996 46.9215 187.662 46.8382 187.244 46.8382H180.98V42.6711H185.824C186.242 42.6711 186.659 42.6711 186.826 42.3377C187.077 42.1711 187.161 41.8377 187.161 41.5043C187.161 41.0876 187.161 40.6709 186.826 40.5042C186.576 40.3375 186.242 40.1708 185.824 40.1708H180.98V36.5038H186.993C187.411 36.5038 187.829 36.5038 187.996 36.1704C188.246 35.9204 188.413 35.6704 188.413 35.337C188.413 34.837 188.246 34.5036 187.996 34.3369C187.745 34.0869 187.411 34.0035 186.993 34.0035H179.477C179.143 34.0035 178.642 34.0035 178.475 34.4202C178.224 34.6703 178.141 35.0036 178.141 35.4203V47.9217C178.141 48.3384 178.141 48.7551 178.558 48.9218C178.725 49.2551 179.059 49.3385 179.393 49.3385H187.161C187.578 49.3385 187.996 49.3385 188.163 49.0051H188.33ZM202.11 38.8374C202.11 37.1705 201.609 35.8371 200.44 35.087C199.604 34.2536 197.934 33.9202 196.264 33.9202C194.928 33.9202 193.758 34.0869 192.756 34.2536C191.921 34.4202 191.503 34.9203 191.503 35.9204V48.005C191.503 48.4217 191.503 48.8384 191.837 49.0051C192.088 49.3385 192.422 49.4218 192.923 49.4218C193.341 49.4218 193.758 49.4218 193.925 49.0051C194.176 48.7551 194.343 48.4217 194.343 48.005V44.0879H196.18C197.851 44.0879 199.27 43.7546 200.356 42.8378C201.442 42.0044 202.026 40.6709 202.026 38.9207L202.11 38.8374ZM194.343 36.5038L196.013 36.3371C198.185 36.3371 199.187 37.1705 199.187 38.8374C199.187 40.7542 198.101 41.5877 196.013 41.5877C195.178 41.5877 194.761 41.5877 194.343 41.421V36.4205V36.5038ZM214.637 46.0881C213.552 46.7549 212.466 46.9216 211.464 46.9216C210.211 46.9216 209.209 46.5882 208.374 45.5881C207.539 44.7547 207.121 43.3378 207.121 41.671C207.121 40.0042 207.539 38.754 208.29 37.7539C209.543 36.0871 211.631 35.8371 214.303 36.9205C215.139 37.2539 215.807 37.0872 215.974 36.5038C216.391 35.8371 216.224 35.2537 215.473 34.837C214.637 34.0035 213.134 33.7535 211.297 33.7535C209.125 33.7535 207.372 34.5869 206.119 35.9204C204.866 37.4206 204.198 39.2541 204.198 41.7543C204.198 44.2546 204.782 46.0881 205.868 47.5883C207.204 48.9218 208.958 49.6718 211.297 49.6718C213.134 49.6718 214.637 49.2551 215.807 48.3384C216.224 48.005 216.475 47.6716 216.642 47.2549C216.642 46.9216 216.642 46.5882 216.391 46.2548C216.057 45.7548 215.556 45.6714 214.721 46.0881H214.637ZM230.756 34.0035C230.255 34.0035 229.921 34.2536 229.42 34.837L222.488 44.4213V35.4203C222.488 35.0036 222.321 34.5869 222.07 34.4202C221.736 34.0869 221.402 34.0035 220.985 34.0035C220.484 34.0035 220.15 34.0035 219.899 34.4202C219.648 34.6703 219.565 35.0036 219.565 35.4203V47.9217C219.565 48.3384 219.565 48.7551 219.899 49.0051C220.15 49.2551 220.484 49.3385 220.901 49.3385C221.319 49.3385 221.736 49.0884 222.237 48.5051L229.253 39.0041V47.9217C229.253 48.3384 229.253 48.7551 229.587 48.9218C229.837 49.2551 230.172 49.3385 230.673 49.3385C231.09 49.3385 231.508 49.3385 231.675 48.9218C231.925 48.6717 232.009 48.3384 232.009 47.9217V35.4203C232.009 34.5869 231.508 34.0035 230.589 34.0035H230.756ZM247.794 35.2537C247.794 34.837 247.626 34.4202 247.376 34.4202C247.125 34.0869 246.791 34.0035 246.374 34.0035H235.934C235.517 34.0035 235.099 34.0035 234.932 34.3369C234.681 34.5036 234.598 34.837 234.598 35.1703C234.598 35.587 234.598 36.0037 234.848 36.1704C235.099 36.4205 235.433 36.5038 235.851 36.5038H239.692V47.9217C239.692 48.3384 239.859 48.7551 240.11 48.9218C240.361 49.2551 240.695 49.3385 241.196 49.3385C241.613 49.3385 242.031 49.3385 242.198 48.9218C242.448 48.6717 242.615 48.3384 242.615 47.9217V36.5038H246.374C246.791 36.5038 247.209 36.5038 247.376 36.1704C247.626 35.9204 247.794 35.587 247.794 35.337V35.2537ZM259.486 46.9216H253.055V42.7544H257.899C258.317 42.7544 258.734 42.5878 258.901 42.3377C259.152 42.1711 259.319 41.8377 259.319 41.5043C259.319 41.0876 259.152 40.6709 258.901 40.5042C258.651 40.3375 258.317 40.1708 257.899 40.1708H253.055V36.5038H259.152C259.569 36.5038 259.987 36.5038 260.154 36.1704C260.404 35.9204 260.488 35.6704 260.488 35.337C260.488 34.837 260.321 34.5036 260.07 34.3369C259.82 34.0869 259.486 34.0035 259.068 34.0035H251.552C251.134 34.0035 250.717 34.0035 250.55 34.4202C250.383 34.6703 250.215 35.0036 250.215 35.4203V47.9217C250.215 48.3384 250.383 48.7551 250.633 48.9218C250.967 49.2551 251.301 49.3385 251.802 49.3385H259.486C259.82 49.3385 260.154 49.3385 260.321 49.0051C260.655 48.7551 260.822 48.505 260.822 48.1717C260.822 47.6716 260.655 47.3383 260.404 47.1716C260.154 46.9215 259.82 46.8382 259.569 46.8382L259.486 46.9216ZM274.936 35.2537C274.936 34.837 274.769 34.4202 274.602 34.4202C274.352 34.0869 274.018 34.0035 273.6 34.0035H263.077C262.659 34.0035 262.409 34.0035 262.242 34.3369C261.908 34.5036 261.741 34.837 261.741 35.1703C261.741 35.587 261.908 36.0037 262.158 36.1704C262.158 36.4205 262.576 36.5038 262.993 36.5038H266.835V47.9217C266.835 48.3384 266.835 48.7551 267.169 48.9218C267.42 49.2551 267.837 49.3385 268.255 49.3385C268.673 49.3385 269.09 49.3385 269.257 48.9218C269.508 48.6717 269.675 48.3384 269.675 47.9217V36.5038H273.517C273.934 36.5038 274.352 36.5038 274.519 36.1704C274.686 35.9204 274.853 35.587 274.853 35.337L274.936 35.2537ZM296.066 47.9217V35.4203C296.066 34.5869 295.648 34.0035 294.73 34.0035C294.145 34.0035 293.644 34.2536 293.31 34.837L286.462 44.3379V35.4203C286.462 35.0036 286.295 34.5869 286.044 34.4202C285.793 34.0869 285.459 34.0035 284.958 34.0035C284.541 34.0035 284.123 34.0035 283.956 34.4202C283.706 34.6703 283.622 35.0036 283.622 35.4203V47.9217C283.622 48.3384 283.622 48.7551 283.956 49.0051C284.207 49.2551 284.541 49.3385 284.958 49.3385C285.376 49.3385 285.794 49.0884 286.211 48.5051L293.143 39.1707V48.0883C293.143 48.5051 293.394 48.9218 293.644 49.0884C293.895 49.4218 294.229 49.5052 294.73 49.5052C295.064 49.5052 295.398 49.5052 295.565 49.0884C295.899 48.8384 295.983 48.5051 295.983 48.0883L296.066 47.9217ZM310.264 34.0035H299.908C299.574 34.0035 299.24 34.0035 299.073 34.3369C298.739 34.5036 298.655 34.837 298.655 35.1703C298.655 35.587 298.655 36.0037 298.989 36.1704C299.156 36.4205 299.49 36.5038 299.824 36.5038H303.75V47.9217C303.75 48.3384 303.75 48.7551 304.084 48.9218C304.418 49.2551 304.752 49.3385 305.253 49.3385C305.67 49.3385 306.088 49.3385 306.255 48.9218C306.506 48.6717 306.673 48.3384 306.673 47.9217V36.5038H310.514C310.932 36.5038 311.35 36.5038 311.517 36.1704C311.767 35.9204 311.934 35.587 311.934 35.337C311.934 34.837 311.767 34.5036 311.517 34.3369C311.266 34.0869 310.932 34.0035 310.514 34.0035H310.264ZM326.967 34.0035C326.383 34.0035 325.965 34.2536 325.547 34.837L321.205 41.8377L316.778 34.9203C316.444 34.0869 315.943 33.9202 315.358 33.9202C314.941 33.9202 314.523 33.9202 314.356 34.2536C314.189 34.5036 314.022 34.9203 314.022 35.337V47.8383C314.022 48.6717 314.44 49.2551 315.358 49.2551C316.194 49.2551 316.695 48.7551 316.695 47.8383V39.3374L319.785 44.3379C320.035 44.7547 320.453 45.0047 321.037 45.0047C321.539 45.0047 321.873 44.7547 322.29 44.1713L325.38 39.1707V47.9217C325.38 48.3384 325.38 48.7551 325.714 48.9218C326.048 49.2551 326.383 49.3385 326.884 49.3385C327.301 49.3385 327.719 49.3385 327.886 48.9218C328.136 48.6717 328.303 48.3384 328.303 47.9217V35.4203C328.303 35.0036 328.303 34.5869 328.053 34.4202C327.802 34.0869 327.468 34.0035 327.051 34.0035H326.967ZM344.506 36.0037C343.086 34.5036 341.165 33.7535 338.994 33.7535C336.822 33.7535 334.818 34.5869 333.481 36.0037C332.145 37.5039 331.561 39.3374 331.561 41.671C331.561 44.0046 332.229 45.8381 333.565 47.3383C334.818 48.8384 336.655 49.5885 338.994 49.5885C341.165 49.5885 343.002 48.7551 344.339 47.3383C345.591 45.9214 346.259 44.0046 346.259 41.671C346.259 39.4208 345.591 37.5039 344.339 36.0037H344.506ZM342.167 45.5881C341.332 46.4215 340.33 47.0049 338.994 47.0049C337.49 47.0049 336.488 46.5048 335.653 45.5881C334.818 44.588 334.484 43.2545 334.484 41.671C334.484 40.0875 334.901 38.754 335.653 37.7539C336.488 36.9205 337.49 36.3371 338.994 36.3371C340.246 36.3371 341.332 36.8372 342.084 37.7539C342.919 38.754 343.253 40.0875 343.253 41.671C343.253 43.3378 343.002 44.588 342.167 45.5881V45.5881Z" fill="white"/>
</svg>
