<svg width="23" height="23" viewBox="0 0 23 23" fill="none" xmlns="http://www.w3.org/2000/svg">
<path fill-rule="evenodd" clip-rule="evenodd" d="M3.81013 16.082C4.80907 15.0451 6.16392 14.4625 7.57663 14.4625H15.4859C16.8986 14.4625 18.2534 15.0451 19.2524 16.082C20.2513 17.1189 20.8125 18.5253 20.8125 19.9918V22.3375H19.1984V19.9918C19.1984 18.9697 18.8072 17.9895 18.111 17.2668C17.4148 16.5441 16.4705 16.1381 15.4859 16.1381H7.57663C6.59201 16.1381 5.64773 16.5441 4.9515 17.2668C4.25527 17.9895 3.86413 18.9697 3.86413 19.9918V22.3375H2.25V19.9918C2.25 18.5253 2.8112 17.1189 3.81013 16.082Z" fill="#79CF76"/>
<path fill-rule="evenodd" clip-rule="evenodd" d="M11.5313 3.05911C9.4743 3.05911 7.80682 4.63884 7.80682 6.58752C7.80682 8.53621 9.4743 10.1159 11.5313 10.1159C13.5882 10.1159 15.2557 8.53621 15.2557 6.58752C15.2557 4.63884 13.5882 3.05911 11.5313 3.05911ZM6.1875 6.58752C6.1875 3.79158 8.57998 1.52502 11.5313 1.52502C14.4825 1.52502 16.875 3.79158 16.875 6.58752C16.875 9.38346 14.4825 11.65 11.5313 11.65C8.57998 11.65 6.1875 9.38346 6.1875 6.58752Z" fill="#79CF76"/>
</svg>
