<svg   viewBox="0 0 15 14"  xmlns="http://www.w3.org/2000/svg">
<path d="M6.58002 9.89803L10.0695 7.15578C10.0928 7.13727 10.1117 7.11372 10.1246 7.0869C10.1376 7.06008 10.1443 7.03069 10.1443 7.00091C10.1443 6.97113 10.1376 6.94173 10.1246 6.91491C10.1117 6.8881 10.0928 6.86455 10.0695 6.84603L6.58002 4.10203C6.45052 4.00053 6.25977 4.09153 6.25977 4.25603V9.74228C6.25977 9.90678 6.45052 9.99953 6.58002 9.89803Z" />
<path d="M14.2398 0H1.3598C1.05005 0 0.799805 0.25025 0.799805 0.56V13.44C0.799805 13.7498 1.05005 14 1.3598 14H14.2398C14.5496 14 14.7998 13.7498 14.7998 13.44V0.56C14.7998 0.25025 14.5496 0 14.2398 0ZM13.5398 12.74H2.0598V1.26H13.5398V12.74Z" />
</svg>
