<svg xmlns="http://www.w3.org/2000/svg" viewBox="0 0 1503.06 765.5"><defs><style>.cls-1,.cls-3{fill:#24f2ff;}.cls-2{fill:#c4c4c4;}.cls-3{fill-opacity:0.3;}</style></defs><title>Ресурс 4</title><g id="Слой_2" data-name="Слой 2"><g id="Диаграмма"><g id="Квантовые_числа" data-name="Квантовые числа"><path class="cls-1" d="M307.34,577.3v32.2h-6.12L285.16,590V609.5H277.8V577.3H284l16,19.55V577.3Z"/><rect class="cls-2" x="222.56" y="625.5" width="40" height="40"/><rect class="cls-2" x="272.56" y="625.5" width="40" height="40"/><rect class="cls-2" x="322.56" y="625.5" width="40" height="40"/><rect class="cls-2" x="272.56" y="675.5" width="40" height="40"/><rect class="cls-2" x="272.56" y="725.5" width="40" height="40"/><rect class="cls-2" x="322.56" y="675.5" width="40" height="40"/><rect class="cls-2" x="222.56" y="675.5" width="40" height="40"/><path class="cls-1" d="M598.5,577.3H606v26.13H622.1v6.07H598.5Z"/><rect class="cls-2" x="563.56" y="625.5" width="40" height="40"/><rect class="cls-2" x="613.56" y="625.5" width="40" height="40"/><rect class="cls-2" x="613.56" y="675.5" width="40" height="40"/><rect class="cls-2" x="563.56" y="675.5" width="40" height="40"/><path class="cls-1" d="M976.68,609.5l0-19.32-9.47,15.92H963.8l-9.43-15.51V609.5h-7V577.3h6.16l12.05,20,11.87-20h6.12l.09,32.2Zm12.47-14h3.24v11.36h7v2.64H989.15Z"/><rect class="cls-2" x="901.56" y="625.5" width="40" height="40"/><rect class="cls-2" x="951.56" y="625.5" width="40" height="40"/><rect class="cls-2" x="901.56" y="675.5" width="40" height="40"/><rect class="cls-2" x="951.56" y="675.5" width="40" height="40"/><rect class="cls-2" x="1001.56" y="625.5" width="40" height="40"/><rect class="cls-2" x="951.56" y="725.5" width="40" height="40"/><rect class="cls-2" x="1001.56" y="675.5" width="40" height="40"/><path class="cls-1" d="M880.61,697.94h-7v6.8h-5.16v-6.8h-6.92v-4.88h6.92v-6.8h5.16v6.8h7Z"/><path class="cls-1" d="M865.43,645.74h11.32v5H865.43Z"/><path class="cls-1" d="M1317.34,609.5l0-19.32-9.48,15.92h-3.35L1295,590.59V609.5h-7V577.3h6.17l12,20,11.87-20h6.12l.09,32.2Zm17.07.24a11.92,11.92,0,0,1-3.22-.44,7.74,7.74,0,0,1-2.48-1.18l1.1-2.44a7.51,7.51,0,0,0,2.14,1.06,7.94,7.94,0,0,0,2.48.4,4,4,0,0,0,2-.4,1.27,1.27,0,0,0,.66-1.1,1,1,0,0,0-.4-.82,2.65,2.65,0,0,0-1-.54c-.4-.13-1-.28-1.64-.44a22.61,22.61,0,0,1-2.62-.76,4.28,4.28,0,0,1-1.76-1.22,3.33,3.33,0,0,1-.72-2.24,3.85,3.85,0,0,1,.66-2.2,4.42,4.42,0,0,1,2-1.58,8.12,8.12,0,0,1,3.26-.58,10.93,10.93,0,0,1,2.62.32,7.69,7.69,0,0,1,2.24.92l-1,2.46a7.84,7.84,0,0,0-3.88-1.1,3.71,3.71,0,0,0-2,.44,1.34,1.34,0,0,0-.64,1.16,1.16,1.16,0,0,0,.74,1.08,12.72,12.72,0,0,0,2.3.68,22.61,22.61,0,0,1,2.62.76,4.2,4.2,0,0,1,1.74,1.2,3.22,3.22,0,0,1,.74,2.22,3.86,3.86,0,0,1-.68,2.2,4.53,4.53,0,0,1-2,1.56A8.12,8.12,0,0,1,1334.41,609.74Z"/><rect class="cls-2" x="1292.56" y="625.5" width="40" height="40"/><rect class="cls-2" x="1292.56" y="675.5" width="40" height="40"/><path d="M1319.22,647.83H1314v5.1h-3.87v-5.1h-5.19v-3.66h5.19v-5.1H1314v5.1h5.22Z"/><path d="M1307.83,694.18h8.49v3.75h-8.49Z"/></g><g id="Диаграмма-2" data-name="Диаграмма"><path class="cls-3" d="M34.27,496.79a1,1,0,0,0-1.42,0l-6.36,6.37a1,1,0,0,0,1.41,1.41l5.66-5.66,5.66,5.66a1,1,0,0,0,1.41-1.41Zm.29,26.71v-26h-2v26Z"/><path class="cls-3" d="M52.27,524.21a1,1,0,0,1-1.42,0l-6.36-6.37a1,1,0,1,1,1.41-1.41l5.66,5.66,5.66-5.66a1,1,0,0,1,1.41,1.41Zm.29-26.71v26h-2v-26Z"/><path class="cls-1" d="M22.56,490.5V490h-.5v.5Zm40,0h.5V490h-.5Zm0,40v.5h.5v-.5Zm-40,0h-.5v.5h.5Zm0-39.5h40v-1h-40Zm39.5-.5v40h1v-40Zm.5,39.5h-40v1h40Zm-39.5.5v-40h-1v40Z"/><path class="cls-3" d="M154.27,425.79a1,1,0,0,0-1.42,0l-6.36,6.37a1,1,0,1,0,1.41,1.41l5.66-5.66,5.66,5.66a1,1,0,1,0,1.41-1.41Zm.29,26.71v-26h-2v26Z"/><path class="cls-3" d="M172.27,453.21a1,1,0,0,1-1.42,0l-6.36-6.37a1,1,0,1,1,1.41-1.41l5.66,5.66,5.66-5.66a1,1,0,1,1,1.41,1.41Zm.29-26.71v26h-2v-26Z"/><path class="cls-1" d="M142.56,419.5V419h-.5v.5Zm40,0h.5V419h-.5Zm0,40v.5h.5v-.5Zm-40,0h-.5v.5h.5Zm0-39.5h40v-1h-40Zm39.5-.5v40h1v-40Zm.5,39.5h-40v1h40Zm-39.5.5v-40h-1v40Z"/><path class="cls-3" d="M354.27,356.79a1,1,0,0,0-1.42,0l-6.36,6.37a1,1,0,0,0,1.41,1.41l5.66-5.66,5.66,5.66a1,1,0,0,0,1.41-1.41Zm.29,26.71v-26h-2v26Z"/><path class="cls-3" d="M372.27,384.21a1,1,0,0,1-1.42,0l-6.36-6.37a1,1,0,0,1,1.41-1.41l5.66,5.66,5.66-5.66a1,1,0,0,1,1.41,1.41Zm.29-26.71v26h-2v-26Z"/><path class="cls-1" d="M342.56,350.5V350h-.5v.5Zm40,0h.5V350h-.5Zm0,40v.5h.5v-.5Zm-40,0h-.5v.5h.5Zm0-39.5h40v-1h-40Zm39.5-.5v40h1v-40Zm.5,39.5h-40v1h40Zm-39.5.5v-40h-1v40Z"/><path class="cls-3" d="M114.27,356.79a1,1,0,0,0-1.42,0l-6.36,6.37a1,1,0,1,0,1.41,1.41l5.66-5.66,5.66,5.66a1,1,0,1,0,1.41-1.41Zm.29,26.71v-26h-2v26Z"/><path class="cls-3" d="M132.27,384.21a1,1,0,0,1-1.42,0l-6.36-6.37a1,1,0,1,1,1.41-1.41l5.66,5.66,5.66-5.66a1,1,0,1,1,1.41,1.41Zm.29-26.71v26h-2v-26Z"/><path class="cls-1" d="M102.56,350.5V350h-.5v.5Zm40,0h.5V350h-.5Zm0,40v.5h.5v-.5Zm-40,0h-.5v.5h.5Zm0-39.5h40v-1h-40Zm39.5-.5v40h1v-40Zm.5,39.5h-40v1h40Zm-39.5.5v-40h-1v40Z"/><path class="cls-3" d="M154.27,356.79a1,1,0,0,0-1.42,0l-6.36,6.37a1,1,0,1,0,1.41,1.41l5.66-5.66,5.66,5.66a1,1,0,1,0,1.41-1.41Zm.29,26.71v-26h-2v26Z"/><path class="cls-3" d="M172.27,384.21a1,1,0,0,1-1.42,0l-6.36-6.37a1,1,0,1,1,1.41-1.41l5.66,5.66,5.66-5.66a1,1,0,1,1,1.41,1.41Zm.29-26.71v26h-2v-26Z"/><path class="cls-1" d="M142.56,350.5V350h-.5v.5Zm40,0h.5V350h-.5Zm0,40v.5h.5v-.5Zm-40,0h-.5v.5h.5Zm0-39.5h40v-1h-40Zm39.5-.5v40h1v-40Zm.5,39.5h-40v1h40Zm-39.5.5v-40h-1v40Z"/><path class="cls-3" d="M194.27,356.79a1,1,0,0,0-1.42,0l-6.36,6.37a1,1,0,1,0,1.41,1.41l5.66-5.66,5.66,5.66a1,1,0,1,0,1.41-1.41Zm.29,26.71v-26h-2v26Z"/><path class="cls-3" d="M212.27,384.21a1,1,0,0,1-1.42,0l-6.36-6.37a1,1,0,1,1,1.41-1.41l5.66,5.66,5.66-5.66a1,1,0,1,1,1.41,1.41Zm.29-26.71v26h-2v-26Z"/><path class="cls-1" d="M182.56,350.5V350h-.5v.5Zm40,0h.5V350h-.5Zm0,40v.5h.5v-.5Zm-40,0h-.5v.5h.5Zm0-39.5h40v-1h-40Zm39.5-.5v40h1v-40Zm.5,39.5h-40v1h40Zm-39.5.5v-40h-1v40Z"/><path class="cls-3" d="M314.27,286.79a1,1,0,0,0-1.42,0l-6.36,6.37a1,1,0,0,0,1.41,1.41l5.66-5.66,5.66,5.66a1,1,0,0,0,1.41-1.41Zm.29,26.71v-26h-2v26Z"/><path class="cls-3" d="M332.27,314.21a1,1,0,0,1-1.42,0l-6.36-6.37a1,1,0,0,1,1.41-1.41l5.66,5.66,5.66-5.66a1,1,0,0,1,1.41,1.41Zm.29-26.71v26h-2v-26Z"/><path class="cls-1" d="M302.56,280.5V280h-.5v.5Zm40,0h.5V280h-.5Zm0,40v.5h.5v-.5Zm-40,0h-.5v.5h.5Zm0-39.5h40v-1h-40Zm39.5-.5v40h1v-40Zm.5,39.5h-40v1h40Zm-39.5.5v-40h-1v40Z"/><path class="cls-3" d="M354.27,286.79a1,1,0,0,0-1.42,0l-6.36,6.37a1,1,0,0,0,1.41,1.41l5.66-5.66,5.66,5.66a1,1,0,0,0,1.41-1.41Zm.29,26.71v-26h-2v26Z"/><path class="cls-3" d="M372.27,314.21a1,1,0,0,1-1.42,0l-6.36-6.37a1,1,0,0,1,1.41-1.41l5.66,5.66,5.66-5.66a1,1,0,0,1,1.41,1.41Zm.29-26.71v26h-2v-26Z"/><path class="cls-1" d="M342.56,280.5V280h-.5v.5Zm40,0h.5V280h-.5Zm0,40v.5h.5v-.5Zm-40,0h-.5v.5h.5Zm0-39.5h40v-1h-40Zm39.5-.5v40h1v-40Zm.5,39.5h-40v1h40Zm-39.5.5v-40h-1v40Z"/><path class="cls-3" d="M394.27,286.79a1,1,0,0,0-1.42,0l-6.36,6.37a1,1,0,0,0,1.41,1.41l5.66-5.66,5.66,5.66a1,1,0,0,0,1.41-1.41Zm.29,26.71v-26h-2v26Z"/><path class="cls-3" d="M412.27,314.21a1,1,0,0,1-1.42,0l-6.36-6.37a1,1,0,0,1,1.41-1.41l5.66,5.66,5.66-5.66a1,1,0,0,1,1.41,1.41Zm.29-26.71v26h-2v-26Z"/><path class="cls-1" d="M382.56,280.5V280h-.5v.5Zm40,0h.5V280h-.5Zm0,40v.5h.5v-.5Zm-40,0h-.5v.5h.5Zm0-39.5h40v-1h-40Zm39.5-.5v40h1v-40Zm.5,39.5h-40v1h40Zm-39.5.5v-40h-1v40Z"/><path class="cls-3" d="M274.27,216.79a1,1,0,0,0-1.42,0l-6.36,6.37a1,1,0,1,0,1.41,1.41l5.66-5.66,5.66,5.66a1,1,0,1,0,1.41-1.41Zm.29,26.71v-26h-2v26Z"/><path class="cls-3" d="M292.27,244.21a1,1,0,0,1-1.42,0l-6.36-6.37a1,1,0,1,1,1.41-1.41l5.66,5.66,5.66-5.66a1,1,0,1,1,1.41,1.41Zm.29-26.71v26h-2v-26Z"/><path class="cls-1" d="M262.56,210.5V210h-.5v.5Zm40,0h.5V210h-.5Zm0,40v.5h.5v-.5Zm-40,0h-.5v.5h.5Zm0-39.5h40v-1h-40Zm39.5-.5v40h1v-40Zm.5,39.5h-40v1h40Zm-39.5.5v-40h-1v40Z"/><path class="cls-3" d="M314.27,216.79a1,1,0,0,0-1.42,0l-6.36,6.37a1,1,0,1,0,1.41,1.41l5.66-5.66,5.66,5.66a1,1,0,1,0,1.41-1.41Zm.29,26.71v-26h-2v26Z"/><path class="cls-3" d="M332.27,244.21a1,1,0,0,1-1.42,0l-6.36-6.37a1,1,0,1,1,1.41-1.41l5.66,5.66,5.66-5.66a1,1,0,1,1,1.41,1.41Zm.29-26.71v26h-2v-26Z"/><path class="cls-1" d="M302.56,210.5V210h-.5v.5Zm40,0h.5V210h-.5Zm0,40v.5h.5v-.5Zm-40,0h-.5v.5h.5Zm0-39.5h40v-1h-40Zm39.5-.5v40h1v-40Zm.5,39.5h-40v1h40Zm-39.5.5v-40h-1v40Z"/><path class="cls-3" d="M354.27,216.79a1,1,0,0,0-1.42,0l-6.36,6.37a1,1,0,1,0,1.41,1.41l5.66-5.66,5.66,5.66a1,1,0,1,0,1.41-1.41Zm.29,26.71v-26h-2v26Z"/><path class="cls-3" d="M372.27,244.21a1,1,0,0,1-1.42,0l-6.36-6.37a1,1,0,1,1,1.41-1.41l5.66,5.66,5.66-5.66a1,1,0,1,1,1.41,1.41Zm.29-26.71v26h-2v-26Z"/><path class="cls-1" d="M342.56,210.5V210h-.5v.5Zm40,0h.5V210h-.5Zm0,40v.5h.5v-.5Zm-40,0h-.5v.5h.5Zm0-39.5h40v-1h-40Zm39.5-.5v40h1v-40Zm.5,39.5h-40v1h40Zm-39.5.5v-40h-1v40Z"/><path class="cls-3" d="M394.27,216.79a1,1,0,0,0-1.42,0l-6.36,6.37a1,1,0,1,0,1.41,1.41l5.66-5.66,5.66,5.66a1,1,0,1,0,1.41-1.41Zm.29,26.71v-26h-2v26Z"/><path class="cls-3" d="M412.27,244.21a1,1,0,0,1-1.42,0l-6.36-6.37a1,1,0,1,1,1.41-1.41l5.66,5.66,5.66-5.66a1,1,0,1,1,1.41,1.41Zm.29-26.71v26h-2v-26Z"/><path class="cls-1" d="M382.56,210.5V210h-.5v.5Zm40,0h.5V210h-.5Zm0,40v.5h.5v-.5Zm-40,0h-.5v.5h.5Zm0-39.5h40v-1h-40Zm39.5-.5v40h1v-40Zm.5,39.5h-40v1h40Zm-39.5.5v-40h-1v40Z"/><path class="cls-3" d="M434.27,216.79a1,1,0,0,0-1.42,0l-6.36,6.37a1,1,0,1,0,1.41,1.41l5.66-5.66,5.66,5.66a1,1,0,1,0,1.41-1.41Zm.29,26.71v-26h-2v26Z"/><path class="cls-3" d="M452.27,244.21a1,1,0,0,1-1.42,0l-6.36-6.37a1,1,0,1,1,1.41-1.41l5.66,5.66,5.66-5.66a1,1,0,1,1,1.41,1.41Zm.29-26.71v26h-2v-26Z"/><path class="cls-1" d="M422.56,210.5V210h-.5v.5Zm40,0h.5V210h-.5Zm0,40v.5h.5v-.5Zm-40,0h-.5v.5h.5Zm0-39.5h40v-1h-40Zm39.5-.5v40h1v-40Zm.5,39.5h-40v1h40Zm-39.5.5v-40h-1v40Z"/><path class="cls-3" d="M634.27,286.79a1,1,0,0,0-1.42,0l-6.36,6.37a1,1,0,1,0,1.41,1.41l5.66-5.66,5.66,5.66a1,1,0,0,0,1.41-1.41Zm.29,26.71v-26h-2v26Z"/><path class="cls-3" d="M652.27,314.21a1,1,0,0,1-1.42,0l-6.36-6.37a1,1,0,1,1,1.41-1.41l5.66,5.66,5.66-5.66a1,1,0,0,1,1.41,1.41Zm.29-26.71v26h-2v-26Z"/><path class="cls-1" d="M622.56,280.5V280h-.5v.5Zm40,0h.5V280h-.5Zm0,40v.5h.5v-.5Zm-40,0h-.5v.5h.5Zm0-39.5h40v-1h-40Zm39.5-.5v40h1v-40Zm.5,39.5h-40v1h40Zm-39.5.5v-40h-1v40Z"/><path class="cls-3" d="M594.27,216.79a1,1,0,0,0-1.42,0l-6.36,6.37a1,1,0,1,0,1.41,1.41l5.66-5.66,5.66,5.66a1,1,0,0,0,1.41-1.41Zm.29,26.71v-26h-2v26Z"/><path class="cls-3" d="M612.27,244.21a1,1,0,0,1-1.42,0l-6.36-6.37a1,1,0,1,1,1.41-1.41l5.66,5.66,5.66-5.66a1,1,0,0,1,1.41,1.41Zm.29-26.71v26h-2v-26Z"/><path class="cls-1" d="M582.56,210.5V210h-.5v.5Zm40,0h.5V210h-.5Zm0,40v.5h.5v-.5Zm-40,0h-.5v.5h.5Zm0-39.5h40v-1h-40Zm39.5-.5v40h1v-40Zm.5,39.5h-40v1h40Zm-39.5.5v-40h-1v40Z"/><path class="cls-3" d="M634.27,216.79a1,1,0,0,0-1.42,0l-6.36,6.37a1,1,0,1,0,1.41,1.41l5.66-5.66,5.66,5.66a1,1,0,0,0,1.41-1.41Zm.29,26.71v-26h-2v26Z"/><path class="cls-3" d="M652.27,244.21a1,1,0,0,1-1.42,0l-6.36-6.37a1,1,0,1,1,1.41-1.41l5.66,5.66,5.66-5.66a1,1,0,0,1,1.41,1.41Zm.29-26.71v26h-2v-26Z"/><path class="cls-1" d="M622.56,210.5V210h-.5v.5Zm40,0h.5V210h-.5Zm0,40v.5h.5v-.5Zm-40,0h-.5v.5h.5Zm0-39.5h40v-1h-40Zm39.5-.5v40h1v-40Zm.5,39.5h-40v1h40Zm-39.5.5v-40h-1v40Z"/><path class="cls-3" d="M674.27,216.79a1,1,0,0,0-1.42,0l-6.36,6.37a1,1,0,1,0,1.41,1.41l5.66-5.66,5.66,5.66a1,1,0,0,0,1.41-1.41Zm.29,26.71v-26h-2v26Z"/><path class="cls-3" d="M692.27,244.21a1,1,0,0,1-1.42,0l-6.36-6.37a1,1,0,1,1,1.41-1.41l5.66,5.66,5.66-5.66a1,1,0,0,1,1.41,1.41Zm.29-26.71v26h-2v-26Z"/><path class="cls-1" d="M662.56,210.5V210h-.5v.5Zm40,0h.5V210h-.5Zm0,40v.5h.5v-.5Zm-40,0h-.5v.5h.5Zm0-39.5h40v-1h-40Zm39.5-.5v40h1v-40Zm.5,39.5h-40v1h40Zm-39.5.5v-40h-1v40Z"/><path class="cls-3" d="M554.27,146.79a1,1,0,0,0-1.42,0l-6.36,6.37a1,1,0,1,0,1.41,1.41l5.66-5.66,5.66,5.66a1,1,0,0,0,1.41-1.41Zm.29,26.71v-26h-2v26Z"/><path class="cls-3" d="M572.27,174.21a1,1,0,0,1-1.42,0l-6.36-6.37a1,1,0,1,1,1.41-1.41l5.66,5.66,5.66-5.66a1,1,0,0,1,1.41,1.41Zm.29-26.71v26h-2v-26Z"/><path class="cls-1" d="M542.56,140.5V140h-.5v.5Zm40,0h.5V140h-.5Zm0,40v.5h.5v-.5Zm-40,0h-.5v.5h.5Zm0-39.5h40v-1h-40Zm39.5-.5v40h1v-40Zm.5,39.5h-40v1h40Zm-39.5.5v-40h-1v40Z"/><path class="cls-3" d="M594.27,146.79a1,1,0,0,0-1.42,0l-6.36,6.37a1,1,0,1,0,1.41,1.41l5.66-5.66,5.66,5.66a1,1,0,0,0,1.41-1.41Zm.29,26.71v-26h-2v26Z"/><path class="cls-3" d="M612.27,174.21a1,1,0,0,1-1.42,0l-6.36-6.37a1,1,0,1,1,1.41-1.41l5.66,5.66,5.66-5.66a1,1,0,0,1,1.41,1.41Zm.29-26.71v26h-2v-26Z"/><path class="cls-1" d="M582.56,140.5V140h-.5v.5Zm40,0h.5V140h-.5Zm0,40v.5h.5v-.5Zm-40,0h-.5v.5h.5Zm0-39.5h40v-1h-40Zm39.5-.5v40h1v-40Zm.5,39.5h-40v1h40Zm-39.5.5v-40h-1v40Z"/><path class="cls-3" d="M634.27,146.79a1,1,0,0,0-1.42,0l-6.36,6.37a1,1,0,1,0,1.41,1.41l5.66-5.66,5.66,5.66a1,1,0,0,0,1.41-1.41Zm.29,26.71v-26h-2v26Z"/><path class="cls-3" d="M652.27,174.21a1,1,0,0,1-1.42,0l-6.36-6.37a1,1,0,1,1,1.41-1.41l5.66,5.66,5.66-5.66a1,1,0,0,1,1.41,1.41Zm.29-26.71v26h-2v-26Z"/><path class="cls-1" d="M622.56,140.5V140h-.5v.5Zm40,0h.5V140h-.5Zm0,40v.5h.5v-.5Zm-40,0h-.5v.5h.5Zm0-39.5h40v-1h-40Zm39.5-.5v40h1v-40Zm.5,39.5h-40v1h40Zm-39.5.5v-40h-1v40Z"/><path class="cls-3" d="M674.27,146.79a1,1,0,0,0-1.42,0l-6.36,6.37a1,1,0,1,0,1.41,1.41l5.66-5.66,5.66,5.66a1,1,0,0,0,1.41-1.41Zm.29,26.71v-26h-2v26Z"/><path class="cls-3" d="M692.27,174.21a1,1,0,0,1-1.42,0l-6.36-6.37a1,1,0,1,1,1.41-1.41l5.66,5.66,5.66-5.66a1,1,0,0,1,1.41,1.41Zm.29-26.71v26h-2v-26Z"/><path class="cls-1" d="M662.56,140.5V140h-.5v.5Zm40,0h.5V140h-.5Zm0,40v.5h.5v-.5Zm-40,0h-.5v.5h.5Zm0-39.5h40v-1h-40Zm39.5-.5v40h1v-40Zm.5,39.5h-40v1h40Zm-39.5.5v-40h-1v40Z"/><path class="cls-3" d="M714.27,146.79a1,1,0,0,0-1.42,0l-6.36,6.37a1,1,0,1,0,1.41,1.41l5.66-5.66,5.66,5.66a1,1,0,0,0,1.41-1.41Zm.29,26.71v-26h-2v26Z"/><path class="cls-3" d="M732.27,174.21a1,1,0,0,1-1.42,0l-6.36-6.37a1,1,0,1,1,1.41-1.41l5.66,5.66,5.66-5.66a1,1,0,0,1,1.41,1.41Zm.29-26.71v26h-2v-26Z"/><path class="cls-1" d="M702.56,140.5V140h-.5v.5Zm40,0h.5V140h-.5Zm0,40v.5h.5v-.5Zm-40,0h-.5v.5h.5Zm0-39.5h40v-1h-40Zm39.5-.5v40h1v-40Zm.5,39.5h-40v1h40Zm-39.5.5v-40h-1v40Z"/><path class="cls-3" d="M514.27,76.79a1,1,0,0,0-1.42,0l-6.36,6.37a1,1,0,0,0,1.41,1.41l5.66-5.66,5.66,5.66a1,1,0,0,0,1.41-1.41Zm.29,26.71v-26h-2v26Z"/><path class="cls-3" d="M532.27,104.21a1,1,0,0,1-1.42,0l-6.36-6.37a1,1,0,1,1,1.41-1.41l5.66,5.66,5.66-5.66a1,1,0,0,1,1.41,1.41Zm.29-26.71v26h-2v-26Z"/><path class="cls-1" d="M502.56,70.5V70h-.5v.5Zm40,0h.5V70h-.5Zm0,40v.5h.5v-.5Zm-40,0h-.5v.5h.5Zm0-39.5h40V70h-40Zm39.5-.5v40h1v-40Zm.5,39.5h-40v1h40Zm-39.5.5v-40h-1v40Z"/><path class="cls-3" d="M554.27,76.79a1,1,0,0,0-1.42,0l-6.36,6.37a1,1,0,1,0,1.41,1.41l5.66-5.66,5.66,5.66a1,1,0,0,0,1.41-1.41Zm.29,26.71v-26h-2v26Z"/><path class="cls-3" d="M572.27,104.21a1,1,0,0,1-1.42,0l-6.36-6.37a1,1,0,1,1,1.41-1.41l5.66,5.66,5.66-5.66a1,1,0,0,1,1.41,1.41Zm.29-26.71v26h-2v-26Z"/><path class="cls-1" d="M542.56,70.5V70h-.5v.5Zm40,0h.5V70h-.5Zm0,40v.5h.5v-.5Zm-40,0h-.5v.5h.5Zm0-39.5h40V70h-40Zm39.5-.5v40h1v-40Zm.5,39.5h-40v1h40Zm-39.5.5v-40h-1v40Z"/><path class="cls-3" d="M594.27,76.79a1,1,0,0,0-1.42,0l-6.36,6.37a1,1,0,1,0,1.41,1.41l5.66-5.66,5.66,5.66a1,1,0,0,0,1.41-1.41Zm.29,26.71v-26h-2v26Z"/><path class="cls-3" d="M612.27,104.21a1,1,0,0,1-1.42,0l-6.36-6.37a1,1,0,1,1,1.41-1.41l5.66,5.66,5.66-5.66a1,1,0,0,1,1.41,1.41Zm.29-26.71v26h-2v-26Z"/><path class="cls-1" d="M582.56,70.5V70h-.5v.5Zm40,0h.5V70h-.5Zm0,40v.5h.5v-.5Zm-40,0h-.5v.5h.5Zm0-39.5h40V70h-40Zm39.5-.5v40h1v-40Zm.5,39.5h-40v1h40Zm-39.5.5v-40h-1v40Z"/><path class="cls-3" d="M634.27,76.79a1,1,0,0,0-1.42,0l-6.36,6.37a1,1,0,1,0,1.41,1.41l5.66-5.66,5.66,5.66a1,1,0,0,0,1.41-1.41Zm.29,26.71v-26h-2v26Z"/><path class="cls-3" d="M652.27,104.21a1,1,0,0,1-1.42,0l-6.36-6.37a1,1,0,1,1,1.41-1.41l5.66,5.66,5.66-5.66a1,1,0,0,1,1.41,1.41Zm.29-26.71v26h-2v-26Z"/><path class="cls-1" d="M622.56,70.5V70h-.5v.5Zm40,0h.5V70h-.5Zm0,40v.5h.5v-.5Zm-40,0h-.5v.5h.5Zm0-39.5h40V70h-40Zm39.5-.5v40h1v-40Zm.5,39.5h-40v1h40Zm-39.5.5v-40h-1v40Z"/><path class="cls-3" d="M714.27,76.79a1,1,0,0,0-1.42,0l-6.36,6.37a1,1,0,1,0,1.41,1.41l5.66-5.66,5.66,5.66a1,1,0,0,0,1.41-1.41Zm.29,26.71v-26h-2v26Z"/><path class="cls-3" d="M732.27,104.21a1,1,0,0,1-1.42,0l-6.36-6.37a1,1,0,1,1,1.41-1.41l5.66,5.66,5.66-5.66a1,1,0,0,1,1.41,1.41Zm.29-26.71v26h-2v-26Z"/><path class="cls-1" d="M702.56,70.5V70h-.5v.5Zm40,0h.5V70h-.5Zm0,40v.5h.5v-.5Zm-40,0h-.5v.5h.5Zm0-39.5h40V70h-40Zm39.5-.5v40h1v-40Zm.5,39.5h-40v1h40Zm-39.5.5v-40h-1v40Z"/><path class="cls-3" d="M674.27,76.79a1,1,0,0,0-1.42,0l-6.36,6.37a1,1,0,1,0,1.41,1.41l5.66-5.66,5.66,5.66a1,1,0,0,0,1.41-1.41Zm.29,26.71v-26h-2v26Z"/><path class="cls-3" d="M692.27,104.21a1,1,0,0,1-1.42,0l-6.36-6.37a1,1,0,1,1,1.41-1.41l5.66,5.66,5.66-5.66a1,1,0,0,1,1.41,1.41Zm.29-26.71v26h-2v-26Z"/><path class="cls-1" d="M662.56,70.5V70h-.5v.5Zm40,0h.5V70h-.5Zm0,40v.5h.5v-.5Zm-40,0h-.5v.5h.5Zm0-39.5h40V70h-40Zm39.5-.5v40h1v-40Zm.5,39.5h-40v1h40Zm-39.5.5v-40h-1v40Z"/><path class="cls-3" d="M754.27,76.79a1,1,0,0,0-1.42,0l-6.36,6.37a1,1,0,1,0,1.41,1.41l5.66-5.66,5.66,5.66a1,1,0,0,0,1.41-1.41Zm.29,26.71v-26h-2v26Z"/><path class="cls-3" d="M772.27,104.21a1,1,0,0,1-1.42,0l-6.36-6.37a1,1,0,1,1,1.41-1.41l5.66,5.66,5.66-5.66a1,1,0,0,1,1.41,1.41Zm.29-26.71v26h-2v-26Z"/><path class="cls-1" d="M742.56,70.5V70h-.5v.5Zm40,0h.5V70h-.5Zm0,40v.5h.5v-.5Zm-40,0h-.5v.5h.5Zm0-39.5h40V70h-40Zm39.5-.5v40h1v-40Zm.5,39.5h-40v1h40Zm-39.5.5v-40h-1v40Z"/><path class="cls-3" d="M954.27,216.79a1,1,0,0,0-1.42,0l-6.36,6.37a1,1,0,1,0,1.41,1.41l5.66-5.66,5.66,5.66a1,1,0,0,0,1.41-1.41Zm.29,26.71v-26h-2v26Z"/><path class="cls-3" d="M972.27,244.21a1,1,0,0,1-1.42,0l-6.36-6.37a1,1,0,1,1,1.41-1.41l5.66,5.66,5.66-5.66a1,1,0,0,1,1.41,1.41Zm.29-26.71v26h-2v-26Z"/><path class="cls-1" d="M942.56,210.5V210h-.5v.5Zm40,0h.5V210h-.5Zm0,40v.5h.5v-.5Zm-40,0h-.5v.5h.5Zm0-39.5h40v-1h-40Zm39.5-.5v40h1v-40Zm.5,39.5h-40v1h40Zm-39.5.5v-40h-1v40Z"/><path class="cls-3" d="M914.27,146.79a1,1,0,0,0-1.42,0l-6.36,6.37a1,1,0,1,0,1.41,1.41l5.66-5.66,5.66,5.66a1,1,0,0,0,1.41-1.41Zm.29,26.71v-26h-2v26Z"/><path class="cls-3" d="M932.27,174.21a1,1,0,0,1-1.42,0l-6.36-6.37a1,1,0,1,1,1.41-1.41l5.66,5.66,5.66-5.66a1,1,0,0,1,1.41,1.41Zm.29-26.71v26h-2v-26Z"/><path class="cls-1" d="M902.56,140.5V140h-.5v.5Zm40,0h.5V140h-.5Zm0,40v.5h.5v-.5Zm-40,0h-.5v.5h.5Zm0-39.5h40v-1h-40Zm39.5-.5v40h1v-40Zm.5,39.5h-40v1h40Zm-39.5.5v-40h-1v40Z"/><path class="cls-3" d="M954.27,146.79a1,1,0,0,0-1.42,0l-6.36,6.37a1,1,0,1,0,1.41,1.41l5.66-5.66,5.66,5.66a1,1,0,0,0,1.41-1.41Zm.29,26.71v-26h-2v26Z"/><path class="cls-3" d="M972.27,174.21a1,1,0,0,1-1.42,0l-6.36-6.37a1,1,0,1,1,1.41-1.41l5.66,5.66,5.66-5.66a1,1,0,0,1,1.41,1.41Zm.29-26.71v26h-2v-26Z"/><path class="cls-1" d="M942.56,140.5V140h-.5v.5Zm40,0h.5V140h-.5Zm0,40v.5h.5v-.5Zm-40,0h-.5v.5h.5Zm0-39.5h40v-1h-40Zm39.5-.5v40h1v-40Zm.5,39.5h-40v1h40Zm-39.5.5v-40h-1v40Z"/><path class="cls-3" d="M994.27,146.79a1,1,0,0,0-1.42,0l-6.36,6.37a1,1,0,1,0,1.41,1.41l5.66-5.66,5.66,5.66a1,1,0,0,0,1.41-1.41Zm.29,26.71v-26h-2v26Z"/><path class="cls-3" d="M1012.27,174.21a1,1,0,0,1-1.42,0l-6.36-6.37a1,1,0,1,1,1.41-1.41l5.66,5.66,5.66-5.66a1,1,0,0,1,1.41,1.41Zm.29-26.71v26h-2v-26Z"/><path class="cls-1" d="M982.56,140.5V140h-.5v.5Zm40,0h.5V140h-.5Zm0,40v.5h.5v-.5Zm-40,0h-.5v.5h.5Zm0-39.5h40v-1h-40Zm39.5-.5v40h1v-40Zm.5,39.5h-40v1h40Zm-39.5.5v-40h-1v40Z"/><path class="cls-3" d="M874.27,76.79a1,1,0,0,0-1.42,0l-6.36,6.37a1,1,0,1,0,1.41,1.41l5.66-5.66,5.66,5.66a1,1,0,0,0,1.41-1.41Zm.29,26.71v-26h-2v26Z"/><path class="cls-3" d="M892.27,104.21a1,1,0,0,1-1.42,0l-6.36-6.37a1,1,0,1,1,1.41-1.41l5.66,5.66,5.66-5.66a1,1,0,0,1,1.41,1.41Zm.29-26.71v26h-2v-26Z"/><path class="cls-1" d="M862.56,70.5V70h-.5v.5Zm40,0h.5V70h-.5Zm0,40v.5h.5v-.5Zm-40,0h-.5v.5h.5Zm0-39.5h40V70h-40Zm39.5-.5v40h1v-40Zm.5,39.5h-40v1h40Zm-39.5.5v-40h-1v40Z"/><path class="cls-3" d="M914.27,76.79a1,1,0,0,0-1.42,0l-6.36,6.37a1,1,0,1,0,1.41,1.41l5.66-5.66,5.66,5.66a1,1,0,0,0,1.41-1.41Zm.29,26.71v-26h-2v26Z"/><path class="cls-3" d="M932.27,104.21a1,1,0,0,1-1.42,0l-6.36-6.37a1,1,0,1,1,1.41-1.41l5.66,5.66,5.66-5.66a1,1,0,0,1,1.41,1.41Zm.29-26.71v26h-2v-26Z"/><path class="cls-1" d="M902.56,70.5V70h-.5v.5Zm40,0h.5V70h-.5Zm0,40v.5h.5v-.5Zm-40,0h-.5v.5h.5Zm0-39.5h40V70h-40Zm39.5-.5v40h1v-40Zm.5,39.5h-40v1h40Zm-39.5.5v-40h-1v40Z"/><path class="cls-3" d="M954.27,76.79a1,1,0,0,0-1.42,0l-6.36,6.37a1,1,0,1,0,1.41,1.41l5.66-5.66,5.66,5.66a1,1,0,0,0,1.41-1.41Zm.29,26.71v-26h-2v26Z"/><path class="cls-3" d="M972.27,104.21a1,1,0,0,1-1.42,0l-6.36-6.37a1,1,0,1,1,1.41-1.41l5.66,5.66,5.66-5.66a1,1,0,0,1,1.41,1.41Zm.29-26.71v26h-2v-26Z"/><path class="cls-1" d="M942.56,70.5V70h-.5v.5Zm40,0h.5V70h-.5Zm0,40v.5h.5v-.5Zm-40,0h-.5v.5h.5Zm0-39.5h40V70h-40Zm39.5-.5v40h1v-40Zm.5,39.5h-40v1h40Zm-39.5.5v-40h-1v40Z"/><path class="cls-3" d="M994.27,76.79a1,1,0,0,0-1.42,0l-6.36,6.37a1,1,0,1,0,1.41,1.41l5.66-5.66,5.66,5.66a1,1,0,0,0,1.41-1.41Zm.29,26.71v-26h-2v26Z"/><path class="cls-3" d="M1012.27,104.21a1,1,0,0,1-1.42,0l-6.36-6.37a1,1,0,1,1,1.41-1.41l5.66,5.66,5.66-5.66a1,1,0,0,1,1.41,1.41Zm.29-26.71v26h-2v-26Z"/><path class="cls-1" d="M982.56,70.5V70h-.5v.5Zm40,0h.5V70h-.5Zm0,40v.5h.5v-.5Zm-40,0h-.5v.5h.5Zm0-39.5h40V70h-40Zm39.5-.5v40h1v-40Zm.5,39.5h-40v1h40Zm-39.5.5v-40h-1v40Z"/><path class="cls-3" d="M1034.27,76.79a1,1,0,0,0-1.42,0l-6.36,6.37a1,1,0,0,0,1.41,1.41l5.66-5.66,5.66,5.66a1,1,0,1,0,1.41-1.41Zm.29,26.71v-26h-2v26Z"/><path class="cls-3" d="M1052.27,104.21a1,1,0,0,1-1.42,0l-6.36-6.37a1,1,0,0,1,1.41-1.41l5.66,5.66,5.66-5.66a1,1,0,1,1,1.41,1.41Zm.29-26.71v26h-2v-26Z"/><path class="cls-1" d="M1022.56,70.5V70h-.5v.5Zm40,0h.5V70h-.5Zm0,40v.5h.5v-.5Zm-40,0h-.5v.5h.5Zm0-39.5h40V70h-40Zm39.5-.5v40h1v-40Zm.5,39.5h-40v1h40Zm-39.5.5v-40h-1v40Z"/><path class="cls-3" d="M1234.27,146.79a1,1,0,0,0-1.42,0l-6.36,6.37a1,1,0,0,0,1.41,1.41l5.66-5.66,5.66,5.66a1,1,0,1,0,1.41-1.41Zm.29,26.71v-26h-2v26Z"/><path class="cls-3" d="M1252.27,174.21a1,1,0,0,1-1.42,0l-6.36-6.37a1,1,0,0,1,1.41-1.41l5.66,5.66,5.66-5.66a1,1,0,1,1,1.41,1.41Zm.29-26.71v26h-2v-26Z"/><path class="cls-1" d="M1222.56,140.5V140h-.5v.5Zm40,0h.5V140h-.5Zm0,40v.5h.5v-.5Zm-40,0h-.5v.5h.5Zm0-39.5h40v-1h-40Zm39.5-.5v40h1v-40Zm.5,39.5h-40v1h40Zm-39.5.5v-40h-1v40Z"/><path class="cls-3" d="M1194.27,76.79a1,1,0,0,0-1.42,0l-6.36,6.37a1,1,0,0,0,1.41,1.41l5.66-5.66,5.66,5.66a1,1,0,1,0,1.41-1.41Zm.29,26.71v-26h-2v26Z"/><path class="cls-3" d="M1212.27,104.21a1,1,0,0,1-1.42,0l-6.36-6.37a1,1,0,0,1,1.41-1.41l5.66,5.66,5.66-5.66a1,1,0,1,1,1.41,1.41Zm.29-26.71v26h-2v-26Z"/><path class="cls-1" d="M1182.56,70.5V70h-.5v.5Zm40,0h.5V70h-.5Zm0,40v.5h.5v-.5Zm-40,0h-.5v.5h.5Zm0-39.5h40V70h-40Zm39.5-.5v40h1v-40Zm.5,39.5h-40v1h40Zm-39.5.5v-40h-1v40Z"/><path class="cls-3" d="M1234.27,76.79a1,1,0,0,0-1.42,0l-6.36,6.37a1,1,0,0,0,1.41,1.41l5.66-5.66,5.66,5.66a1,1,0,1,0,1.41-1.41Zm.29,26.71v-26h-2v26Z"/><path class="cls-3" d="M1252.27,104.21a1,1,0,0,1-1.42,0l-6.36-6.37a1,1,0,0,1,1.41-1.41l5.66,5.66,5.66-5.66a1,1,0,1,1,1.41,1.41Zm.29-26.71v26h-2v-26Z"/><path class="cls-1" d="M1222.56,70.5V70h-.5v.5Zm40,0h.5V70h-.5Zm0,40v.5h.5v-.5Zm-40,0h-.5v.5h.5Zm0-39.5h40V70h-40Zm39.5-.5v40h1v-40Zm.5,39.5h-40v1h40Zm-39.5.5v-40h-1v40Z"/><path class="cls-3" d="M1274.27,76.79a1,1,0,0,0-1.42,0l-6.36,6.37a1,1,0,0,0,1.41,1.41l5.66-5.66,5.66,5.66a1,1,0,1,0,1.41-1.41Zm.29,26.71v-26h-2v26Z"/><path class="cls-3" d="M1292.27,104.21a1,1,0,0,1-1.42,0l-6.36-6.37a1,1,0,0,1,1.41-1.41l5.66,5.66,5.66-5.66a1,1,0,1,1,1.41,1.41Zm.29-26.71v26h-2v-26Z"/><path class="cls-1" d="M1262.56,70.5V70h-.5v.5Zm40,0h.5V70h-.5Zm0,40v.5h.5v-.5Zm-40,0h-.5v.5h.5Zm0-39.5h40V70h-40Zm39.5-.5v40h1v-40Zm.5,39.5h-40v1h40Zm-39.5.5v-40h-1v40Z"/><path class="cls-3" d="M1434.27,76.79a1,1,0,0,0-1.42,0l-6.36,6.37a1,1,0,0,0,1.41,1.41l5.66-5.66,5.66,5.66a1,1,0,1,0,1.41-1.41Zm.29,26.71v-26h-2v26Z"/><path class="cls-3" d="M1452.27,104.21a1,1,0,0,1-1.42,0l-6.36-6.37a1,1,0,0,1,1.41-1.41l5.66,5.66,5.66-5.66a1,1,0,1,1,1.41,1.41Zm.29-26.71v26h-2v-26Z"/><path class="cls-1" d="M1422.56,70.5V70h-.5v.5Zm40,0h.5V70h-.5Zm0,40v.5h.5v-.5Zm-40,0h-.5v.5h.5Zm0-39.5h40V70h-40Zm39.5-.5v40h1v-40Zm.5,39.5h-40v1h40Zm-39.5.5v-40h-1v40Z"/><path class="cls-3" d="M1394.27,6.79a1,1,0,0,0-1.42,0l-6.36,6.37a1,1,0,0,0,1.41,1.41l5.66-5.66,5.66,5.66a1,1,0,1,0,1.41-1.41Zm.29,26.71V7.5h-2v26Z"/><path class="cls-3" d="M1412.27,34.21a1,1,0,0,1-1.42,0l-6.36-6.37a1,1,0,0,1,1.41-1.41l5.66,5.66,5.66-5.66a1,1,0,1,1,1.41,1.41Zm.29-26.71v26h-2V7.5Z"/><path class="cls-1" d="M1382.56.5V0h-.5V.5Zm40,0h.5V0h-.5Zm0,40V41h.5v-.5Zm-40,0h-.5V41h.5Zm0-39.5h40V0h-40Zm39.5-.5v40h1V.5Zm.5,39.5h-40v1h40Zm-39.5.5V.5h-1v40Z"/><path class="cls-3" d="M1434.27,6.79a1,1,0,0,0-1.42,0l-6.36,6.37a1,1,0,0,0,1.41,1.41l5.66-5.66,5.66,5.66a1,1,0,1,0,1.41-1.41Zm.29,26.71V7.5h-2v26Z"/><path class="cls-3" d="M1452.27,34.21a1,1,0,0,1-1.42,0l-6.36-6.37a1,1,0,0,1,1.41-1.41l5.66,5.66,5.66-5.66a1,1,0,1,1,1.41,1.41Zm.29-26.71v26h-2V7.5Z"/><path class="cls-1" d="M1422.56.5V0h-.5V.5Zm40,0h.5V0h-.5Zm0,40V41h.5v-.5Zm-40,0h-.5V41h.5Zm0-39.5h40V0h-40Zm39.5-.5v40h1V.5Zm.5,39.5h-40v1h40Zm-39.5.5V.5h-1v40Z"/><path class="cls-3" d="M1474.27,6.79a1,1,0,0,0-1.42,0l-6.36,6.37a1,1,0,0,0,1.41,1.41l5.66-5.66,5.66,5.66a1,1,0,1,0,1.41-1.41Zm.29,26.71V7.5h-2v26Z"/><path class="cls-3" d="M1492.27,34.21a1,1,0,0,1-1.42,0l-6.36-6.37a1,1,0,0,1,1.41-1.41l5.66,5.66,5.66-5.66a1,1,0,1,1,1.41,1.41Zm.29-26.71v26h-2V7.5Z"/><path class="cls-1" d="M1462.56.5V0h-.5V.5Zm40,0h.5V0h-.5Zm0,40V41h.5v-.5Zm-40,0h-.5V41h.5Zm0-39.5h40V0h-40Zm39.5-.5v40h1V.5Zm.5,39.5h-40v1h40Zm-39.5.5V.5h-1v40Z"/><path class="cls-3" d="M1154.27,6.79a1,1,0,0,0-1.42,0l-6.36,6.37a1,1,0,0,0,1.41,1.41l5.66-5.66,5.66,5.66a1,1,0,1,0,1.41-1.41Zm.29,26.71V7.5h-2v26Z"/><path class="cls-3" d="M1172.27,34.21a1,1,0,0,1-1.42,0l-6.36-6.37a1,1,0,0,1,1.41-1.41l5.66,5.66,5.66-5.66a1,1,0,1,1,1.41,1.41Zm.29-26.71v26h-2V7.5Z"/><path class="cls-1" d="M1142.56.5V0h-.5V.5Zm40,0h.5V0h-.5Zm0,40V41h.5v-.5Zm-40,0h-.5V41h.5Zm0-39.5h40V0h-40Zm39.5-.5v40h1V.5Zm.5,39.5h-40v1h40Zm-39.5.5V.5h-1v40Z"/><path class="cls-3" d="M1194.27,6.79a1,1,0,0,0-1.42,0l-6.36,6.37a1,1,0,0,0,1.41,1.41l5.66-5.66,5.66,5.66a1,1,0,1,0,1.41-1.41Zm.29,26.71V7.5h-2v26Z"/><path class="cls-3" d="M1212.27,34.21a1,1,0,0,1-1.42,0l-6.36-6.37a1,1,0,0,1,1.41-1.41l5.66,5.66,5.66-5.66a1,1,0,1,1,1.41,1.41Zm.29-26.71v26h-2V7.5Z"/><path class="cls-1" d="M1182.56.5V0h-.5V.5Zm40,0h.5V0h-.5Zm0,40V41h.5v-.5Zm-40,0h-.5V41h.5Zm0-39.5h40V0h-40Zm39.5-.5v40h1V.5Zm.5,39.5h-40v1h40Zm-39.5.5V.5h-1v40Z"/><path class="cls-3" d="M1234.27,6.79a1,1,0,0,0-1.42,0l-6.36,6.37a1,1,0,0,0,1.41,1.41l5.66-5.66,5.66,5.66a1,1,0,1,0,1.41-1.41Zm.29,26.71V7.5h-2v26Z"/><path class="cls-3" d="M1252.27,34.21a1,1,0,0,1-1.42,0l-6.36-6.37a1,1,0,0,1,1.41-1.41l5.66,5.66,5.66-5.66a1,1,0,1,1,1.41,1.41Zm.29-26.71v26h-2V7.5Z"/><path class="cls-1" d="M1222.56.5V0h-.5V.5Zm40,0h.5V0h-.5Zm0,40V41h.5v-.5Zm-40,0h-.5V41h.5Zm0-39.5h40V0h-40Zm39.5-.5v40h1V.5Zm.5,39.5h-40v1h40Zm-39.5.5V.5h-1v40Z"/><path class="cls-3" d="M1274.27,6.79a1,1,0,0,0-1.42,0l-6.36,6.37a1,1,0,0,0,1.41,1.41l5.66-5.66,5.66,5.66a1,1,0,1,0,1.41-1.41Zm.29,26.71V7.5h-2v26Z"/><path class="cls-3" d="M1292.27,34.21a1,1,0,0,1-1.42,0l-6.36-6.37a1,1,0,0,1,1.41-1.41l5.66,5.66,5.66-5.66a1,1,0,1,1,1.41,1.41Zm.29-26.71v26h-2V7.5Z"/><path class="cls-1" d="M1262.56.5V0h-.5V.5Zm40,0h.5V0h-.5Zm0,40V41h.5v-.5Zm-40,0h-.5V41h.5Zm0-39.5h40V0h-40Zm39.5-.5v40h1V.5Zm.5,39.5h-40v1h40Zm-39.5.5V.5h-1v40Z"/><path class="cls-3" d="M1314.27,6.79a1,1,0,0,0-1.42,0l-6.36,6.37a1,1,0,0,0,1.41,1.41l5.66-5.66,5.66,5.66a1,1,0,1,0,1.41-1.41Zm.29,26.71V7.5h-2v26Z"/><path class="cls-3" d="M1332.27,34.21a1,1,0,0,1-1.42,0l-6.36-6.37a1,1,0,0,1,1.41-1.41l5.66,5.66,5.66-5.66a1,1,0,1,1,1.41,1.41Zm.29-26.71v26h-2V7.5Z"/><path class="cls-1" d="M1302.56.5V0h-.5V.5Zm40,0h.5V0h-.5Zm0,40V41h.5v-.5Zm-40,0h-.5V41h.5Zm0-39.5h40V0h-40Zm39.5-.5v40h1V.5Zm.5,39.5h-40v1h40Zm-39.5.5V.5h-1v40Z"/><path class="cls-3" d="M834.27,6.79a1,1,0,0,0-1.42,0l-6.36,6.37a1,1,0,1,0,1.41,1.41l5.66-5.66,5.66,5.66a1,1,0,0,0,1.41-1.41Zm.29,26.71V7.5h-2v26Z"/><path class="cls-3" d="M852.27,34.21a1,1,0,0,1-1.42,0l-6.36-6.37a1,1,0,1,1,1.41-1.41l5.66,5.66,5.66-5.66a1,1,0,0,1,1.41,1.41Zm.29-26.71v26h-2V7.5Z"/><path class="cls-1" d="M822.56.5V0h-.5V.5Zm40,0h.5V0h-.5Zm0,40V41h.5v-.5Zm-40,0h-.5V41h.5Zm0-39.5h40V0h-40Zm39.5-.5v40h1V.5Zm.5,39.5h-40v1h40Zm-39.5.5V.5h-1v40Z"/><path class="cls-3" d="M874.27,6.79a1,1,0,0,0-1.42,0l-6.36,6.37a1,1,0,1,0,1.41,1.41l5.66-5.66,5.66,5.66a1,1,0,0,0,1.41-1.41Zm.29,26.71V7.5h-2v26Z"/><path class="cls-3" d="M892.27,34.21a1,1,0,0,1-1.42,0l-6.36-6.37a1,1,0,1,1,1.41-1.41l5.66,5.66,5.66-5.66a1,1,0,0,1,1.41,1.41Zm.29-26.71v26h-2V7.5Z"/><path class="cls-1" d="M862.56.5V0h-.5V.5Zm40,0h.5V0h-.5Zm0,40V41h.5v-.5Zm-40,0h-.5V41h.5Zm0-39.5h40V0h-40Zm39.5-.5v40h1V.5Zm.5,39.5h-40v1h40Zm-39.5.5V.5h-1v40Z"/><path class="cls-3" d="M914.27,6.79a1,1,0,0,0-1.42,0l-6.36,6.37a1,1,0,1,0,1.41,1.41l5.66-5.66,5.66,5.66a1,1,0,0,0,1.41-1.41Zm.29,26.71V7.5h-2v26Z"/><path class="cls-3" d="M932.27,34.21a1,1,0,0,1-1.42,0l-6.36-6.37a1,1,0,1,1,1.41-1.41l5.66,5.66,5.66-5.66a1,1,0,0,1,1.41,1.41Zm.29-26.71v26h-2V7.5Z"/><path class="cls-1" d="M902.56.5V0h-.5V.5Zm40,0h.5V0h-.5Zm0,40V41h.5v-.5Zm-40,0h-.5V41h.5Zm0-39.5h40V0h-40Zm39.5-.5v40h1V.5Zm.5,39.5h-40v1h40Zm-39.5.5V.5h-1v40Z"/><path class="cls-3" d="M954.27,6.79a1,1,0,0,0-1.42,0l-6.36,6.37a1,1,0,1,0,1.41,1.41l5.66-5.66,5.66,5.66a1,1,0,0,0,1.41-1.41Zm.29,26.71V7.5h-2v26Z"/><path class="cls-3" d="M972.27,34.21a1,1,0,0,1-1.42,0l-6.36-6.37a1,1,0,1,1,1.41-1.41l5.66,5.66,5.66-5.66a1,1,0,0,1,1.41,1.41Zm.29-26.71v26h-2V7.5Z"/><path class="cls-1" d="M942.56.5V0h-.5V.5Zm40,0h.5V0h-.5Zm0,40V41h.5v-.5Zm-40,0h-.5V41h.5Zm0-39.5h40V0h-40Zm39.5-.5v40h1V.5Zm.5,39.5h-40v1h40Zm-39.5.5V.5h-1v40Z"/><path class="cls-3" d="M1034.27,6.79a1,1,0,0,0-1.42,0l-6.36,6.37a1,1,0,0,0,1.41,1.41l5.66-5.66,5.66,5.66a1,1,0,1,0,1.41-1.41Zm.29,26.71V7.5h-2v26Z"/><path class="cls-3" d="M1052.27,34.21a1,1,0,0,1-1.42,0l-6.36-6.37a1,1,0,0,1,1.41-1.41l5.66,5.66,5.66-5.66a1,1,0,1,1,1.41,1.41Zm.29-26.71v26h-2V7.5Z"/><path class="cls-1" d="M1022.56.5V0h-.5V.5Zm40,0h.5V0h-.5Zm0,40V41h.5v-.5Zm-40,0h-.5V41h.5Zm0-39.5h40V0h-40Zm39.5-.5v40h1V.5Zm.5,39.5h-40v1h40Zm-39.5.5V.5h-1v40Z"/><path class="cls-3" d="M994.27,6.79a1,1,0,0,0-1.42,0l-6.36,6.37a1,1,0,1,0,1.41,1.41l5.66-5.66,5.66,5.66a1,1,0,0,0,1.41-1.41Zm.29,26.71V7.5h-2v26Z"/><path class="cls-3" d="M1012.27,34.21a1,1,0,0,1-1.42,0l-6.36-6.37a1,1,0,1,1,1.41-1.41l5.66,5.66,5.66-5.66a1,1,0,0,1,1.41,1.41Zm.29-26.71v26h-2V7.5Z"/><path class="cls-1" d="M982.56.5V0h-.5V.5Zm40,0h.5V0h-.5Zm0,40V41h.5v-.5Zm-40,0h-.5V41h.5Zm0-39.5h40V0h-40Zm39.5-.5v40h1V.5Zm.5,39.5h-40v1h40Zm-39.5.5V.5h-1v40Z"/><path class="cls-3" d="M1074.27,6.79a1,1,0,0,0-1.42,0l-6.36,6.37a1,1,0,0,0,1.41,1.41l5.66-5.66,5.66,5.66a1,1,0,1,0,1.41-1.41Zm.29,26.71V7.5h-2v26Z"/><path class="cls-3" d="M1092.27,34.21a1,1,0,0,1-1.42,0l-6.36-6.37a1,1,0,0,1,1.41-1.41l5.66,5.66,5.66-5.66a1,1,0,1,1,1.41,1.41Zm.29-26.71v26h-2V7.5Z"/><path class="cls-1" d="M1062.56.5V0h-.5V.5Zm40,0h.5V0h-.5Zm0,40V41h.5v-.5Zm-40,0h-.5V41h.5Zm0-39.5h40V0h-40Zm39.5-.5v40h1V.5Zm.5,39.5h-40v1h40Zm-39.5.5V.5h-1v40Z"/><path class="cls-1" d="M9,559.5H6v-19a16,16,0,0,1-2.84,2.06A19.91,19.91,0,0,1,0,544.06v-2.89a18.08,18.08,0,0,0,4.38-2.85A11.32,11.32,0,0,0,7,535.06H9Zm3.9-5.26,3-.47a4.1,4.1,0,0,0,1.37,2.72,4.84,4.84,0,0,0,3.19,1,4.76,4.76,0,0,0,3.06-.83,2.52,2.52,0,0,0,1-2,1.82,1.82,0,0,0-.88-1.6,13.38,13.38,0,0,0-3-1,28.51,28.51,0,0,1-4.57-1.43A4.61,4.61,0,0,1,14,548.92a4.71,4.71,0,0,1-.11-4.54,4.79,4.79,0,0,1,1.48-1.68,6,6,0,0,1,1.89-.86,8.72,8.72,0,0,1,2.59-.37,10.17,10.17,0,0,1,3.64.6,4.92,4.92,0,0,1,2.32,1.63,6.22,6.22,0,0,1,1,2.72l-2.92.4a3.19,3.19,0,0,0-1.17-2.13,4.15,4.15,0,0,0-2.68-.76,4.89,4.89,0,0,0-2.94.68,2,2,0,0,0-.88,1.59,1.67,1.67,0,0,0,.36,1,2.61,2.61,0,0,0,1.15.79c.3.12,1.18.37,2.64.77a35.18,35.18,0,0,1,4.41,1.39,4.55,4.55,0,0,1,2,1.56,4.44,4.44,0,0,1,.71,2.56,5,5,0,0,1-.88,2.82,5.55,5.55,0,0,1-2.5,2,9.21,9.21,0,0,1-3.72.72,8.35,8.35,0,0,1-5.25-1.43A6.66,6.66,0,0,1,12.87,554.24Z"/><path class="cls-1" d="M133.41,485.63v2.87H117.33a5.09,5.09,0,0,1,.35-2.08,11,11,0,0,1,2-3.23,31.57,31.57,0,0,1,3.91-3.69,33,33,0,0,0,5.37-5.15,6.18,6.18,0,0,0,1.39-3.6,3.94,3.94,0,0,0-1.28-3,4.52,4.52,0,0,0-3.3-1.23,4.7,4.7,0,0,0-3.46,1.29,4.91,4.91,0,0,0-1.31,3.59l-3.07-.32a7.51,7.51,0,0,1,2.38-5.23,8.08,8.08,0,0,1,5.52-1.81,7.7,7.7,0,0,1,5.55,1.95,6.37,6.37,0,0,1,2,4.81,7.28,7.28,0,0,1-.6,2.87,10.85,10.85,0,0,1-2,3,47.74,47.74,0,0,1-4.6,4.29q-2.68,2.25-3.45,3.07a9.43,9.43,0,0,0-1.26,1.61Zm-.54-2.39,3-.47a4.1,4.1,0,0,0,1.37,2.72,4.84,4.84,0,0,0,3.19.95,4.76,4.76,0,0,0,3.06-.83,2.52,2.52,0,0,0,1-2,1.82,1.82,0,0,0-.88-1.6,13.38,13.38,0,0,0-3.05-1,28.51,28.51,0,0,1-4.57-1.43,4.52,4.52,0,0,1-1.92-1.68,4.43,4.43,0,0,1-.65-2.37,4.58,4.58,0,0,1,.53-2.17,4.79,4.79,0,0,1,1.48-1.68,6,6,0,0,1,1.89-.86,8.72,8.72,0,0,1,2.59-.37,10.08,10.08,0,0,1,3.63.6,4.9,4.9,0,0,1,2.33,1.63,6.22,6.22,0,0,1,1,2.72l-2.92.4a3.19,3.19,0,0,0-1.17-2.13,4.15,4.15,0,0,0-2.68-.76,4.89,4.89,0,0,0-2.94.68,2,2,0,0,0-.88,1.59,1.67,1.67,0,0,0,.36,1.05,2.55,2.55,0,0,0,1.15.79c.3.12,1.18.37,2.64.77a35.18,35.18,0,0,1,4.41,1.39,4.55,4.55,0,0,1,2,1.56,4.44,4.44,0,0,1,.71,2.56,5,5,0,0,1-.88,2.82,5.55,5.55,0,0,1-2.5,2,9.21,9.21,0,0,1-3.72.72,8.35,8.35,0,0,1-5.25-1.43A6.61,6.61,0,0,1,132.87,483.24Z"/><path class="cls-1" d="M92.45,416.63v2.87H76.37a5.26,5.26,0,0,1,.34-2.08,11.23,11.23,0,0,1,2-3.23,32.51,32.51,0,0,1,3.92-3.69A32.85,32.85,0,0,0,88,405.35a6.2,6.2,0,0,0,1.4-3.6,3.94,3.94,0,0,0-1.28-3,4.53,4.53,0,0,0-3.31-1.23,4.69,4.69,0,0,0-3.45,1.29A4.91,4.91,0,0,0,80,402.42l-3.07-.32a7.55,7.55,0,0,1,2.37-5.23,8.13,8.13,0,0,1,5.53-1.81A7.72,7.72,0,0,1,90.38,397a6.37,6.37,0,0,1,2,4.81,7.28,7.28,0,0,1-.6,2.87,11.08,11.08,0,0,1-2,3,47.74,47.74,0,0,1-4.6,4.29q-2.69,2.25-3.45,3.07a10,10,0,0,0-1.27,1.61Zm.65,9.63V401.87h2.73v2.29a6.51,6.51,0,0,1,2.17-2,6,6,0,0,1,2.94-.68,7,7,0,0,1,4,1.16,7.18,7.18,0,0,1,2.61,3.29,12.63,12.63,0,0,1-.1,9.51,7.36,7.36,0,0,1-6.71,4.47,5.71,5.71,0,0,1-2.69-.63,6.1,6.1,0,0,1-1.94-1.6v8.59Zm2.71-15.48a7.65,7.65,0,0,0,1.38,5,4.21,4.21,0,0,0,3.33,1.63,4.33,4.33,0,0,0,3.41-1.67q1.42-1.69,1.42-5.24a7.75,7.75,0,0,0-1.39-5,4.15,4.15,0,0,0-3.3-1.68,4.32,4.32,0,0,0-3.39,1.79A8,8,0,0,0,95.81,410.78Z"/><path class="cls-1" d="M317.73,413.08l3-.4a6.75,6.75,0,0,0,1.75,3.67,4.38,4.38,0,0,0,3,1.11A4.81,4.81,0,0,0,329,416a4.9,4.9,0,0,0,1.46-3.62,4.59,4.59,0,0,0-4.76-4.73,8.59,8.59,0,0,0-2.11.33l.33-2.63a3.28,3.28,0,0,0,.48,0,6.11,6.11,0,0,0,3.44-1,3.39,3.39,0,0,0,1.53-3.07,3.61,3.61,0,0,0-1.12-2.72,3.93,3.93,0,0,0-2.87-1.08,4.09,4.09,0,0,0-2.9,1.09,5.5,5.5,0,0,0-1.5,3.29l-3-.53a7.68,7.68,0,0,1,2.5-4.65,7.19,7.19,0,0,1,4.83-1.66,7.88,7.88,0,0,1,3.67.87,6.06,6.06,0,0,1,2.55,2.32,5.92,5.92,0,0,1,.9,3.14,5.09,5.09,0,0,1-.85,2.87,5.78,5.78,0,0,1-2.51,2.06,5.64,5.64,0,0,1,3.36,2.07,6.24,6.24,0,0,1,1.19,3.92,7.19,7.19,0,0,1-2.32,5.41,8.17,8.17,0,0,1-5.88,2.21,7.71,7.71,0,0,1-5.33-1.91A7.41,7.41,0,0,1,317.73,413.08Zm15.14,1.16,3-.47a4.1,4.1,0,0,0,1.37,2.72,4.84,4.84,0,0,0,3.19.95,4.76,4.76,0,0,0,3.06-.83,2.52,2.52,0,0,0,1-2,1.82,1.82,0,0,0-.88-1.6,13.38,13.38,0,0,0-3.05-1,28.51,28.51,0,0,1-4.57-1.43,4.52,4.52,0,0,1-1.92-1.68,4.43,4.43,0,0,1-.65-2.37,4.58,4.58,0,0,1,.53-2.17,4.79,4.79,0,0,1,1.48-1.68,6,6,0,0,1,1.89-.86,8.72,8.72,0,0,1,2.59-.37,10.08,10.08,0,0,1,3.63.6,4.9,4.9,0,0,1,2.33,1.63,6.22,6.22,0,0,1,1,2.72l-2.92.4a3.19,3.19,0,0,0-1.17-2.13,4.15,4.15,0,0,0-2.68-.76,4.89,4.89,0,0,0-2.94.68,2,2,0,0,0-.88,1.59,1.67,1.67,0,0,0,.36,1.05,2.55,2.55,0,0,0,1.15.79c.3.12,1.18.37,2.64.77a35.18,35.18,0,0,1,4.41,1.39,4.55,4.55,0,0,1,2,1.56,4.44,4.44,0,0,1,.71,2.56,5,5,0,0,1-.88,2.82,5.55,5.55,0,0,1-2.5,2,9.21,9.21,0,0,1-3.72.72,8.35,8.35,0,0,1-5.25-1.43A6.61,6.61,0,0,1,332.87,414.24Z"/><path class="cls-1" d="M236.76,273.08l3-.4a6.75,6.75,0,0,0,1.74,3.67,4.39,4.39,0,0,0,3,1.11,4.81,4.81,0,0,0,3.55-1.46,4.94,4.94,0,0,0,1.46-3.62,4.57,4.57,0,0,0-1.35-3.39,4.63,4.63,0,0,0-3.41-1.34,8.59,8.59,0,0,0-2.11.33l.33-2.62.48,0a6.13,6.13,0,0,0,3.44-1,3.4,3.4,0,0,0,1.52-3.07,3.64,3.64,0,0,0-1.11-2.72,4,4,0,0,0-2.87-1.08,4.13,4.13,0,0,0-2.91,1.09,5.56,5.56,0,0,0-1.49,3.29l-3-.53a7.72,7.72,0,0,1,2.49-4.65,7.23,7.23,0,0,1,4.83-1.66,7.85,7.85,0,0,1,3.67.87,6.09,6.09,0,0,1,2.56,2.32,5.92,5.92,0,0,1,.9,3.14,5.16,5.16,0,0,1-.85,2.87,5.84,5.84,0,0,1-2.51,2.06,5.64,5.64,0,0,1,3.36,2.07,6.3,6.3,0,0,1,1.19,3.92,7.19,7.19,0,0,1-2.32,5.41,8.17,8.17,0,0,1-5.88,2.21,7.64,7.64,0,0,1-5.33-1.91A7.42,7.42,0,0,1,236.76,273.08Zm27.78,6.42v-2.23a5.49,5.49,0,0,1-4.93,2.63,7,7,0,0,1-3.88-1.16A7.72,7.72,0,0,1,253,275.5a11.24,11.24,0,0,1-1-4.8,12.6,12.6,0,0,1,.88-4.78,6.94,6.94,0,0,1,2.64-3.3,7,7,0,0,1,3.94-1.15,5.87,5.87,0,0,1,2.84.68,5.79,5.79,0,0,1,2,1.74v-8.73h3V279.5Zm-9.45-8.8a7.69,7.69,0,0,0,1.43,5.07,4.33,4.33,0,0,0,3.37,1.67,4.21,4.21,0,0,0,3.32-1.59,7.4,7.4,0,0,0,1.38-4.9q0-3.61-1.39-5.31a4.3,4.3,0,0,0-3.44-1.7,4.19,4.19,0,0,0-3.34,1.63A8.12,8.12,0,0,0,255.09,270.7Z"/><path class="cls-1" d="M276.76,344.08l3-.4a6.75,6.75,0,0,0,1.74,3.67,4.39,4.39,0,0,0,3,1.11,4.81,4.81,0,0,0,3.55-1.46,4.94,4.94,0,0,0,1.46-3.62,4.57,4.57,0,0,0-1.35-3.39,4.63,4.63,0,0,0-3.41-1.34,8.59,8.59,0,0,0-2.11.33l.33-2.62.48,0a6.13,6.13,0,0,0,3.44-1,3.4,3.4,0,0,0,1.52-3.07,3.64,3.64,0,0,0-1.11-2.72,4,4,0,0,0-2.87-1.08,4.13,4.13,0,0,0-2.91,1.09,5.56,5.56,0,0,0-1.49,3.29l-3-.53a7.72,7.72,0,0,1,2.49-4.65,7.23,7.23,0,0,1,4.83-1.66,7.85,7.85,0,0,1,3.67.87,6.09,6.09,0,0,1,2.56,2.32,5.92,5.92,0,0,1,.9,3.14,5.16,5.16,0,0,1-.85,2.87,5.84,5.84,0,0,1-2.51,2.06,5.64,5.64,0,0,1,3.36,2.07,6.3,6.3,0,0,1,1.19,3.92,7.19,7.19,0,0,1-2.32,5.41,8.17,8.17,0,0,1-5.88,2.21,7.64,7.64,0,0,1-5.33-1.91A7.42,7.42,0,0,1,276.76,344.08Zm16.34,13.18V332.87h2.73v2.29a6.51,6.51,0,0,1,2.17-2,6,6,0,0,1,2.94-.68,7,7,0,0,1,4,1.16,7.18,7.18,0,0,1,2.61,3.29,12.63,12.63,0,0,1-.1,9.51,7.36,7.36,0,0,1-6.71,4.47,5.71,5.71,0,0,1-2.69-.63,6.1,6.1,0,0,1-1.94-1.6v8.59Zm2.71-15.48a7.65,7.65,0,0,0,1.38,5,4.21,4.21,0,0,0,3.33,1.63,4.33,4.33,0,0,0,3.41-1.67c.95-1.13,1.42-2.88,1.42-5.23a7.76,7.76,0,0,0-1.39-5.05,4.15,4.15,0,0,0-3.3-1.68,4.32,4.32,0,0,0-3.39,1.79A8,8,0,0,0,295.81,341.78Z"/><path class="cls-1" d="M607.29,349.5v-5.83H596.73v-2.74l11.11-15.77h2.44v15.77h3.28v2.74h-3.28v5.83Zm0-8.57V330l-7.62,11Zm5.58,3.31,3-.47a4.16,4.16,0,0,0,1.38,2.72,4.84,4.84,0,0,0,3.19.95,4.65,4.65,0,0,0,3.05-.83,2.5,2.5,0,0,0,1-2,1.82,1.82,0,0,0-.88-1.6,13.38,13.38,0,0,0-3-1,28.51,28.51,0,0,1-4.57-1.43,4.61,4.61,0,0,1-1.93-1.68,4.53,4.53,0,0,1-.64-2.37,4.58,4.58,0,0,1,.53-2.17,4.79,4.79,0,0,1,1.48-1.68,6,6,0,0,1,1.89-.86,8.72,8.72,0,0,1,2.59-.37,10.17,10.17,0,0,1,3.64.6,4.92,4.92,0,0,1,2.32,1.63,6.22,6.22,0,0,1,1,2.72l-2.92.4a3.19,3.19,0,0,0-1.17-2.13,4.16,4.16,0,0,0-2.69-.76,4.8,4.8,0,0,0-2.93.68,2,2,0,0,0-.88,1.59,1.67,1.67,0,0,0,.36,1.05,2.79,2.79,0,0,0,1.15.8c.3.11,1.18.36,2.64.76a35.18,35.18,0,0,1,4.41,1.39,4.55,4.55,0,0,1,2,1.56,4.44,4.44,0,0,1,.71,2.56,5,5,0,0,1-.88,2.82,5.55,5.55,0,0,1-2.5,2,9.21,9.21,0,0,1-3.72.72,8.35,8.35,0,0,1-5.25-1.43A6.61,6.61,0,0,1,612.87,344.24Z"/><path class="cls-1" d="M491.06,139.5v-5.83H480.5v-2.74l11.11-15.77h2.44v15.77h3.28v2.74h-3.28v5.83Zm0-8.57V120l-7.62,11Zm7.49,8.57V124.19h-2.64v-2.32h2.64V120a8.29,8.29,0,0,1,.31-2.64,3.78,3.78,0,0,1,1.51-1.87,5.45,5.45,0,0,1,3.06-.73,14.61,14.61,0,0,1,2.79.3l-.45,2.6a10.09,10.09,0,0,0-1.76-.16,2.62,2.62,0,0,0-1.93.58,3.18,3.18,0,0,0-.56,2.17v1.63H505v2.32h-3.44V139.5Z"/><path class="cls-1" d="M526.32,209.5v-5.83H515.77v-2.74l11.1-15.77h2.44v15.77h3.29v2.74h-3.29v5.83Zm0-8.57V190l-7.62,11Zm18.22,8.57v-2.23a5.49,5.49,0,0,1-4.93,2.63,7,7,0,0,1-3.88-1.16A7.72,7.72,0,0,1,533,205.5a11.24,11.24,0,0,1-1-4.8,12.6,12.6,0,0,1,.88-4.78,6.94,6.94,0,0,1,2.64-3.3,7,7,0,0,1,3.94-1.15,5.87,5.87,0,0,1,2.84.68,5.79,5.79,0,0,1,2,1.74v-8.73h3V209.5Zm-9.45-8.8a7.69,7.69,0,0,0,1.43,5.07,4.33,4.33,0,0,0,3.37,1.67,4.2,4.2,0,0,0,3.32-1.59,7.4,7.4,0,0,0,1.38-4.9q0-3.62-1.39-5.31a4.3,4.3,0,0,0-3.44-1.7,4.19,4.19,0,0,0-3.34,1.63A8.12,8.12,0,0,0,535.09,200.7Z"/><path class="cls-1" d="M566.32,280.5v-5.83H555.77v-2.74l11.1-15.77h2.44v15.77h3.29v2.74h-3.29v5.83Zm0-8.57V261l-7.62,11Zm6.78,15.33V262.87h2.72v2.29a6.63,6.63,0,0,1,2.18-2,6,6,0,0,1,2.94-.68,7,7,0,0,1,4,1.16,7.18,7.18,0,0,1,2.61,3.29,12.63,12.63,0,0,1-.1,9.51,7.36,7.36,0,0,1-6.71,4.47,5.71,5.71,0,0,1-2.69-.63,6.1,6.1,0,0,1-1.94-1.6v8.59Zm2.71-15.48a7.65,7.65,0,0,0,1.38,5,4.21,4.21,0,0,0,3.33,1.63,4.33,4.33,0,0,0,3.41-1.67c1-1.13,1.42-2.88,1.42-5.23a7.76,7.76,0,0,0-1.39-5.05,4.15,4.15,0,0,0-3.3-1.68,4.32,4.32,0,0,0-3.39,1.79A8,8,0,0,0,575.81,271.78Z"/><path class="cls-1" d="M919.41,273.13l3.14-.27a5.65,5.65,0,0,0,1.61,3.45,4.4,4.4,0,0,0,3.07,1.15,4.75,4.75,0,0,0,3.65-1.63,6.09,6.09,0,0,0,1.49-4.31,5.53,5.53,0,0,0-1.44-4,5,5,0,0,0-3.75-1.48,5.1,5.1,0,0,0-2.61.67,5,5,0,0,0-1.82,1.69l-2.81-.37,2.36-12.5h12.1v2.86h-9.71l-1.31,6.54a7.89,7.89,0,0,1,4.59-1.53,7.29,7.29,0,0,1,5.38,2.21,7.73,7.73,0,0,1,2.19,5.68,8.87,8.87,0,0,1-1.92,5.71,7.71,7.71,0,0,1-6.39,3,7.89,7.89,0,0,1-5.43-1.86A7.27,7.27,0,0,1,919.41,273.13Zm15.16,1.11,2.95-.47a4.16,4.16,0,0,0,1.38,2.72,4.84,4.84,0,0,0,3.19.95,4.65,4.65,0,0,0,3-.83,2.5,2.5,0,0,0,1-2,1.82,1.82,0,0,0-.88-1.6,13.38,13.38,0,0,0-3-1,28.17,28.17,0,0,1-4.57-1.43,4.61,4.61,0,0,1-1.93-1.68,4.53,4.53,0,0,1-.64-2.37,4.47,4.47,0,0,1,.53-2.17,4.79,4.79,0,0,1,1.48-1.68,6,6,0,0,1,1.89-.86,8.72,8.72,0,0,1,2.59-.37,10.08,10.08,0,0,1,3.63.6,4.9,4.9,0,0,1,2.33,1.63,6.22,6.22,0,0,1,1,2.72l-2.92.4a3.19,3.19,0,0,0-1.17-2.13,4.16,4.16,0,0,0-2.69-.76,4.8,4.8,0,0,0-2.93.68,2,2,0,0,0-.88,1.59,1.67,1.67,0,0,0,.36,1.05,2.73,2.73,0,0,0,1.15.8c.3.11,1.17.36,2.64.76a35.18,35.18,0,0,1,4.41,1.39,4.55,4.55,0,0,1,2,1.56,4.44,4.44,0,0,1,.71,2.56,5,5,0,0,1-.88,2.82,5.52,5.52,0,0,1-2.51,2,9.13,9.13,0,0,1-3.71.72,8.33,8.33,0,0,1-5.25-1.43A6.61,6.61,0,0,1,934.57,274.24Z"/><path class="cls-1" d="M801.48,63.13l3.14-.27a5.6,5.6,0,0,0,1.61,3.45,4.4,4.4,0,0,0,3.07,1.15A4.75,4.75,0,0,0,813,65.83a6.1,6.1,0,0,0,1.49-4.32,5.52,5.52,0,0,0-1.44-4A5,5,0,0,0,809.25,56a5.1,5.1,0,0,0-2.61.67,5,5,0,0,0-1.82,1.69L802,58l2.36-12.5h12.1v2.86h-9.71l-1.31,6.54A7.89,7.89,0,0,1,810,53.36a7.29,7.29,0,0,1,5.38,2.21,7.73,7.73,0,0,1,2.2,5.68A8.9,8.9,0,0,1,815.69,67a7.71,7.71,0,0,1-6.39,3,7.93,7.93,0,0,1-5.43-1.85A7.27,7.27,0,0,1,801.48,63.13Zm17.07,6.37V54.19h-2.64V51.87h2.64V50a8.29,8.29,0,0,1,.31-2.64,3.78,3.78,0,0,1,1.51-1.87,5.45,5.45,0,0,1,3.06-.73,14.61,14.61,0,0,1,2.79.3l-.45,2.6a10.09,10.09,0,0,0-1.76-.16,2.62,2.62,0,0,0-1.93.58,3.18,3.18,0,0,0-.56,2.17v1.63H825v2.32h-3.44V69.5Z"/><path class="cls-1" d="M836.75,133.13l3.13-.27a5.71,5.71,0,0,0,1.61,3.45,4.44,4.44,0,0,0,3.07,1.15,4.77,4.77,0,0,0,3.66-1.63,6.14,6.14,0,0,0,1.49-4.31,5.53,5.53,0,0,0-1.44-4,5,5,0,0,0-3.76-1.48,5.06,5.06,0,0,0-2.6.67,5,5,0,0,0-1.83,1.69l-2.8-.37,2.35-12.5h12.11v2.86H842l-1.32,6.54a8,8,0,0,1,4.6-1.53,7.29,7.29,0,0,1,5.38,2.21,7.73,7.73,0,0,1,2.19,5.68A8.87,8.87,0,0,1,851,137a7.72,7.72,0,0,1-6.4,3,7.88,7.88,0,0,1-5.42-1.86A7.27,7.27,0,0,1,836.75,133.13Zm27.79,6.37v-2.23a5.49,5.49,0,0,1-4.93,2.63,7,7,0,0,1-3.89-1.16A7.77,7.77,0,0,1,853,135.5a11.24,11.24,0,0,1-1-4.8,12.6,12.6,0,0,1,.88-4.78,6.94,6.94,0,0,1,2.64-3.3,7,7,0,0,1,3.94-1.15,5.87,5.87,0,0,1,2.84.68,5.79,5.79,0,0,1,2,1.74v-8.73h3V139.5Zm-9.45-8.8a7.69,7.69,0,0,0,1.43,5.07,4.33,4.33,0,0,0,3.37,1.67,4.21,4.21,0,0,0,3.32-1.59,7.4,7.4,0,0,0,1.38-4.9q0-3.61-1.4-5.31a4.27,4.27,0,0,0-3.43-1.7,4.19,4.19,0,0,0-3.34,1.63A8.12,8.12,0,0,0,855.09,130.7Z"/><path class="cls-1" d="M876.75,204.13l3.13-.27a5.71,5.71,0,0,0,1.61,3.45,4.44,4.44,0,0,0,3.07,1.15,4.77,4.77,0,0,0,3.66-1.63,6.14,6.14,0,0,0,1.49-4.31,5.53,5.53,0,0,0-1.44-4,5,5,0,0,0-3.76-1.48,5.06,5.06,0,0,0-2.6.67,4.9,4.9,0,0,0-1.83,1.69l-2.8-.37,2.35-12.5h12.11v2.86H882l-1.31,6.54a7.92,7.92,0,0,1,4.6-1.53,7.29,7.29,0,0,1,5.38,2.21,7.73,7.73,0,0,1,2.19,5.68A8.87,8.87,0,0,1,891,208a7.72,7.72,0,0,1-6.4,3,7.88,7.88,0,0,1-5.42-1.86A7.22,7.22,0,0,1,876.75,204.13Zm16.35,13.13V192.87h2.72v2.29a6.63,6.63,0,0,1,2.18-2,6,6,0,0,1,2.94-.68,7,7,0,0,1,4,1.16,7.18,7.18,0,0,1,2.61,3.29,12,12,0,0,1,.88,4.63,11.78,11.78,0,0,1-1,4.88,7.36,7.36,0,0,1-6.71,4.47,5.71,5.71,0,0,1-2.69-.63,6.1,6.1,0,0,1-1.94-1.6v8.59Zm2.71-15.48a7.65,7.65,0,0,0,1.38,5,4.2,4.2,0,0,0,3.33,1.63,4.34,4.34,0,0,0,3.41-1.67c1-1.13,1.42-2.88,1.42-5.23a7.76,7.76,0,0,0-1.39-5,4.15,4.15,0,0,0-3.31-1.68,4.32,4.32,0,0,0-3.38,1.79A8,8,0,0,0,895.81,201.78Z"/><path class="cls-1" d="M1397.91,110.35v-2.87h15.75v2.32a33,33,0,0,0-4.61,6.58,40,40,0,0,0-3.52,8.43,31.52,31.52,0,0,0-1.15,6.69h-3.07a29.58,29.58,0,0,1,1.13-6.94,36.45,36.45,0,0,1,3.09-7.83,33.56,33.56,0,0,1,4.3-6.38Zm15,15.89,3-.47a4.16,4.16,0,0,0,1.38,2.72,4.84,4.84,0,0,0,3.19.95,4.65,4.65,0,0,0,3-.83,2.5,2.5,0,0,0,1-2,1.82,1.82,0,0,0-.88-1.6,13.38,13.38,0,0,0-3-1,28.17,28.17,0,0,1-4.57-1.43,4.66,4.66,0,0,1-1.93-1.67,4.57,4.57,0,0,1-.64-2.38,4.44,4.44,0,0,1,.53-2.17,4.79,4.79,0,0,1,1.48-1.68,6,6,0,0,1,1.89-.86,8.72,8.72,0,0,1,2.59-.37,10.08,10.08,0,0,1,3.63.6,4.9,4.9,0,0,1,2.33,1.63,6.22,6.22,0,0,1,1,2.72l-2.92.4a3.19,3.19,0,0,0-1.17-2.13,4.16,4.16,0,0,0-2.69-.76,4.8,4.8,0,0,0-2.93.68,2,2,0,0,0-.88,1.59,1.67,1.67,0,0,0,.36,1,2.55,2.55,0,0,0,1.15.79c.3.12,1.17.37,2.64.77a35.18,35.18,0,0,1,4.41,1.39,4.55,4.55,0,0,1,2,1.56,4.44,4.44,0,0,1,.71,2.56,5,5,0,0,1-.88,2.82,5.52,5.52,0,0,1-2.51,2,9.13,9.13,0,0,1-3.71.72,8.33,8.33,0,0,1-5.25-1.43A6.61,6.61,0,0,1,1412.87,126.24Z"/><path class="cls-1" d="M1356.94,41.35V38.48h15.76V40.8a33.42,33.42,0,0,0-4.62,6.58,40.49,40.49,0,0,0-3.52,8.43,32.18,32.18,0,0,0-1.14,6.69h-3.07a29.66,29.66,0,0,1,1.13-6.94,36.94,36.94,0,0,1,3.08-7.83,34,34,0,0,1,4.3-6.38Zm16.16,27.91V44.87h2.72v2.29a6.63,6.63,0,0,1,2.18-2,6,6,0,0,1,2.94-.68,7,7,0,0,1,4,1.16,7.18,7.18,0,0,1,2.61,3.29,12,12,0,0,1,.88,4.63,11.78,11.78,0,0,1-1,4.88,7.36,7.36,0,0,1-6.71,4.47,5.71,5.71,0,0,1-2.69-.63,6.1,6.1,0,0,1-1.94-1.6v8.59Zm2.71-15.48a7.65,7.65,0,0,0,1.38,5,4.2,4.2,0,0,0,3.33,1.63,4.32,4.32,0,0,0,3.41-1.68c1-1.12,1.42-2.87,1.42-5.22a7.76,7.76,0,0,0-1.39-5,4.15,4.15,0,0,0-3.31-1.68,4.32,4.32,0,0,0-3.38,1.79A8,8,0,0,0,1375.81,53.78Z"/><path class="cls-1" d="M1213.21,191.12l-3,.23a5.52,5.52,0,0,0-1.13-2.55,3.94,3.94,0,0,0-3-1.28,4.11,4.11,0,0,0-2.51.8,6.81,6.81,0,0,0-2.23,3,15.73,15.73,0,0,0-.84,5.63,6.89,6.89,0,0,1,2.64-2.44,7.11,7.11,0,0,1,3.27-.8,6.76,6.76,0,0,1,5.08,2.21,7.87,7.87,0,0,1,2.11,5.68,9.34,9.34,0,0,1-1,4.26,7.16,7.16,0,0,1-2.71,3,7.36,7.36,0,0,1-3.91,1,7.7,7.7,0,0,1-6.1-2.74q-2.36-2.76-2.35-9.07,0-7.05,2.6-10.26a7.5,7.5,0,0,1,6.13-2.79,6.52,6.52,0,0,1,6.9,6.06ZM1201,201.61a7.05,7.05,0,0,0,.65,3,5,5,0,0,0,1.84,2.16,4.7,4.7,0,0,0,2.48.73,4.21,4.21,0,0,0,3.25-1.53,6,6,0,0,0,1.36-4.15,5.63,5.63,0,0,0-1.34-4,4.43,4.43,0,0,0-3.39-1.46,4.62,4.62,0,0,0-3.44,1.46A5.2,5.2,0,0,0,1201,201.61Zm11.86,2.63,3-.47a4.16,4.16,0,0,0,1.38,2.72,4.84,4.84,0,0,0,3.19.95,4.65,4.65,0,0,0,3-.83,2.5,2.5,0,0,0,1-2,1.82,1.82,0,0,0-.88-1.6,13.38,13.38,0,0,0-3-1,28.17,28.17,0,0,1-4.57-1.43,4.61,4.61,0,0,1-1.93-1.68,4.53,4.53,0,0,1-.64-2.37,4.47,4.47,0,0,1,.53-2.17,4.79,4.79,0,0,1,1.48-1.68,6,6,0,0,1,1.89-.86,8.72,8.72,0,0,1,2.59-.37,10.08,10.08,0,0,1,3.63.6,4.9,4.9,0,0,1,2.33,1.63,6.22,6.22,0,0,1,1,2.72l-2.92.4a3.19,3.19,0,0,0-1.17-2.13,4.16,4.16,0,0,0-2.69-.76,4.8,4.8,0,0,0-2.93.68,2,2,0,0,0-.88,1.59,1.67,1.67,0,0,0,.36,1.05,2.73,2.73,0,0,0,1.15.8c.3.11,1.17.36,2.64.76a35.18,35.18,0,0,1,4.41,1.39,4.55,4.55,0,0,1,2,1.56,4.44,4.44,0,0,1,.71,2.56,5,5,0,0,1-.88,2.82,5.52,5.52,0,0,1-2.51,2,9.13,9.13,0,0,1-3.71.72,8.33,8.33,0,0,1-5.25-1.43A6.61,6.61,0,0,1,1212.87,204.24Z"/><path class="cls-1" d="M1132.25,51.12l-3,.23a5.62,5.62,0,0,0-1.13-2.55,4,4,0,0,0-3-1.28,4.08,4.08,0,0,0-2.5.8,6.67,6.67,0,0,0-2.23,3,15.93,15.93,0,0,0-.85,5.63,6.89,6.89,0,0,1,2.64-2.44,7.11,7.11,0,0,1,3.27-.8,6.73,6.73,0,0,1,5.08,2.21,7.83,7.83,0,0,1,2.11,5.68,9.33,9.33,0,0,1-1,4.26,7.22,7.22,0,0,1-2.71,3,7.39,7.39,0,0,1-3.92,1,7.67,7.67,0,0,1-6.09-2.73q-2.35-2.76-2.36-9.07,0-7.05,2.61-10.26a7.5,7.5,0,0,1,6.12-2.79,6.54,6.54,0,0,1,6.91,6.06Zm-12.2,10.49a6.9,6.9,0,0,0,.65,3,5,5,0,0,0,1.84,2.16,4.69,4.69,0,0,0,2.47.73,4.23,4.23,0,0,0,3.26-1.53,6,6,0,0,0,1.36-4.15,5.59,5.59,0,0,0-1.35-4,4.4,4.4,0,0,0-3.38-1.46,4.62,4.62,0,0,0-3.44,1.46A5.2,5.2,0,0,0,1120.05,61.61Zm24.49,7.89V67.27a5.49,5.49,0,0,1-4.93,2.63,7,7,0,0,1-3.89-1.16A7.77,7.77,0,0,1,1133,65.5a11.24,11.24,0,0,1-1-4.8,12.6,12.6,0,0,1,.88-4.78,6.94,6.94,0,0,1,2.64-3.3,7,7,0,0,1,3.94-1.15,5.9,5.9,0,0,1,4.86,2.43V45.16h3V69.5Zm-9.45-8.8a7.64,7.64,0,0,0,1.43,5.06,4.31,4.31,0,0,0,3.37,1.68,4.21,4.21,0,0,0,3.32-1.59,7.4,7.4,0,0,0,1.38-4.9q0-3.62-1.4-5.31a4.27,4.27,0,0,0-3.43-1.7,4.19,4.19,0,0,0-3.34,1.63A8.12,8.12,0,0,0,1135.09,60.7Z"/><path class="cls-1" d="M1172.25,122.12l-3,.23a5.62,5.62,0,0,0-1.13-2.55,4,4,0,0,0-3-1.28,4.08,4.08,0,0,0-2.5.8,6.67,6.67,0,0,0-2.23,3,15.93,15.93,0,0,0-.85,5.63,6.89,6.89,0,0,1,2.64-2.44,7.11,7.11,0,0,1,3.27-.8,6.73,6.73,0,0,1,5.08,2.21,7.83,7.83,0,0,1,2.11,5.68,9.33,9.33,0,0,1-1,4.26,7.22,7.22,0,0,1-2.71,3,7.4,7.4,0,0,1-3.92,1,7.68,7.68,0,0,1-6.09-2.74q-2.35-2.76-2.36-9.07,0-7.05,2.61-10.26a7.5,7.5,0,0,1,6.12-2.79,6.54,6.54,0,0,1,6.91,6.06Zm-12.2,10.49a6.9,6.9,0,0,0,.65,3,5,5,0,0,0,1.84,2.16,4.69,4.69,0,0,0,2.47.73,4.23,4.23,0,0,0,3.26-1.53,6,6,0,0,0,1.36-4.15,5.59,5.59,0,0,0-1.35-4,4.4,4.4,0,0,0-3.38-1.46,4.62,4.62,0,0,0-3.44,1.46A5.2,5.2,0,0,0,1160.05,132.61Zm13,14.65V122.87h2.72v2.29a6.63,6.63,0,0,1,2.18-2,6,6,0,0,1,2.94-.68,7,7,0,0,1,4,1.16,7.18,7.18,0,0,1,2.61,3.29,12,12,0,0,1,.88,4.63,11.78,11.78,0,0,1-1,4.88,7.36,7.36,0,0,1-6.71,4.47,5.71,5.71,0,0,1-2.69-.63,6.1,6.1,0,0,1-1.94-1.6v8.59Zm2.71-15.48a7.65,7.65,0,0,0,1.38,5,4.2,4.2,0,0,0,3.33,1.63,4.34,4.34,0,0,0,3.41-1.67c1-1.13,1.42-2.88,1.42-5.23a7.76,7.76,0,0,0-1.39-5,4.15,4.15,0,0,0-3.31-1.68,4.32,4.32,0,0,0-3.38,1.79A8,8,0,0,0,1175.81,131.78Z"/></g></g></g></svg>